G04 ================== begin FILE IDENTIFICATION RECORD ==================*
G04 Layout Name:  IRRIGATION_PROJECT.brd*
G04 Film Name:    SILKSCREEN_TOP*
G04 File Format:  Gerber RS274X*
G04 File Origin:  Cadence Allegro 17.4-S016*
G04 Origin Date:  Sat Apr 23 14:48:20 2022*
G04 *
G04 Layer:  REF DES/SILKSCREEN_TOP*
G04 Layer:  PACKAGE GEOMETRY/ASSEMBLY_TOP*
G04 Layer:  PACKAGE GEOMETRY/SOLDERMASK_TOP*
G04 Layer:  BOARD GEOMETRY/SOLDERMASK_TOP*
G04 Layer:  BOARD GEOMETRY/OFF_GRID_AREA*
G04 *
G04 Offset:    (0.00 0.00)*
G04 Mirror:    No*
G04 Mode:      Positive*
G04 Rotation:  0*
G04 FullContactRelief:  No*
G04 UndefLineWidth:     5.00*
G04 ================== end FILE IDENTIFICATION RECORD ====================*
%FSLAX25Y25*MOIN*%
%IR0*IPPOS*OFA0.00000B0.00000*MIA0B0*SFA1.00000B1.00000*%
%ADD10C,.02*%
%ADD11C,.005*%
%ADD12C,.00394*%
%ADD13C,.00787*%
G75*
%LPD*%
G75*
G54D10*
G01X16500Y30000D02*
G02I-1500J0D01*
G01Y75000D02*
G02I-1500J0D01*
G01Y120000D02*
G02I-1500J0D01*
G01Y165000D02*
G02I-1500J0D01*
G01X131500Y130000D02*
G02I-1500J0D01*
G54D11*
G01X24167Y14703D02*
X24667Y14323D01*
X24917Y13880D01*
X25000Y13373D01*
X24833Y12740D01*
X24417Y12297D01*
X23917Y12170D01*
X23417Y12233D01*
X23000Y12487D01*
X22167Y13753D01*
X21583Y14323D01*
X20750Y14703D01*
X20000Y14830D01*
Y12170D01*
G01X24167Y14703D02*
X24667Y14323D01*
X24917Y13880D01*
X25000Y13373D01*
X24833Y12740D01*
X24417Y12297D01*
X23917Y12170D01*
X23417Y12233D01*
X23000Y12487D01*
X22167Y13753D01*
X21583Y14323D01*
X20750Y14703D01*
X20000Y14830D01*
Y12170D01*
G01Y36500D02*
X25000D01*
X24000Y37260D01*
G01X20000D02*
Y35740D01*
G01Y36500D02*
X25000D01*
X24000Y37260D01*
G01X20000D02*
Y35740D01*
G01X27100Y34200D02*
X17900D01*
G01X27100Y15800D02*
Y34200D01*
G01X17900Y15800D02*
X27100D01*
G01X17900Y34200D02*
Y15800D01*
G01X24167Y59703D02*
X24667Y59323D01*
X24917Y58880D01*
X25000Y58373D01*
X24833Y57740D01*
X24417Y57297D01*
X23917Y57170D01*
X23417Y57233D01*
X23000Y57487D01*
X22167Y58753D01*
X21583Y59323D01*
X20750Y59703D01*
X20000Y59830D01*
Y57170D01*
G01X24167Y59703D02*
X24667Y59323D01*
X24917Y58880D01*
X25000Y58373D01*
X24833Y57740D01*
X24417Y57297D01*
X23917Y57170D01*
X23417Y57233D01*
X23000Y57487D01*
X22167Y58753D01*
X21583Y59323D01*
X20750Y59703D01*
X20000Y59830D01*
Y57170D01*
G01X27100Y60800D02*
Y79200D01*
G01X17900Y60800D02*
X27100D01*
G01X17900Y79200D02*
Y60800D01*
G01X20000Y81500D02*
X25000D01*
X24000Y82260D01*
G01X20000D02*
Y80740D01*
G01Y81500D02*
X25000D01*
X24000Y82260D01*
G01X20000D02*
Y80740D01*
G01X27100Y79200D02*
X17900D01*
G01X24167Y104703D02*
X24667Y104323D01*
X24917Y103880D01*
X25000Y103373D01*
X24833Y102740D01*
X24417Y102297D01*
X23917Y102170D01*
X23417Y102233D01*
X23000Y102487D01*
X22167Y103753D01*
X21583Y104323D01*
X20750Y104703D01*
X20000Y104830D01*
Y102170D01*
G01X24167Y104703D02*
X24667Y104323D01*
X24917Y103880D01*
X25000Y103373D01*
X24833Y102740D01*
X24417Y102297D01*
X23917Y102170D01*
X23417Y102233D01*
X23000Y102487D01*
X22167Y103753D01*
X21583Y104323D01*
X20750Y104703D01*
X20000Y104830D01*
Y102170D01*
G01Y126500D02*
X25000D01*
X24000Y127260D01*
G01X20000D02*
Y125740D01*
G01Y126500D02*
X25000D01*
X24000Y127260D01*
G01X20000D02*
Y125740D01*
G01X27100Y124200D02*
X17900D01*
G01X27100Y105800D02*
Y124200D01*
G01X17900Y105800D02*
X27100D01*
G01X17900Y124200D02*
Y105800D01*
G01X24167Y149703D02*
X24667Y149323D01*
X24917Y148880D01*
X25000Y148373D01*
X24833Y147740D01*
X24417Y147297D01*
X23917Y147170D01*
X23417Y147233D01*
X23000Y147487D01*
X22167Y148753D01*
X21583Y149323D01*
X20750Y149703D01*
X20000Y149830D01*
Y147170D01*
G01X24167Y149703D02*
X24667Y149323D01*
X24917Y148880D01*
X25000Y148373D01*
X24833Y147740D01*
X24417Y147297D01*
X23917Y147170D01*
X23417Y147233D01*
X23000Y147487D01*
X22167Y148753D01*
X21583Y149323D01*
X20750Y149703D01*
X20000Y149830D01*
Y147170D01*
G01X27100Y150800D02*
Y169200D01*
G01X17900Y150800D02*
X27100D01*
G01X17900Y169200D02*
Y150800D01*
G01X20000Y171500D02*
X25000D01*
X24000Y172260D01*
G01X20000D02*
Y170740D01*
G01Y171500D02*
X25000D01*
X24000Y172260D01*
G01X20000D02*
Y170740D01*
G01X27100Y169200D02*
X17900D01*
G01X53557Y7500D02*
Y12500D01*
X54823D01*
X55330Y12250D01*
X55710Y11917D01*
X56027Y11417D01*
X56280Y10833D01*
X56343Y10000D01*
X56280Y9167D01*
X56027Y8583D01*
X55710Y8083D01*
X55330Y7750D01*
X54823Y7500D01*
X53557D01*
G01X60050D02*
Y12500D01*
X59290Y11500D01*
G01Y7500D02*
X60810D01*
G01X43500Y43817D02*
X43000Y43500D01*
X42667Y43120D01*
X42500Y42677D01*
X42667Y42170D01*
X43000Y41790D01*
X43500Y41410D01*
X44167Y41283D01*
X47500D01*
G01X46667Y38653D02*
X47167Y38273D01*
X47417Y37830D01*
X47500Y37323D01*
X47333Y36690D01*
X46917Y36247D01*
X46417Y36120D01*
X45917Y36183D01*
X45500Y36437D01*
X44667Y37703D01*
X44083Y38273D01*
X43250Y38653D01*
X42500Y38780D01*
Y36120D01*
G01X55250Y180000D02*
Y40000D01*
G01D02*
X84750D01*
G01X53400Y43400D02*
X55250D01*
G01X53400Y46600D02*
Y43400D01*
G01X55250Y46600D02*
X53400D01*
G01X55250Y43400D02*
Y46600D01*
G01X53400Y53400D02*
X55250D01*
G01X53400Y56600D02*
Y53400D01*
G01X55250Y56600D02*
X53400D01*
G01X55250Y53400D02*
Y56600D01*
G01X53400Y63400D02*
X55250D01*
G01X53400Y66600D02*
Y63400D01*
G01X55250Y66600D02*
X53400D01*
G01X55250Y63400D02*
Y66600D01*
G01X43500Y88817D02*
X43000Y88500D01*
X42667Y88120D01*
X42500Y87677D01*
X42667Y87170D01*
X43000Y86790D01*
X43500Y86410D01*
X44167Y86283D01*
X47500D01*
G01X43500Y83843D02*
X42917Y83463D01*
X42583Y82957D01*
X42500Y82387D01*
X42583Y81880D01*
X43000Y81373D01*
X43500Y81057D01*
X44000Y80993D01*
X44583Y81120D01*
X45000Y81563D01*
X45167Y82007D01*
Y82577D01*
G01Y82007D02*
X45417Y81627D01*
X45833Y81310D01*
X46333Y81183D01*
X46833Y81310D01*
X47250Y81627D01*
X47500Y82197D01*
X47417Y82767D01*
X47083Y83337D01*
G01X53400Y73400D02*
X55250D01*
G01X53400Y76600D02*
Y73400D01*
G01X55250Y76600D02*
X53400D01*
G01X55250Y73400D02*
Y76600D01*
G01X53400Y83400D02*
X55250D01*
G01X53400Y86600D02*
Y83400D01*
G01X55250Y86600D02*
X53400D01*
G01X55250Y83400D02*
Y86600D01*
G01X53400Y93400D02*
X55250D01*
G01X53400Y96600D02*
Y93400D01*
G01X55250Y96600D02*
X53400D01*
G01X55250Y93400D02*
Y96600D01*
G01X45167Y129543D02*
X45417Y129290D01*
X45833Y129100D01*
X46417Y128973D01*
X46917Y129100D01*
X47250Y129353D01*
X47500Y129797D01*
Y131507D01*
X42500D01*
Y129417D01*
X42833Y128973D01*
X43333Y128720D01*
X43917Y128593D01*
X44500Y128720D01*
X45000Y129100D01*
X45167Y129543D01*
Y131507D01*
G01X46667Y126153D02*
X47167Y125773D01*
X47417Y125330D01*
X47500Y124823D01*
X47333Y124190D01*
X46917Y123747D01*
X46417Y123620D01*
X45917Y123683D01*
X45500Y123937D01*
X44667Y125203D01*
X44083Y125773D01*
X43250Y126153D01*
X42500Y126280D01*
Y123620D01*
G01X53400Y103400D02*
X55250D01*
G01X53400Y106600D02*
Y103400D01*
G01X55250Y106600D02*
X53400D01*
G01X55250Y103400D02*
Y106600D01*
G01X53400Y113400D02*
X55250D01*
G01X53400Y116600D02*
Y113400D01*
G01X55250Y116600D02*
X53400D01*
G01X55250Y113400D02*
Y116600D01*
G01X53400Y123400D02*
X55250D01*
G01X53400Y126600D02*
Y123400D01*
G01X55250Y126600D02*
X53400D01*
G01X55250Y123400D02*
Y126600D01*
G01X53400Y133400D02*
X55250D01*
G01X53400Y136600D02*
Y133400D01*
G01X55250Y136600D02*
X53400D01*
G01X55250Y133400D02*
Y136600D01*
G01X53400Y143400D02*
X55250D01*
G01X53400Y146600D02*
Y143400D01*
G01X55250Y146600D02*
X53400D01*
G01X55250Y143400D02*
Y146600D01*
G01X53400Y153400D02*
X55250D01*
G01X53400Y156600D02*
Y153400D01*
G01X55250Y156600D02*
X53400D01*
G01X55250Y153400D02*
Y156600D01*
G01X45167Y177043D02*
X45417Y176790D01*
X45833Y176600D01*
X46417Y176473D01*
X46917Y176600D01*
X47250Y176853D01*
X47500Y177297D01*
Y179007D01*
X42500D01*
Y176917D01*
X42833Y176473D01*
X43333Y176220D01*
X43917Y176093D01*
X44500Y176220D01*
X45000Y176600D01*
X45167Y177043D01*
Y179007D01*
G01X42500Y172450D02*
X47500D01*
X46500Y173210D01*
G01X42500D02*
Y171690D01*
G01X54857Y172333D02*
X57643Y176000D01*
G01X56250Y176667D02*
Y171667D01*
G01X57643Y172333D02*
X54857Y176000D01*
G01X54350Y174167D02*
X58150D01*
G01X51057Y190000D02*
Y186417D01*
X51310Y185667D01*
X51817Y185167D01*
X52450Y185000D01*
X53083Y185167D01*
X53590Y185667D01*
X53843Y186417D01*
Y190000D01*
G01X57550Y185000D02*
Y190000D01*
X56790Y189000D01*
G01Y185000D02*
X58310D01*
G01X84750Y180000D02*
X55250D01*
G01X53400Y163400D02*
X55250D01*
G01X53400Y166600D02*
Y163400D01*
G01X55250Y166600D02*
X53400D01*
G01X55250Y163400D02*
Y166600D01*
G01X53400Y173400D02*
X55250D01*
G01X53400Y176600D02*
Y173400D01*
G01X55250Y176600D02*
X53400D01*
G01X55250Y173400D02*
Y176600D01*
G01X65650Y12650D02*
Y7350D01*
G01X74350D02*
Y12650D01*
G01X65650Y7350D02*
X74350D01*
G01D02*
Y12650D01*
G01X71750Y7350D02*
X74350D01*
G01X71750Y12650D02*
Y7350D01*
G01X65650D02*
X68250D01*
G01X65650Y12650D02*
Y7350D01*
G01X68250D02*
Y12650D01*
G01X74350D02*
X65650D01*
G01X74350D02*
X71750D01*
G01X68250D02*
X65650D01*
G01X84750Y40000D02*
Y180000D01*
G01X86600Y66600D02*
X84750D01*
G01X86600Y63400D02*
Y66600D01*
G01X84750Y63400D02*
X86600D01*
G01X84750Y66600D02*
Y63400D01*
G01X86600Y56600D02*
X84750D01*
G01X86600Y53400D02*
Y56600D01*
G01X84750Y53400D02*
X86600D01*
G01X84750Y56600D02*
Y53400D01*
G01X86600Y46600D02*
X84750D01*
G01X86600Y43400D02*
Y46600D01*
G01X84750Y43400D02*
X86600D01*
G01X84750Y46600D02*
Y43400D01*
G01X86600Y96600D02*
X84750D01*
G01X86600Y93400D02*
Y96600D01*
G01X84750Y93400D02*
X86600D01*
G01X84750Y96600D02*
Y93400D01*
G01X86600Y86600D02*
X84750D01*
G01X86600Y83400D02*
Y86600D01*
G01X84750Y83400D02*
X86600D01*
G01X84750Y86600D02*
Y83400D01*
G01X86600Y76600D02*
X84750D01*
G01X86600Y73400D02*
Y76600D01*
G01X84750Y73400D02*
X86600D01*
G01X84750Y76600D02*
Y73400D01*
G01X86600Y126600D02*
X84750D01*
G01X86600Y123400D02*
Y126600D01*
G01X84750Y123400D02*
X86600D01*
G01X84750Y126600D02*
Y123400D01*
G01X86600Y116600D02*
X84750D01*
G01X86600Y113400D02*
Y116600D01*
G01X84750Y113400D02*
X86600D01*
G01X84750Y116600D02*
Y113400D01*
G01X86600Y106600D02*
X84750D01*
G01X86600Y103400D02*
Y106600D01*
G01X84750Y103400D02*
X86600D01*
G01X84750Y106600D02*
Y103400D01*
G01X86600Y156600D02*
X84750D01*
G01X86600Y153400D02*
Y156600D01*
G01X84750Y153400D02*
X86600D01*
G01X84750Y156600D02*
Y153400D01*
G01X86600Y146600D02*
X84750D01*
G01X86600Y143400D02*
Y146600D01*
G01X84750Y143400D02*
X86600D01*
G01X84750Y146600D02*
Y143400D01*
G01X86600Y136600D02*
X84750D01*
G01X86600Y133400D02*
Y136600D01*
G01X84750Y133400D02*
X86600D01*
G01X84750Y136600D02*
Y133400D01*
G01X68800Y180000D02*
G03X71200I1200J0D01*
G01X86600Y176600D02*
X84750D01*
G01X86600Y173400D02*
Y176600D01*
G01X84750Y173400D02*
X86600D01*
G01X84750Y176600D02*
Y173400D01*
G01X86600Y166600D02*
X84750D01*
G01X86600Y163400D02*
Y166600D01*
G01X84750Y163400D02*
X86600D01*
G01X84750Y166600D02*
Y163400D01*
G01X107461Y19291D02*
X192500D01*
G01X107461Y80709D02*
Y19291D01*
G01X117500Y15791D02*
X120000D01*
G01X117500Y13291D02*
Y18291D01*
G01X111097Y44583D02*
X105680D01*
G01X111097Y55417D02*
Y44583D01*
G01X105680Y55417D02*
X111097D01*
G01X98557Y97500D02*
Y102500D01*
G01X100963D02*
X98557Y99417D01*
G01X101343Y97500D02*
X99633Y100833D01*
G01X105050Y97500D02*
Y102500D01*
X104290Y101500D01*
G01Y97500D02*
X105810D01*
G01X107461Y80709D02*
X192500D01*
G01X113557Y187500D02*
Y183917D01*
X113810Y183167D01*
X114317Y182667D01*
X114950Y182500D01*
X115583Y182667D01*
X116090Y183167D01*
X116343Y183917D01*
Y187500D01*
G01X118657Y183500D02*
X119037Y182917D01*
X119543Y182583D01*
X120113Y182500D01*
X120620Y182583D01*
X121127Y183000D01*
X121443Y183500D01*
X121507Y184000D01*
X121380Y184583D01*
X120937Y185000D01*
X120493Y185167D01*
X119923D01*
G01X120493D02*
X120873Y185417D01*
X121190Y185833D01*
X121317Y186333D01*
X121190Y186833D01*
X120873Y187250D01*
X120303Y187500D01*
X119733Y187417D01*
X119163Y187083D01*
G01X125000Y167800D02*
Y128400D01*
G01D02*
X175000D01*
G01Y167800D02*
X125000D01*
G01X175000Y128400D02*
Y167800D01*
G01X192500Y80709D02*
Y19291D01*
G01X201070Y125667D02*
X201577Y125250D01*
X202147Y125000D01*
X202653D01*
X203160Y125250D01*
X203540Y125667D01*
X203730Y126250D01*
X203603Y126833D01*
X203287Y127333D01*
X202717Y127667D01*
X201957Y127833D01*
X201513Y128167D01*
X201323Y128750D01*
X201450Y129333D01*
X201767Y129750D01*
X202210Y130000D01*
X202653D01*
X203097Y129833D01*
X203477Y129417D01*
G01X206107Y125000D02*
Y130000D01*
X207373D01*
X207880Y129750D01*
X208260Y129417D01*
X208577Y128917D01*
X208830Y128333D01*
X208893Y127500D01*
X208830Y126667D01*
X208577Y126083D01*
X208260Y125583D01*
X207880Y125250D01*
X207373Y125000D01*
X206107D01*
G01X212600D02*
Y130000D01*
X211840Y129000D01*
G01Y125000D02*
X213360D01*
G01X200957Y187500D02*
Y192500D01*
X202223D01*
X202730Y192250D01*
X203110Y191917D01*
X203427Y191417D01*
X203680Y190833D01*
X203743Y190000D01*
X203680Y189167D01*
X203427Y188583D01*
X203110Y188083D01*
X202730Y187750D01*
X202223Y187500D01*
X200957D01*
G01X206120D02*
Y192500D01*
G01X208780D02*
Y187500D01*
G01Y190000D02*
X206120D01*
G01X212550Y192500D02*
Y187500D01*
G01X211093Y192500D02*
X214007D01*
G01X217650Y187500D02*
Y192500D01*
X216890Y191500D01*
G01Y187500D02*
X218410D01*
G01X226500Y112500D02*
X308500D01*
G01X226500Y122000D02*
Y112500D01*
G01X308500Y122000D02*
X226500D01*
G01X237500Y145000D02*
Y185000D01*
G01X227500Y145000D02*
X237500D01*
G01X227500Y185000D02*
Y145000D01*
G01X237500Y185000D02*
X227500D01*
G01X237500Y184000D02*
X227500D01*
G01Y185000D02*
Y184000D01*
G01X237500Y185000D02*
Y184000D01*
G01X257753Y185000D02*
Y190000D01*
X259400Y185833D01*
X261047Y190000D01*
Y185000D01*
G01X263170Y185667D02*
X263677Y185250D01*
X264247Y185000D01*
X264753D01*
X265260Y185250D01*
X265640Y185667D01*
X265830Y186250D01*
X265703Y186833D01*
X265387Y187333D01*
X264817Y187667D01*
X264057Y187833D01*
X263613Y188167D01*
X263423Y188750D01*
X263550Y189333D01*
X263867Y189750D01*
X264310Y190000D01*
X264753D01*
X265197Y189833D01*
X265577Y189417D01*
G01X269600Y185000D02*
Y190000D01*
X268840Y189000D01*
G01Y185000D02*
X270360D01*
G01X308500Y112500D02*
Y122000D01*
G01X303500Y117500D02*
G02I-1000J0D01*
G54D12*
G01X272500Y171594D02*
X302500D01*
Y181594D01*
X272500D01*
Y139587D01*
X302500D01*
Y171594D01*
G54D13*
G01X305453Y187500D02*
G03I-394J0D01*
M02*
