G04 ================== begin FILE IDENTIFICATION RECORD ==================*
G04 Layout Name:  IRRIGATION_PROJECT.brd*
G04 Film Name:    SOLDERMASK_TOP*
G04 File Format:  Gerber RS274X*
G04 File Origin:  Cadence Allegro 17.4-S016*
G04 Origin Date:  Mon Apr 18 11:50:15 2022*
G04 *
G04 Layer:  VIA CLASS/SOLDERMASK_TOP*
G04 Layer:  PIN/SOLDERMASK_TOP*
G04 Layer:  DRC ERROR CLASS/SOLDERMASK_TOP*
G04 *
G04 Offset:    (0.00 0.00)*
G04 Mirror:    No*
G04 Mode:      Positive*
G04 Rotation:  0*
G04 FullContactRelief:  No*
G04 UndefLineWidth:     0.00*
G04 ================== end FILE IDENTIFICATION RECORD ====================*
%FSLAX25Y25*MOIN*%
%IR0*IPPOS*OFA0.00000B0.00000*MIA0B0*SFA1.00000B1.00000*%
%ADD16C,.06*%
%ADD12C,.052*%
%ADD11C,.044*%
%ADD17C,.055*%
%ADD10C,.065*%
%ADD18R,.06X.06*%
%ADD13R,.052X.052*%
%ADD19C,.06181*%
%ADD15C,.07118*%
%ADD20R,.06181X.06181*%
%ADD14R,.04X.053*%
%LPD*%
G75*
G54D10*
X22500Y20000D03*
Y30000D03*
Y65000D03*
Y75000D03*
Y110000D03*
Y120000D03*
Y155000D03*
Y165000D03*
G54D20*
X297500Y187500D03*
G54D11*
X58900Y10000D03*
X88900Y88400D03*
X137500Y100000D03*
X181350Y72500D03*
X207500Y59301D03*
X183850Y48600D03*
X195350Y85900D03*
X192150Y85000D03*
X207500Y130900D03*
X192150Y117051D03*
X182450Y123700D03*
X187850Y135000D03*
X203450Y147500D03*
X205200Y155000D03*
X219550Y62500D03*
X220550Y72500D03*
X227350Y106150D03*
X220550Y123700D03*
X249744Y17345D03*
X247450Y35000D03*
X262500Y55000D03*
X248850Y46100D03*
X265700Y55000D03*
X275312Y23878D03*
X276857Y18145D03*
X282750Y35000D03*
X301850Y48800D03*
X281550D03*
X299550Y90000D03*
X305000Y30101D03*
X302244Y26378D03*
X313650Y59301D03*
X314350Y72500D03*
X303850Y81100D03*
G54D12*
X55000Y45000D03*
Y55000D03*
Y65000D03*
Y75000D03*
Y85000D03*
Y95000D03*
Y105000D03*
Y115000D03*
Y125000D03*
Y135000D03*
Y145000D03*
Y155000D03*
Y165000D03*
X85000Y65000D03*
Y55000D03*
Y45000D03*
Y95000D03*
Y85000D03*
Y75000D03*
Y125000D03*
Y115000D03*
Y105000D03*
Y155000D03*
Y145000D03*
Y135000D03*
Y175000D03*
Y165000D03*
G54D13*
X55000Y175000D03*
G54D14*
X73750Y10000D03*
X66250D03*
G54D15*
X117500Y50000D03*
X125374Y26378D03*
Y73622D03*
X169862Y26378D03*
Y73622D03*
G54D16*
X150000Y122500D03*
X140000D03*
X130000D03*
X170000D03*
X160000D03*
X232500Y150000D03*
Y160000D03*
Y170000D03*
G54D17*
Y117500D03*
X242500D03*
X252500D03*
X262500D03*
X272500D03*
X282500D03*
X292500D03*
X302500D03*
G54D18*
X232500Y180000D03*
G54D19*
X277500Y187500D03*
X287500D03*
M02*
