G04 ================== begin FILE IDENTIFICATION RECORD ==================*
G04 Layout Name:  C:/Users/jb7008/irrigation_project/panel/panelized_board.brd*
G04 Film Name:    BOTTOM*
G04 File Format:  Gerber RS274X*
G04 File Origin:  Cadence Allegro 17.4-S016*
G04 Origin Date:  Mon Apr 18 12:26:16 2022*
G04 *
G04 Layer:  ETCH/BOTTOM*
G04 Layer:  PIN/BOTTOM*
G04 Layer:  VIA CLASS/BOTTOM*
G04 *
G04 Offset:    (0.0000 0.0000)*
G04 Mirror:    No*
G04 Mode:      Positive*
G04 Rotation:  0*
G04 FullContactRelief:  No*
G04 UndefLineWidth:     5.0000*
G04 ================== end FILE IDENTIFICATION RECORD ====================*
%FSLAX25Y25*MOIN*%
%IR0*IPPOS*OFA0.00000B0.00000*MIA0B0*SFA1.00000B1.00000*%
%AMMACRO10*
4,1,12,-.019685,-.07874,
.019685,-.07874,
.019685,-.019685,
.07874,-.019685,
.07874,.019685,
.019685,.019685,
.019685,.07874,
-.019685,.07874,
-.019685,.019685,
-.07874,.019685,
-.07874,-.019685,
-.019685,-.019685,
-.019685,-.07874,
0.0*
%
%ADD10MACRO10*%
%ADD22R,.017748X.043748*%
%ADD12C,.024*%
%ADD19R,.078X.022*%
%ADD16R,.098X.037*%
%ADD20R,.04X.053*%
%ADD25C,.053941*%
%ADD17C,.06*%
%ADD11C,.065*%
%ADD13C,.052*%
%ADD15C,.071181*%
%ADD26R,.053941X.053941*%
%ADD24R,.06X.06*%
%ADD21R,.055X.213*%
%ADD23C,.055*%
%ADD14R,.052X.052*%
%ADD27R,.034X.038*%
%ADD18R,.273X.267*%
%ADD28C,.005*%
%ADD29C,.01*%
%ADD32R,.236228X.236224*%
%ADD31R,.236228X.236228*%
%ADD30C,.222717*%
G75*
%LPD*%
G75*
G36*
G01X35433Y732283D02*
Y35433D01*
X1224409D01*
Y732283D01*
X1226519D01*
G03X1253796I13639J7874D01*
G01X1255905D01*
Y3937D01*
X3937D01*
Y732283D01*
X6046D01*
G03X33324I13639J7874D01*
G01X35433D01*
G37*
G36*
G01X1224409Y960630D02*
Y1657480D01*
X35433D01*
Y960630D01*
X33324D01*
G03X6046I-13639J-7874D01*
G01X3937D01*
Y1657480D01*
Y1688976D01*
X1255905D01*
X1255906Y1661417D01*
Y1657480D01*
X1255905D01*
Y960630D01*
X1253796D01*
G03X1226519I-13639J-7874D01*
G01X1224409D01*
G37*
%LPC*%
G75*
G54D32*
X1240157Y1673229D03*
X19685D03*
G54D31*
X1240157Y19685D03*
X19685D03*
G54D30*
X78740D03*
X1200787Y1673228D03*
X78740D03*
%LPD*%
G75*
G54D10*
X19685Y19685D03*
Y1673228D03*
X1240157Y19685D03*
Y1673228D03*
G54D11*
X502815Y181417D03*
Y191417D03*
Y226417D03*
Y236417D03*
Y271417D03*
Y281417D03*
Y316417D03*
Y326417D03*
Y575118D03*
Y585118D03*
Y620118D03*
Y630118D03*
Y665118D03*
Y675118D03*
Y710118D03*
Y720118D03*
Y968819D03*
Y978819D03*
Y1013819D03*
Y1023819D03*
Y1058819D03*
Y1068819D03*
Y1103819D03*
Y1113819D03*
Y1362520D03*
Y1372520D03*
Y1407520D03*
Y1417520D03*
Y1452520D03*
Y1462520D03*
Y1497520D03*
Y1507520D03*
G54D20*
X689065Y196417D03*
X696565D03*
X689065Y213917D03*
X696565D03*
X689065Y590118D03*
X696565D03*
X689065Y607618D03*
X696565D03*
X689065Y983819D03*
X696565D03*
X689065Y1001319D03*
X696565D03*
X689065Y1377520D03*
X696565D03*
X689065Y1395020D03*
X696565D03*
X716565Y196417D03*
X724065D03*
X716565Y213917D03*
X724065D03*
X711565Y233917D03*
X719065D03*
X711565Y253917D03*
X719065D03*
X716565Y590118D03*
X724065D03*
X716565Y607618D03*
X724065D03*
X711565Y627618D03*
X719065D03*
X711565Y647618D03*
X719065D03*
X716565Y983819D03*
X724065D03*
X716565Y1001319D03*
X724065D03*
X711565Y1021319D03*
X719065D03*
X711565Y1041319D03*
X719065D03*
X716565Y1377520D03*
X724065D03*
X716565Y1395020D03*
X724065D03*
X711565Y1415020D03*
X719065D03*
X711565Y1435020D03*
X719065D03*
X751565Y196417D03*
Y213917D03*
X749065Y233917D03*
X756565D03*
X751565Y590118D03*
X749065Y627618D03*
X756565D03*
X751565Y607618D03*
Y983819D03*
Y1001319D03*
X749065Y1021319D03*
X756565D03*
X751565Y1377520D03*
Y1395020D03*
X749065Y1415020D03*
X756565D03*
X759065Y196417D03*
Y213917D03*
Y590118D03*
Y607618D03*
Y983819D03*
Y1001319D03*
Y1377520D03*
Y1395020D03*
G54D21*
X687815Y235367D03*
Y272467D03*
Y629068D03*
Y666168D03*
Y1022769D03*
Y1059869D03*
Y1416470D03*
Y1453570D03*
G54D12*
X539215Y171417D03*
Y565118D03*
Y958819D03*
Y1352520D03*
X569215Y249817D03*
Y643518D03*
Y1037219D03*
Y1430920D03*
X617815Y261417D03*
Y655118D03*
Y1048819D03*
Y1442520D03*
X664165Y210017D03*
X675665Y247317D03*
X661665Y233917D03*
X672465Y246417D03*
Y278469D03*
X662765Y285117D03*
X668165Y296417D03*
X664165Y603718D03*
X661665Y627618D03*
X675665Y641018D03*
X672465Y640118D03*
X662765Y678818D03*
X672465Y672169D03*
X668165Y690118D03*
X664165Y997419D03*
X675665Y1034719D03*
X661665Y1021319D03*
X672465Y1033819D03*
X662765Y1072519D03*
X668165Y1083819D03*
X672465Y1065870D03*
X664165Y1391120D03*
X675665Y1428420D03*
X661665Y1415020D03*
X672465Y1427520D03*
Y1459571D03*
X662765Y1466220D03*
X668165Y1477520D03*
X699865Y223917D03*
X687815Y220719D03*
X700865Y233917D03*
Y285117D03*
X687815Y292317D03*
X683765Y308917D03*
X685515Y316417D03*
X699865Y617618D03*
X687815Y614419D03*
X700865Y627618D03*
Y678818D03*
X683765Y702618D03*
X685515Y710118D03*
X687815Y686018D03*
X699865Y1011319D03*
X687815Y1008120D03*
X700865Y1021319D03*
Y1072519D03*
X687815Y1079719D03*
X683765Y1096319D03*
X685515Y1103819D03*
X699865Y1405020D03*
X687815Y1401821D03*
X700865Y1415020D03*
X683765Y1490020D03*
X700865Y1466220D03*
X687815Y1473420D03*
X685515Y1497520D03*
X730059Y178762D03*
X727765Y196417D03*
X729165Y207517D03*
X707665Y267567D03*
X730059Y572463D03*
X727765Y590118D03*
X729165Y601218D03*
X707665Y661268D03*
X730059Y966164D03*
X727765Y983819D03*
X729165Y994919D03*
X707665Y1054969D03*
X730059Y1359865D03*
X727765Y1377520D03*
X729165Y1388620D03*
X707665Y1448670D03*
X757172Y179562D03*
X755627Y185295D03*
X746015Y216417D03*
X742815D03*
X757172Y573263D03*
X755627Y578996D03*
X746015Y610118D03*
X742815D03*
X757172Y966964D03*
X755627Y972697D03*
X746015Y1003819D03*
X742815D03*
X757172Y1360665D03*
X755627Y1366398D03*
X746015Y1397520D03*
X742815D03*
X782559Y187795D03*
X763065Y196417D03*
X761865Y210217D03*
X782165D03*
X779865Y251417D03*
X761865Y603918D03*
X782165D03*
X782559Y581496D03*
X763065Y590118D03*
X779865Y645118D03*
X782559Y975197D03*
X761865Y997619D03*
X782165D03*
X763065Y983819D03*
X779865Y1038819D03*
X782559Y1368898D03*
X763065Y1377520D03*
X761865Y1391320D03*
X782165D03*
X779865Y1432520D03*
X785315Y191519D03*
X793965Y220719D03*
X784165Y242517D03*
X794665Y233917D03*
X785315Y585219D03*
X794665Y627618D03*
X793965Y614419D03*
X784165Y636218D03*
X785315Y978920D03*
X784165Y1029919D03*
X794665Y1021319D03*
X793965Y1008120D03*
X785315Y1372621D03*
X793965Y1401821D03*
X784165Y1423620D03*
X794665Y1415020D03*
G54D13*
X535315Y216417D03*
Y226417D03*
Y206417D03*
Y236417D03*
Y246417D03*
Y276417D03*
Y256417D03*
Y266417D03*
Y286417D03*
Y296417D03*
Y306417D03*
Y326417D03*
Y316417D03*
Y600118D03*
Y610118D03*
Y620118D03*
Y630118D03*
Y640118D03*
Y650118D03*
Y670118D03*
Y680118D03*
Y660118D03*
Y690118D03*
Y700118D03*
Y710118D03*
Y720118D03*
Y1003819D03*
Y993819D03*
Y1013819D03*
Y1023819D03*
Y1033819D03*
Y1043819D03*
Y1053819D03*
Y1063819D03*
Y1073819D03*
Y1083819D03*
Y1113819D03*
Y1093819D03*
Y1103819D03*
Y1397520D03*
Y1407520D03*
Y1387520D03*
Y1417520D03*
Y1427520D03*
Y1437520D03*
Y1457520D03*
Y1447520D03*
Y1467520D03*
Y1477520D03*
Y1487520D03*
Y1507520D03*
Y1497520D03*
X565315Y226417D03*
Y216417D03*
Y206417D03*
Y246417D03*
Y236417D03*
Y276417D03*
Y256417D03*
Y266417D03*
Y306417D03*
Y296417D03*
Y286417D03*
Y326417D03*
Y316417D03*
Y336417D03*
Y600118D03*
Y630118D03*
Y620118D03*
Y610118D03*
Y640118D03*
Y650118D03*
Y680118D03*
Y670118D03*
Y660118D03*
Y710118D03*
Y700118D03*
Y690118D03*
Y730118D03*
Y720118D03*
Y1003819D03*
Y993819D03*
Y1033819D03*
Y1023819D03*
Y1013819D03*
Y1043819D03*
Y1053819D03*
Y1083819D03*
Y1073819D03*
Y1063819D03*
Y1113819D03*
Y1103819D03*
Y1093819D03*
Y1123819D03*
Y1407520D03*
Y1397520D03*
Y1387520D03*
Y1427520D03*
Y1417520D03*
Y1437520D03*
Y1457520D03*
Y1447520D03*
Y1487520D03*
Y1477520D03*
Y1467520D03*
Y1517520D03*
Y1507520D03*
Y1497520D03*
G54D22*
X707815Y182460D03*
X705059Y175374D03*
X710571D03*
X707815Y576161D03*
X705059Y569075D03*
X710571D03*
X707815Y969862D03*
X705059Y962776D03*
X710571D03*
X705059Y1356477D03*
X710571D03*
X707815Y1363563D03*
X732815Y182460D03*
X730059Y175374D03*
X735571D03*
X732815Y576161D03*
X730059Y569075D03*
X735571D03*
X732815Y969862D03*
X730059Y962776D03*
X735571D03*
X730059Y1356477D03*
X735571D03*
X732815Y1363563D03*
X760315Y182460D03*
X757559Y175374D03*
X763071D03*
X782559D03*
X760315Y576161D03*
X757559Y569075D03*
X763071D03*
X782559D03*
X760315Y969862D03*
X757559Y962776D03*
X763071D03*
X782559D03*
X757559Y1356477D03*
X763071D03*
X782559D03*
X760315Y1363563D03*
X785315Y182460D03*
X788071Y175374D03*
X785315Y576161D03*
X788071Y569075D03*
X785315Y969862D03*
X788071Y962776D03*
Y1356477D03*
X785315Y1363563D03*
G54D14*
X535315Y336417D03*
Y730118D03*
Y1123819D03*
Y1517520D03*
G54D23*
X722815Y278917D03*
X712815D03*
X722815Y672618D03*
X712815D03*
X722815Y1066319D03*
X712815D03*
X722815Y1460020D03*
X712815D03*
X752815Y278917D03*
X742815D03*
X732815D03*
X752815Y672618D03*
X742815D03*
X732815D03*
X752815Y1066319D03*
X742815D03*
X732815D03*
X752815Y1460020D03*
X742815D03*
X732815D03*
X772815Y278917D03*
X762815D03*
X782815D03*
X772815Y672618D03*
X762815D03*
X782815D03*
X772815Y1066319D03*
X762815D03*
X782815D03*
X772815Y1460020D03*
X762815D03*
X782815D03*
G54D24*
X712815Y341417D03*
Y735118D03*
Y1128819D03*
Y1522520D03*
G54D15*
X605689Y187795D03*
X597815Y211417D03*
X605689Y235039D03*
Y581496D03*
X597815Y605118D03*
X605689Y628740D03*
Y975197D03*
X597815Y998819D03*
X605689Y1022441D03*
Y1368898D03*
X597815Y1392520D03*
X605689Y1416142D03*
X650177Y187795D03*
Y235039D03*
Y581496D03*
Y628740D03*
Y975197D03*
Y1022441D03*
Y1368898D03*
Y1416142D03*
G54D25*
X757815Y348917D03*
Y742618D03*
Y1136319D03*
Y1530020D03*
X767815Y348917D03*
Y742618D03*
Y1136319D03*
Y1530020D03*
G54D16*
X622565Y252401D03*
Y270433D03*
Y646102D03*
Y664134D03*
Y1057835D03*
Y1039803D03*
Y1433504D03*
Y1451536D03*
G54D26*
X777815Y348917D03*
Y742618D03*
Y1136319D03*
Y1530020D03*
G54D17*
X610315Y283917D03*
X620315D03*
X610315Y677618D03*
X620315D03*
X610315Y1071319D03*
X620315D03*
X610315Y1465020D03*
X620315D03*
X630315Y283917D03*
X650315D03*
X640315D03*
X630315Y677618D03*
X650315D03*
X640315D03*
X630315Y1071319D03*
X650315D03*
X640315D03*
X630315Y1465020D03*
X650315D03*
X640315D03*
X712815Y331417D03*
Y311417D03*
Y321417D03*
Y705118D03*
Y725118D03*
Y715118D03*
Y1098819D03*
Y1108819D03*
Y1118819D03*
Y1492520D03*
Y1512520D03*
Y1502520D03*
G54D18*
X647815Y261417D03*
Y655118D03*
Y1048819D03*
Y1442520D03*
G54D27*
X784665Y196417D03*
X790965D03*
X784665Y216417D03*
X790965D03*
X784665Y233917D03*
X790965D03*
X784665Y251417D03*
X790965D03*
X784665Y590118D03*
X790965D03*
X784665Y610118D03*
X790965D03*
X784665Y627618D03*
X790965D03*
X784665Y645118D03*
X790965D03*
X784665Y1003819D03*
X790965D03*
X784665Y983819D03*
X790965D03*
X784665Y1021319D03*
X790965D03*
X784665Y1038819D03*
X790965D03*
X784665Y1377520D03*
X790965D03*
X784665Y1397520D03*
X790965D03*
X784665Y1415020D03*
X790965D03*
X784665Y1432520D03*
X790965D03*
G54D28*
G01X724065Y196417D02*
X727765D01*
G01D02*
X751565D01*
G01X724065Y590118D02*
X727765D01*
G01D02*
X751565D01*
G01X724065Y983819D02*
X727765D01*
G01D02*
X751565D01*
G01X724065Y1377520D02*
X727765D01*
G01D02*
X751565D01*
G54D19*
X675615Y306417D03*
Y301417D03*
Y311417D03*
Y316417D03*
Y705118D03*
Y700118D03*
Y695118D03*
Y710118D03*
Y1098819D03*
Y1093819D03*
Y1088819D03*
Y1103819D03*
Y1487520D03*
Y1482520D03*
Y1492520D03*
Y1497520D03*
X695015Y301417D03*
Y306417D03*
Y316417D03*
Y311417D03*
Y695118D03*
Y710118D03*
Y705118D03*
Y700118D03*
Y1088819D03*
Y1103819D03*
Y1098819D03*
Y1093819D03*
Y1482520D03*
Y1487520D03*
Y1497520D03*
Y1492520D03*
G54D29*
G01X502815Y281417D02*
X496465D01*
Y191417D01*
X502815D01*
G01X507365Y271417D02*
Y226417D01*
X502815D01*
G01Y271417D02*
X507365D01*
G01X502815Y316417D02*
X507365D01*
Y271417D01*
G01X502815Y675118D02*
X496465D01*
Y585118D01*
X502815D01*
G01X507365Y665118D02*
Y620118D01*
X502815D01*
G01Y665118D02*
X507365D01*
G01X502815Y710118D02*
X507365D01*
Y665118D01*
G01X502815Y1068819D02*
X496465D01*
Y978819D01*
X502815D01*
G01X507365Y1058819D02*
Y1013819D01*
X502815D01*
G01Y1058819D02*
X507365D01*
G01X502815Y1103819D02*
X507365D01*
Y1058819D01*
G01X502815Y1462520D02*
X496465D01*
Y1372520D01*
X502815D01*
G01X507365Y1452520D02*
Y1407520D01*
X502815D01*
G01Y1452520D02*
X507365D01*
G01X502815Y1497520D02*
X507365D01*
Y1452520D01*
G01X539215Y171417D02*
Y236417D01*
G01X535315Y216417D02*
X527815D01*
Y302117D01*
X640315D01*
Y283917D01*
G01X539215Y236417D02*
X535315D01*
G01X539215Y266417D02*
Y236417D01*
G01X630315Y283917D02*
Y300317D01*
X531415D01*
Y226417D01*
X535315D01*
G01Y286417D02*
X539215D01*
Y266417D01*
G01D02*
X535315D01*
G01Y296417D02*
X551815D01*
Y187795D01*
X605689D01*
G01X539215Y565118D02*
Y630118D01*
G01X630315Y677618D02*
Y694018D01*
X531415D01*
Y620118D01*
X535315D01*
G01Y610118D02*
X527815D01*
Y695818D01*
X640315D01*
Y677618D01*
G01X539215Y630118D02*
X535315D01*
G01X539215Y660118D02*
Y630118D01*
G01X535315Y680118D02*
X539215D01*
Y660118D01*
G01D02*
X535315D01*
G01Y690118D02*
X551815D01*
Y581496D01*
X605689D01*
G01X539215Y958819D02*
Y1023819D01*
G01X535315Y1003819D02*
X527815D01*
Y1089519D01*
X640315D01*
Y1071319D01*
G01X539215Y1023819D02*
X535315D01*
G01X539215Y1053819D02*
Y1023819D01*
G01X630315Y1071319D02*
Y1087719D01*
X531415D01*
Y1013819D01*
X535315D01*
G01Y1073819D02*
X539215D01*
Y1053819D01*
G01D02*
X535315D01*
G01Y1083819D02*
X551815D01*
Y975197D01*
X605689D01*
G01X539215Y1352520D02*
Y1417520D01*
G01X630315Y1465020D02*
Y1481420D01*
X531415D01*
Y1407520D01*
X535315D01*
G01Y1397520D02*
X527815D01*
Y1483220D01*
X640315D01*
Y1465020D01*
G01X539215Y1417520D02*
X535315D01*
G01X539215Y1447520D02*
Y1417520D01*
G01X535315Y1467520D02*
X539215D01*
Y1447520D01*
G01D02*
X535315D01*
G01Y1477520D02*
X551815D01*
Y1368898D01*
X605689D01*
G01X565315Y206417D02*
X569215D01*
Y249817D01*
G01X612815Y270433D02*
X571015D01*
Y256417D01*
X565315D01*
G01Y600118D02*
X569215D01*
Y643518D01*
G01X612815Y664134D02*
X571015D01*
Y650118D01*
X565315D01*
G01Y993819D02*
X569215D01*
Y1037219D01*
G01X612815Y1057835D02*
X571015D01*
Y1043819D01*
X565315D01*
G01Y1387520D02*
X569215D01*
Y1430920D01*
G01X612815Y1451536D02*
X571015D01*
Y1437520D01*
X565315D01*
G01X622565Y252401D02*
X614148D01*
Y211417D01*
X597815D01*
G01X617815Y261417D02*
X605689D01*
Y235039D01*
G01X647815Y261417D02*
X617815D01*
G01X622565Y270433D02*
X612815D01*
G01Y279617D02*
Y270433D01*
G01X610315Y283917D02*
Y279617D01*
X612815D01*
G01D02*
X644615D01*
Y341417D01*
X712815D01*
G01X617815Y655118D02*
X605689D01*
Y628740D01*
G01X622565Y646102D02*
X614148D01*
Y605118D01*
X597815D01*
G01X647815Y655118D02*
X617815D01*
G01X622565Y664134D02*
X612815D01*
G01X610315Y677618D02*
Y673318D01*
X612815D01*
G01D02*
Y664134D01*
G01Y673318D02*
X644615D01*
Y735118D01*
X712815D01*
G01X622565Y1039803D02*
X614148D01*
Y998819D01*
X597815D01*
G01X617815Y1048819D02*
X605689D01*
Y1022441D01*
G01X647815Y1048819D02*
X617815D01*
G01X622565Y1057835D02*
X612815D01*
G01Y1067019D02*
Y1057835D01*
G01X610315Y1071319D02*
Y1067019D01*
X612815D01*
G01D02*
X644615D01*
Y1128819D01*
X712815D01*
G01X622565Y1433504D02*
X614148D01*
Y1392520D01*
X597815D01*
G01X617815Y1442520D02*
X605689D01*
Y1416142D01*
G01X647815Y1442520D02*
X617815D01*
G01X622565Y1451536D02*
X612815D01*
G01X610315Y1465020D02*
Y1460720D01*
X612815D01*
G01D02*
Y1451536D01*
G01Y1460720D02*
X644615D01*
Y1522520D01*
X712815D01*
G01X675615Y316417D02*
X665265D01*
Y243498D01*
X645318D01*
Y187795D01*
X650177D01*
G01X662765Y285117D02*
Y261417D01*
X647815D01*
G01X675615Y710118D02*
X665265D01*
Y637199D01*
X645318D01*
Y581496D01*
X650177D01*
G01X662765Y678818D02*
Y655118D01*
X647815D01*
G01X675615Y1103819D02*
X665265D01*
Y1030900D01*
X645318D01*
Y975197D01*
X650177D01*
G01X662765Y1072519D02*
Y1048819D01*
X647815D01*
G01X675615Y1497520D02*
X665265D01*
Y1424601D01*
X645318D01*
Y1368898D01*
X650177D01*
G01X662765Y1466220D02*
Y1442520D01*
X647815D01*
G01X788071Y175374D02*
Y168286D01*
X661665D01*
Y233917D01*
G01X707815Y182460D02*
Y187748D01*
X668165D01*
Y296417D01*
G01X710571Y175374D02*
Y178862D01*
X664165D01*
Y210017D01*
G01X672465Y246417D02*
Y278469D01*
G01X675615Y301417D02*
X670415D01*
Y313817D01*
X703815D01*
Y315717D01*
X746865D01*
Y248667D01*
X759865D01*
Y233917D01*
X756565D01*
G01X788071Y569075D02*
Y561987D01*
X661665D01*
Y627618D01*
G01X710571Y569075D02*
Y572563D01*
X664165D01*
Y603718D01*
G01X707815Y576161D02*
Y581449D01*
X668165D01*
Y690118D01*
G01X672465Y640118D02*
Y672169D01*
G01X675615Y695118D02*
X670415D01*
Y707518D01*
X703815D01*
Y709418D01*
X746865D01*
Y642368D01*
X759865D01*
Y627618D01*
X756565D01*
G01X788071Y962776D02*
Y955688D01*
X661665D01*
Y1021319D01*
G01X707815Y969862D02*
Y975150D01*
X668165D01*
Y1083819D01*
G01X710571Y962776D02*
Y966264D01*
X664165D01*
Y997419D01*
G01X672465Y1033819D02*
Y1065870D01*
G01X675615Y1088819D02*
X670415D01*
Y1101219D01*
X703815D01*
Y1103119D01*
X746865D01*
Y1036069D01*
X759865D01*
Y1021319D01*
X756565D01*
G01X788071Y1356477D02*
Y1349389D01*
X661665D01*
Y1415020D01*
G01X707815Y1363563D02*
Y1368851D01*
X668165D01*
Y1477520D01*
G01X710571Y1356477D02*
Y1359965D01*
X664165D01*
Y1391120D01*
G01X672465Y1427520D02*
Y1459571D01*
G01X675615Y1482520D02*
X670415D01*
Y1494920D01*
X703815D01*
Y1496820D01*
X746865D01*
Y1429770D01*
X759865D01*
Y1415020D01*
X756565D01*
G01X689065Y196417D02*
X683965D01*
Y192467D01*
X712759D01*
G01X696565Y196417D02*
X699865D01*
Y208617D01*
G01Y228167D02*
Y223917D01*
G01D02*
Y213917D01*
X696565D01*
G01X687815Y220719D02*
Y235367D01*
G01X699865Y208617D02*
X685765D01*
Y213917D01*
X689065D01*
G01X713265D02*
Y208617D01*
X699865D01*
G01X719065Y233917D02*
Y228167D01*
X699865D01*
G01D02*
X693715D01*
Y294817D01*
X683765D01*
Y306417D01*
G01X675665Y247317D02*
X687815D01*
Y235367D01*
G01X711565Y233917D02*
X700865D01*
G01D02*
X698365D01*
Y296617D01*
X688015D01*
Y311417D01*
X675615D01*
G01X687815Y272467D02*
Y292317D01*
G01X683765Y308917D02*
Y306417D01*
G01X675615D02*
X683765D01*
G01X695015Y301417D02*
X700865D01*
Y285117D01*
G01X751565Y213917D02*
X738665D01*
Y306417D01*
X695015D01*
G01X713265Y213917D02*
Y219667D01*
X722365D01*
Y243267D01*
X705165D01*
Y303817D01*
X689815D01*
Y311417D01*
X695015D01*
G01Y316417D02*
X685515D01*
G01X689065Y590118D02*
X683965D01*
Y586168D01*
X712759D01*
G01X696565Y590118D02*
X699865D01*
Y602318D01*
G01D02*
X685765D01*
Y607618D01*
X689065D01*
G01X713265D02*
Y602318D01*
X699865D01*
G01X719065Y627618D02*
Y621868D01*
X699865D01*
G01D02*
X693715D01*
Y688518D01*
X683765D01*
Y700118D01*
G01X699865Y621868D02*
Y617618D01*
G01D02*
Y607618D01*
X696565D01*
G01X675665Y641018D02*
X687815D01*
Y629068D01*
G01Y614419D02*
Y629068D01*
G01X711565Y627618D02*
X700865D01*
G01D02*
X698365D01*
Y690318D01*
X688015D01*
Y705118D01*
X675615D01*
G01X695015Y695118D02*
X700865D01*
Y678818D01*
G01X687815Y666168D02*
Y686018D01*
G01X683765Y702618D02*
Y700118D01*
G01X675615D02*
X683765D01*
G01X695015Y710118D02*
X685515D01*
G01X751565Y607618D02*
X738665D01*
Y700118D01*
X695015D01*
G01X713265Y607618D02*
Y613368D01*
X722365D01*
Y636968D01*
X705165D01*
Y697518D01*
X689815D01*
Y705118D01*
X695015D01*
G01X699865Y1011319D02*
Y1001319D01*
X696565D01*
G01X689065Y983819D02*
X683965D01*
Y979869D01*
X712759D01*
G01X696565Y983819D02*
X699865D01*
Y996019D01*
G01D02*
X685765D01*
Y1001319D01*
X689065D01*
G01X713265D02*
Y996019D01*
X699865D01*
G01X719065Y1021319D02*
Y1015569D01*
X699865D01*
G01D02*
X693715D01*
Y1082219D01*
X683765D01*
Y1093819D01*
G01X699865Y1015569D02*
Y1011319D01*
G01X675665Y1034719D02*
X687815D01*
Y1022769D01*
G01Y1008120D02*
Y1022769D01*
G01X711565Y1021319D02*
X700865D01*
G01D02*
X698365D01*
Y1084019D01*
X688015D01*
Y1098819D01*
X675615D01*
G01X687815Y1059869D02*
Y1079719D01*
G01X695015Y1088819D02*
X700865D01*
Y1072519D01*
G01X683765Y1096319D02*
Y1093819D01*
G01X675615D02*
X683765D01*
G01X695015Y1103819D02*
X685515D01*
G01X751565Y1001319D02*
X738665D01*
Y1093819D01*
X695015D01*
G01X713265Y1001319D02*
Y1007069D01*
X722365D01*
Y1030669D01*
X705165D01*
Y1091219D01*
X689815D01*
Y1098819D01*
X695015D01*
G01X689065Y1377520D02*
X683965D01*
Y1373570D01*
X712759D01*
G01X696565Y1377520D02*
X699865D01*
Y1389720D01*
G01X719065Y1415020D02*
Y1409270D01*
X699865D01*
G01D02*
X693715D01*
Y1475920D01*
X683765D01*
Y1487520D01*
G01X699865Y1409270D02*
Y1405020D01*
G01D02*
Y1395020D01*
X696565D01*
G01X687815Y1401821D02*
Y1416470D01*
G01X699865Y1389720D02*
X685765D01*
Y1395020D01*
X689065D01*
G01X713265D02*
Y1389720D01*
X699865D01*
G01X675665Y1428420D02*
X687815D01*
Y1416470D01*
G01X711565Y1415020D02*
X700865D01*
G01D02*
X698365D01*
Y1477720D01*
X688015D01*
Y1492520D01*
X675615D01*
G01X687815Y1453570D02*
Y1473420D01*
G01X683765Y1490020D02*
Y1487520D01*
G01X675615D02*
X683765D01*
G01X695015Y1482520D02*
X700865D01*
Y1466220D01*
G01X751565Y1395020D02*
X738665D01*
Y1487520D01*
X695015D01*
G01X713265Y1395020D02*
Y1400770D01*
X722365D01*
Y1424370D01*
X705165D01*
Y1484920D01*
X689815D01*
Y1492520D01*
X695015D01*
G01Y1497520D02*
X685515D01*
G01X712759Y178762D02*
Y171886D01*
X705059D01*
Y175374D01*
G01X712759Y192467D02*
Y178762D01*
G01X716565Y196417D02*
X713265D01*
G01D02*
X712759D01*
Y192467D01*
G01X730059Y178762D02*
X712759D01*
G01X724065Y205017D02*
X713265D01*
Y196417D01*
G01X724065Y213917D02*
Y205017D01*
G01X761865Y210217D02*
Y205017D01*
X724065D01*
G01X716565Y213917D02*
X713265D01*
G01X711565Y253917D02*
X707665D01*
Y267567D01*
G01X719065Y253917D02*
X729165D01*
Y207517D01*
G01X735571Y175374D02*
Y189595D01*
X765565D01*
Y263067D01*
X748665D01*
Y321417D01*
X712815D01*
G01X712759Y572463D02*
Y565587D01*
X705059D01*
Y569075D01*
G01X712759Y586168D02*
Y572463D01*
G01X730059D02*
X712759D01*
G01X716565Y590118D02*
X713265D01*
G01D02*
X712759D01*
Y586168D01*
G01X724065Y607618D02*
Y598718D01*
G01D02*
X713265D01*
Y590118D01*
G01X761865Y603918D02*
Y598718D01*
X724065D01*
G01X716565Y607618D02*
X713265D01*
G01X711565Y647618D02*
X707665D01*
Y661268D01*
G01X719065Y647618D02*
X729165D01*
Y601218D01*
G01X735571Y569075D02*
Y583296D01*
X765565D01*
Y656768D01*
X748665D01*
Y715118D01*
X712815D01*
G01X712759Y966164D02*
Y959288D01*
X705059D01*
Y962776D01*
G01X712759Y979869D02*
Y966164D01*
G01X730059D02*
X712759D01*
G01X716565Y983819D02*
X713265D01*
G01D02*
X712759D01*
Y979869D01*
G01X724065Y1001319D02*
Y992419D01*
G01D02*
X713265D01*
Y983819D01*
G01X761865Y997619D02*
Y992419D01*
X724065D01*
G01X716565Y1001319D02*
X713265D01*
G01X711565Y1041319D02*
X707665D01*
Y1054969D01*
G01X719065Y1041319D02*
X729165D01*
Y994919D01*
G01X735571Y962776D02*
Y976997D01*
X765565D01*
Y1050469D01*
X748665D01*
Y1108819D01*
X712815D01*
G01X712759Y1359865D02*
Y1352989D01*
X705059D01*
Y1356477D01*
G01X712759Y1373570D02*
Y1359865D01*
G01X716565Y1377520D02*
X713265D01*
G01D02*
X712759D01*
Y1373570D01*
G01X730059Y1359865D02*
X712759D01*
G01X724065Y1386120D02*
X713265D01*
Y1377520D01*
G01X724065Y1395020D02*
Y1386120D01*
G01X761865Y1391320D02*
Y1386120D01*
X724065D01*
G01X716565Y1395020D02*
X713265D01*
G01X711565Y1435020D02*
X707665D01*
Y1448670D01*
G01X719065Y1435020D02*
X729165D01*
Y1388620D01*
G01X735571Y1356477D02*
Y1370698D01*
X765565D01*
Y1444170D01*
X748665D01*
Y1502520D01*
X712815D01*
G01X777815Y278917D02*
X776865D01*
Y171886D01*
X732815D01*
Y182460D01*
G01X730059Y175374D02*
Y178762D01*
G01X749065Y233917D02*
X745765D01*
Y218917D01*
X746015D01*
Y216417D01*
G01X742815Y278917D02*
Y216417D01*
G01X730059Y569075D02*
Y572463D01*
G01X777815Y672618D02*
X776865D01*
Y565587D01*
X732815D01*
Y576161D01*
G01X749065Y627618D02*
X745765D01*
Y612618D01*
X746015D01*
Y610118D01*
G01X742815Y672618D02*
Y610118D01*
G01X730059Y962776D02*
Y966164D01*
G01X777815Y1066319D02*
X776865D01*
Y959288D01*
X732815D01*
Y969862D01*
G01X749065Y1021319D02*
X745765D01*
Y1006319D01*
X746015D01*
Y1003819D01*
G01X742815Y1066319D02*
Y1003819D01*
G01X777815Y1460020D02*
X776865D01*
Y1352989D01*
X732815D01*
Y1363563D01*
G01X730059Y1356477D02*
Y1359865D01*
G01X749065Y1415020D02*
X745765D01*
Y1400020D01*
X746015D01*
Y1397520D01*
G01X742815Y1460020D02*
Y1397520D01*
G01X757559Y175374D02*
X757172D01*
Y179562D01*
G01X784665Y196417D02*
X780059D01*
Y187795D01*
X782559D01*
G01X763071Y175374D02*
Y182462D01*
X767815D01*
Y348917D01*
G01X759065Y196417D02*
X763065D01*
G01X760315Y182460D02*
Y185948D01*
X758127D01*
Y185295D01*
X755627D01*
G01X759065Y213917D02*
X762365D01*
Y210217D01*
X761865D01*
G01X782165D02*
X793965D01*
Y196417D01*
X790965D01*
G01X784665Y216417D02*
X781665D01*
G01D02*
Y214517D01*
X782165D01*
Y210217D01*
G01X781665Y216417D02*
Y233917D01*
G01X784665Y251417D02*
X779865D01*
G01X781665Y233917D02*
X784665D01*
G01X781665D02*
Y242517D01*
X784165D01*
G01X777815Y348917D02*
Y278917D01*
G01X782815D02*
X777815D01*
G01X757559Y569075D02*
X757172D01*
Y573263D01*
G01X763071Y569075D02*
Y576163D01*
X767815D01*
Y742618D01*
G01X784665Y590118D02*
X780059D01*
Y581496D01*
X782559D01*
G01X759065Y590118D02*
X763065D01*
G01X760315Y576161D02*
Y579649D01*
X758127D01*
Y578996D01*
X755627D01*
G01X759065Y607618D02*
X762365D01*
Y603918D01*
X761865D01*
G01X782165D02*
X793965D01*
Y590118D01*
X790965D01*
G01X784665Y610118D02*
X781665D01*
G01D02*
Y608218D01*
X782165D01*
Y603918D01*
G01X781665Y610118D02*
Y627618D01*
G01D02*
X784665D01*
G01X781665D02*
Y636218D01*
X784165D01*
G01X784665Y645118D02*
X779865D01*
G01X777815Y742618D02*
Y672618D01*
G01X782815D02*
X777815D01*
G01X757559Y962776D02*
X757172D01*
Y966964D01*
G01X784665Y983819D02*
X780059D01*
Y975197D01*
X782559D01*
G01X763071Y962776D02*
Y969864D01*
X767815D01*
Y1136319D01*
G01X760315Y969862D02*
Y973350D01*
X758127D01*
Y972697D01*
X755627D01*
G01X759065Y1001319D02*
X762365D01*
Y997619D01*
X761865D01*
G01X782165D02*
X793965D01*
Y983819D01*
X790965D01*
G01X784665Y1003819D02*
X781665D01*
G01D02*
Y1001919D01*
X782165D01*
Y997619D01*
G01X781665Y1003819D02*
Y1021319D01*
G01X759065Y983819D02*
X763065D01*
G01X781665Y1021319D02*
X784665D01*
G01X781665D02*
Y1029919D01*
X784165D01*
G01X784665Y1038819D02*
X779865D01*
G01X777815Y1136319D02*
Y1066319D01*
G01X782815D02*
X777815D01*
G01X757559Y1356477D02*
X757172D01*
Y1360665D01*
G01X784665Y1377520D02*
X780059D01*
Y1368898D01*
X782559D01*
G01X763071Y1356477D02*
Y1363565D01*
X767815D01*
Y1530020D01*
G01X759065Y1377520D02*
X763065D01*
G01X760315Y1363563D02*
Y1367051D01*
X758127D01*
Y1366398D01*
X755627D01*
G01X759065Y1395020D02*
X762365D01*
Y1391320D01*
X761865D01*
G01X782165D02*
X793965D01*
Y1377520D01*
X790965D01*
G01X784665Y1397520D02*
X781665D01*
G01D02*
Y1395620D01*
X782165D01*
Y1391320D01*
G01X781665Y1397520D02*
Y1415020D01*
G01X784665Y1432520D02*
X779865D01*
G01X781665Y1415020D02*
X784665D01*
G01X781665D02*
Y1423620D01*
X784165D01*
G01X777815Y1530020D02*
Y1460020D01*
G01X782815D02*
X777815D01*
G01X782559Y187795D02*
Y175374D01*
G01X785315Y182460D02*
Y191519D01*
G01X790965Y216417D02*
X793965D01*
Y220719D01*
G01X784165Y242517D02*
X793965D01*
Y251417D01*
X790965D01*
G01Y233917D02*
X794665D01*
G01X782559Y581496D02*
Y569075D01*
G01X785315Y576161D02*
Y585219D01*
G01X790965Y627618D02*
X794665D01*
G01X790965Y610118D02*
X793965D01*
Y614419D01*
G01X784165Y636218D02*
X793965D01*
Y645118D01*
X790965D01*
G01X782559Y975197D02*
Y962776D01*
G01X785315Y969862D02*
Y978920D01*
G01X790965Y1003819D02*
X793965D01*
Y1008120D01*
G01X784165Y1029919D02*
X793965D01*
Y1038819D01*
X790965D01*
G01Y1021319D02*
X794665D01*
G01X782559Y1368898D02*
Y1356477D01*
G01X785315Y1363563D02*
Y1372621D01*
G01X790965Y1397520D02*
X793965D01*
Y1401821D01*
G01X784165Y1423620D02*
X793965D01*
Y1432520D01*
X790965D01*
G01Y1415020D02*
X794665D01*
M02*
