G04 ================== begin FILE IDENTIFICATION RECORD ==================*
G04 Layout Name:  C:/Users/jb7008/irrigation_project/panel/panelized_board.brd*
G04 Film Name:    SILKSCREEN_BOTTOM*
G04 File Format:  Gerber RS274X*
G04 File Origin:  Cadence Allegro 17.4-S016*
G04 Origin Date:  Mon Apr 18 12:26:16 2022*
G04 *
G04 Layer:  PACKAGE GEOMETRY/ASSEMBLY_BOTTOM*
G04 Layer:  PACKAGE GEOMETRY/PNL_REFDES_BOTTOM*
G04 Layer:  BOARD GEOMETRY/ASSEMBLY_DETAIL*
G04 *
G04 Offset:    (0.0000 0.0000)*
G04 Mirror:    No*
G04 Mode:      Positive*
G04 Rotation:  0*
G04 FullContactRelief:  No*
G04 UndefLineWidth:     5.0000*
G04 ================== end FILE IDENTIFICATION RECORD ====================*
%FSLAX25Y25*MOIN*%
%IR0*IPPOS*OFA0.00000B0.00000*MIA0B0*SFA1.00000B1.00000*%
%ADD10C,.19685*%
G75*
%LPD*%
G75*
G54D10*
G01X619065Y250651D02*
Y254151D01*
G01X635565Y250651D02*
X619065D01*
G01Y272183D02*
X635565D01*
G01X619065Y268683D02*
Y272183D01*
G01X635565Y268683D02*
X619065D01*
G01Y254151D02*
X635565D01*
G01X619065Y647852D02*
X635565D01*
G01X619065Y644352D02*
Y647852D01*
G01X635565Y644352D02*
X619065D01*
G01Y665884D02*
X635565D01*
G01X619065Y662384D02*
Y665884D01*
G01X635565Y662384D02*
X619065D01*
G01Y1056085D02*
Y1059585D01*
G01X635565Y1056085D02*
X619065D01*
G01Y1041553D02*
X635565D01*
G01X619065Y1038053D02*
Y1041553D01*
G01X635565Y1038053D02*
X619065D01*
G01Y1059585D02*
X635565D01*
G01X619065Y1435254D02*
X635565D01*
G01X619065Y1431754D02*
Y1435254D01*
G01X635565Y1431754D02*
X619065D01*
G01Y1453286D02*
X635565D01*
G01X619065Y1449786D02*
Y1453286D01*
G01X635565Y1449786D02*
X619065D01*
G01X633898Y251008D02*
X637565Y253794D01*
G01X638231Y252401D02*
X633231D01*
G01X633898Y253794D02*
X637565Y251008D01*
G01X635731Y250501D02*
Y254301D01*
G01X660065Y248167D02*
X635565D01*
G01D02*
Y274667D01*
G01Y254151D02*
Y250651D01*
G01X650315Y257474D02*
X646731D01*
X645981Y257727D01*
X645481Y258234D01*
X645315Y258867D01*
X645481Y259501D01*
X645981Y260007D01*
X646731Y260261D01*
X650315D01*
G01X649481Y262764D02*
X649981Y263144D01*
X650231Y263587D01*
X650315Y264094D01*
X650148Y264727D01*
X649731Y265171D01*
X649232Y265297D01*
X648731Y265234D01*
X648315Y264981D01*
X647481Y263714D01*
X646898Y263144D01*
X646065Y262764D01*
X645315Y262637D01*
Y265297D01*
G01X635565Y274667D02*
X660065D01*
G01X632265Y263067D02*
X635565D01*
G01X632265Y259767D02*
Y263067D01*
G01X635565Y259767D02*
X632265D01*
G01X635565Y272183D02*
Y268683D01*
G01X650315Y651175D02*
X646731D01*
X645981Y651428D01*
X645481Y651935D01*
X645315Y652568D01*
X645481Y653202D01*
X645981Y653708D01*
X646731Y653961D01*
X650315D01*
G01X649481Y656465D02*
X649981Y656845D01*
X650231Y657288D01*
X650315Y657795D01*
X650148Y658428D01*
X649731Y658872D01*
X649232Y658998D01*
X648731Y658935D01*
X648315Y658681D01*
X647481Y657415D01*
X646898Y656845D01*
X646065Y656465D01*
X645315Y656338D01*
Y658998D01*
G01X633898Y644709D02*
X637565Y647495D01*
G01X638231Y646102D02*
X633231D01*
G01X633898Y647495D02*
X637565Y644709D01*
G01X635731Y644202D02*
Y648002D01*
G01X660065Y641868D02*
X635565D01*
G01D02*
Y668368D01*
G01X632265Y653468D02*
Y656768D01*
G01X635565Y653468D02*
X632265D01*
G01X635565Y647852D02*
Y644352D01*
G01Y668368D02*
X660065D01*
G01X632265Y656768D02*
X635565D01*
G01Y665884D02*
Y662384D01*
G01X650315Y1044876D02*
X646731D01*
X645981Y1045129D01*
X645481Y1045635D01*
X645315Y1046269D01*
X645481Y1046902D01*
X645981Y1047409D01*
X646731Y1047662D01*
X650315D01*
G01X649481Y1050165D02*
X649981Y1050546D01*
X650231Y1050989D01*
X650315Y1051496D01*
X650148Y1052129D01*
X649731Y1052572D01*
X649232Y1052699D01*
X648731Y1052635D01*
X648315Y1052382D01*
X647481Y1051116D01*
X646898Y1050546D01*
X646065Y1050165D01*
X645315Y1050039D01*
Y1052699D01*
G01X633898Y1038409D02*
X637565Y1041196D01*
G01X638231Y1039803D02*
X633231D01*
G01X633898Y1041196D02*
X637565Y1038409D01*
G01X635731Y1037903D02*
Y1041703D01*
G01X660065Y1035569D02*
X635565D01*
G01D02*
Y1062069D01*
G01X632265Y1050469D02*
X635565D01*
G01X632265Y1047169D02*
Y1050469D01*
G01X635565Y1047169D02*
X632265D01*
G01X635565Y1059585D02*
Y1056085D01*
G01Y1041553D02*
Y1038053D01*
G01Y1062069D02*
X660065D01*
G01X633898Y1432110D02*
X637565Y1434897D01*
G01X638231Y1433504D02*
X633231D01*
G01X633898Y1434897D02*
X637565Y1432110D01*
G01X635731Y1431604D02*
Y1435404D01*
G01X660065Y1429270D02*
X635565D01*
G01D02*
Y1455770D01*
G01Y1435254D02*
Y1431754D01*
G01X650315Y1438576D02*
X646731D01*
X645981Y1438830D01*
X645481Y1439336D01*
X645315Y1439970D01*
X645481Y1440603D01*
X645981Y1441110D01*
X646731Y1441363D01*
X650315D01*
G01X649481Y1443866D02*
X649981Y1444246D01*
X650231Y1444690D01*
X650315Y1445196D01*
X650148Y1445830D01*
X649731Y1446273D01*
X649232Y1446400D01*
X648731Y1446336D01*
X648315Y1446083D01*
X647481Y1444817D01*
X646898Y1444246D01*
X646065Y1443866D01*
X645315Y1443740D01*
Y1446400D01*
G01X635565Y1455770D02*
X660065D01*
G01X632265Y1444170D02*
X635565D01*
G01X632265Y1440870D02*
Y1444170D01*
G01X635565Y1440870D02*
X632265D01*
G01X635565Y1453286D02*
Y1449786D01*
G01X660065Y274667D02*
Y248167D01*
G01X673115Y305417D02*
Y307417D01*
G01X677465Y305417D02*
X673115D01*
G01Y302417D02*
X677465D01*
G01X673115Y300417D02*
Y302417D01*
G01X677465Y300417D02*
X673115D01*
G01Y317417D02*
X677465D01*
G01X673115Y315417D02*
Y317417D01*
G01X677465Y315417D02*
X673115D01*
G01Y312417D02*
X677465D01*
G01X673115Y310417D02*
Y312417D01*
G01X677465Y310417D02*
X673115D01*
G01Y307417D02*
X677465D01*
G01X660065Y668368D02*
Y641868D01*
G01X673115Y709118D02*
Y711118D01*
G01X677465Y709118D02*
X673115D01*
G01Y706118D02*
X677465D01*
G01X673115Y704118D02*
Y706118D01*
G01X677465Y704118D02*
X673115D01*
G01Y701118D02*
X677465D01*
G01X673115Y699118D02*
Y701118D01*
G01X677465Y699118D02*
X673115D01*
G01Y696118D02*
X677465D01*
G01X673115Y694118D02*
Y696118D01*
G01X677465Y694118D02*
X673115D01*
G01Y711118D02*
X677465D01*
G01X660065Y1062069D02*
Y1035569D01*
G01X673115Y1104819D02*
X677465D01*
G01X673115Y1102819D02*
Y1104819D01*
G01X677465Y1102819D02*
X673115D01*
G01Y1099819D02*
X677465D01*
G01X673115Y1097819D02*
Y1099819D01*
G01X677465Y1097819D02*
X673115D01*
G01Y1094819D02*
X677465D01*
G01X673115Y1092819D02*
Y1094819D01*
G01X677465Y1092819D02*
X673115D01*
G01Y1089819D02*
X677465D01*
G01X673115Y1087819D02*
Y1089819D01*
G01X677465Y1087819D02*
X673115D01*
G01X660065Y1455770D02*
Y1429270D01*
G01X673115Y1488520D02*
X677465D01*
G01X673115Y1486520D02*
Y1488520D01*
G01X677465Y1486520D02*
X673115D01*
G01Y1483520D02*
X677465D01*
G01X673115Y1481520D02*
Y1483520D01*
G01X677465Y1481520D02*
X673115D01*
G01Y1498520D02*
X677465D01*
G01X673115Y1496520D02*
Y1498520D01*
G01X677465Y1496520D02*
X673115D01*
G01Y1493520D02*
X677465D01*
G01X673115Y1491520D02*
Y1493520D01*
G01X677465Y1491520D02*
X673115D01*
G01X697165Y199067D02*
Y193767D01*
G01X688465D02*
Y199067D01*
G01X697165Y193767D02*
X688465D01*
G01D02*
Y199067D01*
G01X691065Y193767D02*
X688465D01*
G01X691065Y199067D02*
Y193767D01*
G01X697165D02*
X694565D01*
G01X697165Y199067D02*
Y193767D01*
G01X694565D02*
Y199067D01*
G01X706831Y201417D02*
Y206417D01*
X705248D01*
X704742Y206167D01*
X704425Y205834D01*
X704298Y205167D01*
X704425Y204501D01*
X704805Y204084D01*
X705248Y203834D01*
X706831D01*
G01X705248D02*
X704298Y201417D01*
G01X700465Y206417D02*
Y201417D01*
G01X701922Y206417D02*
X699008D01*
G01X696695Y201417D02*
Y206417D01*
G01X694035D02*
Y201417D01*
G01Y203917D02*
X696695D01*
G01X688998Y201417D02*
X691531D01*
Y206417D01*
X688998D01*
G01X690012Y204001D02*
X691531D01*
G01X686431Y201417D02*
Y206417D01*
X684848D01*
X684342Y206167D01*
X684025Y205834D01*
X683898Y205167D01*
X684025Y204501D01*
X684405Y204084D01*
X684848Y203834D01*
X686431D01*
G01X684848D02*
X683898Y201417D01*
G01X681712D02*
Y206417D01*
X680065Y202251D01*
X678418Y206417D01*
Y201417D01*
G01X704131Y218917D02*
Y223917D01*
X702548D01*
X702042Y223667D01*
X701725Y223334D01*
X701598Y222667D01*
X701725Y222001D01*
X702105Y221584D01*
X702548Y221334D01*
X704131D01*
G01X702548D02*
X701598Y218917D01*
G01X698969Y221000D02*
X698525Y221584D01*
X698145Y221917D01*
X697638Y222084D01*
X697195Y221917D01*
X696878Y221584D01*
X696625Y221084D01*
X696561Y220501D01*
X696625Y220000D01*
X696878Y219500D01*
X697258Y219084D01*
X697702Y218917D01*
X698208Y219084D01*
X698652Y219584D01*
X698905Y220334D01*
X698969Y221167D01*
X698842Y222250D01*
X698652Y222834D01*
X698335Y223417D01*
X697892Y223834D01*
X697448Y223917D01*
X697005Y223751D01*
X696688Y223334D01*
G01X688465Y199067D02*
X697165D01*
G01X688465D02*
X691065D01*
G01X694565D02*
X697165D01*
G01Y216567D02*
Y211267D01*
G01X688465Y216567D02*
X697165D01*
G01X688465Y211267D02*
Y216567D01*
G01X697165Y211267D02*
X688465D01*
G01Y216567D02*
X691065D01*
G01X688465Y211267D02*
Y216567D01*
G01X691065Y211267D02*
X688465D01*
G01X691065Y216567D02*
Y211267D01*
G01X697165D02*
X694565D01*
G01X697165Y216567D02*
Y211267D01*
G01X694565Y216567D02*
X697165D01*
G01X694565Y211267D02*
Y216567D01*
G01X689898Y247661D02*
X690148Y247281D01*
X690315Y246837D01*
Y246331D01*
X690065Y245761D01*
X689648Y245317D01*
X689148Y245001D01*
X688315Y244747D01*
X687565Y244684D01*
X686815Y244811D01*
X686315Y245001D01*
X685815Y245381D01*
X685481Y245824D01*
X685315Y246267D01*
Y246711D01*
X685481Y247154D01*
X685731Y247534D01*
X686065Y247851D01*
G01X690315Y250101D02*
X685315D01*
Y252634D01*
G01Y255074D02*
X690315D01*
G01Y257481D02*
X687231Y255074D01*
G01X685315Y257861D02*
X688648Y256151D01*
G01X689481Y260364D02*
X689981Y260744D01*
X690231Y261187D01*
X690315Y261694D01*
X690148Y262327D01*
X689731Y262771D01*
X689232Y262897D01*
X688731Y262834D01*
X688315Y262581D01*
X687481Y261314D01*
X686898Y260744D01*
X686065Y260364D01*
X685315Y260237D01*
Y262897D01*
G01X680365Y267317D02*
Y240517D01*
G01X695265D02*
Y267317D01*
G01Y240517D02*
G02X680365I-7450J0D01*
G01X678365Y267317D02*
Y240517D01*
G01X697265D02*
Y267317D01*
G01Y240517D02*
G02X678365I-9450J0D01*
G01X688115Y228017D02*
G02I-300J0D01*
G01X680365Y267317D02*
G02X695265I7450J0D01*
G01X678365D02*
G02X697265I9450J0D01*
G01X693165Y318767D02*
Y299067D01*
G01X677465D02*
Y318767D01*
G01X693165Y299067D02*
X677465D01*
G01Y307417D02*
Y305417D01*
G01Y302417D02*
Y300417D01*
G01X697515D02*
X693165D01*
G01X697515Y302417D02*
Y300417D01*
G01X693165Y302417D02*
X697515D01*
G01X693165Y300417D02*
Y302417D01*
G01X697515Y305417D02*
X693165D01*
G01X697515Y307417D02*
Y305417D01*
G01X693165D02*
Y307417D01*
G01X699258Y328917D02*
Y325334D01*
X699005Y324584D01*
X698498Y324084D01*
X697865Y323917D01*
X697231Y324084D01*
X696725Y324584D01*
X696472Y325334D01*
Y328917D01*
G01X692005Y323917D02*
Y328917D01*
X694348Y325334D01*
X691181D01*
G01X697408Y325451D02*
X694622Y329117D01*
G01X696015Y329784D02*
Y324784D01*
G01X694622Y325451D02*
X697408Y329117D01*
G01X697915Y327284D02*
X694115D01*
G01X686515Y318767D02*
G02X684115I-1200J0D01*
G01X677465D02*
X693165D01*
G01X677465Y317417D02*
Y315417D01*
G01Y312417D02*
Y310417D01*
G01X693165Y307417D02*
X697515D01*
G01Y310417D02*
X693165D01*
G01X697515Y312417D02*
Y310417D01*
G01X693165Y312417D02*
X697515D01*
G01X693165Y310417D02*
Y312417D01*
G01X697515Y315417D02*
X693165D01*
G01X697515Y317417D02*
Y315417D01*
G01X693165Y317417D02*
X697515D01*
G01X693165Y315417D02*
Y317417D01*
G01X706831Y595118D02*
Y600118D01*
X705248D01*
X704742Y599868D01*
X704425Y599535D01*
X704298Y598868D01*
X704425Y598202D01*
X704805Y597785D01*
X705248Y597535D01*
X706831D01*
G01X705248D02*
X704298Y595118D01*
G01X700465Y600118D02*
Y595118D01*
G01X701922Y600118D02*
X699008D01*
G01X696695Y595118D02*
Y600118D01*
G01X694035D02*
Y595118D01*
G01Y597618D02*
X696695D01*
G01X688998Y595118D02*
X691531D01*
Y600118D01*
X688998D01*
G01X690012Y597702D02*
X691531D01*
G01X686431Y595118D02*
Y600118D01*
X684848D01*
X684342Y599868D01*
X684025Y599535D01*
X683898Y598868D01*
X684025Y598202D01*
X684405Y597785D01*
X684848Y597535D01*
X686431D01*
G01X684848D02*
X683898Y595118D01*
G01X681712D02*
Y600118D01*
X680065Y595952D01*
X678418Y600118D01*
Y595118D01*
G01X697165Y592768D02*
Y587468D01*
G01X688465Y592768D02*
X697165D01*
G01X688465Y587468D02*
Y592768D01*
G01X697165Y587468D02*
X688465D01*
G01Y592768D02*
X691065D01*
G01X688465Y587468D02*
Y592768D01*
G01X691065Y587468D02*
X688465D01*
G01X691065Y592768D02*
Y587468D01*
G01X697165D02*
X694565D01*
G01X697165Y592768D02*
Y587468D01*
G01X694565Y592768D02*
X697165D01*
G01X694565Y587468D02*
Y592768D01*
G01X704131Y612618D02*
Y617618D01*
X702548D01*
X702042Y617368D01*
X701725Y617035D01*
X701598Y616368D01*
X701725Y615702D01*
X702105Y615285D01*
X702548Y615035D01*
X704131D01*
G01X702548D02*
X701598Y612618D01*
G01X698969Y614701D02*
X698525Y615285D01*
X698145Y615618D01*
X697638Y615785D01*
X697195Y615618D01*
X696878Y615285D01*
X696625Y614785D01*
X696561Y614202D01*
X696625Y613701D01*
X696878Y613201D01*
X697258Y612785D01*
X697702Y612618D01*
X698208Y612785D01*
X698652Y613285D01*
X698905Y614035D01*
X698969Y614868D01*
X698842Y615951D01*
X698652Y616535D01*
X698335Y617118D01*
X697892Y617535D01*
X697448Y617618D01*
X697005Y617452D01*
X696688Y617035D01*
G01X697165Y610268D02*
Y604968D01*
G01X688465Y610268D02*
X697165D01*
G01X688465Y604968D02*
Y610268D01*
G01X697165Y604968D02*
X688465D01*
G01Y610268D02*
X691065D01*
G01X688465Y604968D02*
Y610268D01*
G01X691065Y604968D02*
X688465D01*
G01X691065Y610268D02*
Y604968D01*
G01X697165D02*
X694565D01*
G01X697165Y610268D02*
Y604968D01*
G01X694565Y610268D02*
X697165D01*
G01X694565Y604968D02*
Y610268D01*
G01X695265Y634218D02*
G02X680365I-7450J0D01*
G01X697265D02*
G02X678365I-9450J0D01*
G01X688115Y621718D02*
G02I-300J0D01*
G01X689898Y641361D02*
X690148Y640981D01*
X690315Y640538D01*
Y640031D01*
X690065Y639461D01*
X689648Y639018D01*
X689148Y638702D01*
X688315Y638448D01*
X687565Y638385D01*
X686815Y638511D01*
X686315Y638702D01*
X685815Y639081D01*
X685481Y639525D01*
X685315Y639968D01*
Y640411D01*
X685481Y640855D01*
X685731Y641235D01*
X686065Y641552D01*
G01X690315Y643802D02*
X685315D01*
Y646335D01*
G01Y648775D02*
X690315D01*
G01Y651181D02*
X687231Y648775D01*
G01X685315Y651561D02*
X688648Y649852D01*
G01X689481Y654065D02*
X689981Y654445D01*
X690231Y654888D01*
X690315Y655395D01*
X690148Y656028D01*
X689731Y656472D01*
X689232Y656598D01*
X688731Y656535D01*
X688315Y656281D01*
X687481Y655015D01*
X686898Y654445D01*
X686065Y654065D01*
X685315Y653938D01*
Y656598D01*
G01X680365Y661018D02*
Y634218D01*
G01X695265D02*
Y661018D01*
G01X678365D02*
Y634218D01*
G01X697265D02*
Y661018D01*
G01X680365D02*
G02X695265I7450J0D01*
G01X678365D02*
G02X697265I9450J0D01*
G01X693165Y712468D02*
Y692768D01*
G01X677465D02*
Y712468D01*
G01X693165Y692768D02*
X677465D01*
G01Y711118D02*
Y709118D01*
G01Y706118D02*
Y704118D01*
G01Y701118D02*
Y699118D01*
G01Y696118D02*
Y694118D01*
G01X697515D02*
X693165D01*
G01X697515Y696118D02*
Y694118D01*
G01X693165Y696118D02*
X697515D01*
G01X693165Y694118D02*
Y696118D01*
G01X697515Y699118D02*
X693165D01*
G01X697515Y701118D02*
Y699118D01*
G01X693165Y701118D02*
X697515D01*
G01X693165Y699118D02*
Y701118D01*
G01X697515Y704118D02*
X693165D01*
G01X697515Y706118D02*
Y704118D01*
G01X693165Y706118D02*
X697515D01*
G01X693165Y704118D02*
Y706118D01*
G01X697515Y709118D02*
X693165D01*
G01X697515Y711118D02*
Y709118D01*
G01X693165D02*
Y711118D01*
G01X699258Y722618D02*
Y719035D01*
X699005Y718285D01*
X698498Y717785D01*
X697865Y717618D01*
X697231Y717785D01*
X696725Y718285D01*
X696472Y719035D01*
Y722618D01*
G01X692005Y717618D02*
Y722618D01*
X694348Y719035D01*
X691181D01*
G01X697408Y719152D02*
X694622Y722818D01*
G01X696015Y723485D02*
Y718485D01*
G01X694622Y719152D02*
X697408Y722818D01*
G01X697915Y720985D02*
X694115D01*
G01X686515Y712468D02*
G02X684115I-1200J0D01*
G01X677465D02*
X693165D01*
G01Y711118D02*
X697515D01*
G01X706831Y988819D02*
Y993819D01*
X705248D01*
X704742Y993569D01*
X704425Y993235D01*
X704298Y992569D01*
X704425Y991902D01*
X704805Y991485D01*
X705248Y991235D01*
X706831D01*
G01X705248D02*
X704298Y988819D01*
G01X700465Y993819D02*
Y988819D01*
G01X701922Y993819D02*
X699008D01*
G01X696695Y988819D02*
Y993819D01*
G01X694035D02*
Y988819D01*
G01Y991319D02*
X696695D01*
G01X688998Y988819D02*
X691531D01*
Y993819D01*
X688998D01*
G01X690012Y991402D02*
X691531D01*
G01X686431Y988819D02*
Y993819D01*
X684848D01*
X684342Y993569D01*
X684025Y993235D01*
X683898Y992569D01*
X684025Y991902D01*
X684405Y991485D01*
X684848Y991235D01*
X686431D01*
G01X684848D02*
X683898Y988819D01*
G01X681712D02*
Y993819D01*
X680065Y989652D01*
X678418Y993819D01*
Y988819D01*
G01X704131Y1006319D02*
Y1011319D01*
X702548D01*
X702042Y1011069D01*
X701725Y1010735D01*
X701598Y1010069D01*
X701725Y1009402D01*
X702105Y1008985D01*
X702548Y1008735D01*
X704131D01*
G01X702548D02*
X701598Y1006319D01*
G01X698969Y1008402D02*
X698525Y1008985D01*
X698145Y1009319D01*
X697638Y1009485D01*
X697195Y1009319D01*
X696878Y1008985D01*
X696625Y1008485D01*
X696561Y1007902D01*
X696625Y1007402D01*
X696878Y1006902D01*
X697258Y1006485D01*
X697702Y1006319D01*
X698208Y1006485D01*
X698652Y1006985D01*
X698905Y1007735D01*
X698969Y1008569D01*
X698842Y1009652D01*
X698652Y1010236D01*
X698335Y1010819D01*
X697892Y1011235D01*
X697448Y1011319D01*
X697005Y1011152D01*
X696688Y1010735D01*
G01X697165Y986469D02*
Y981169D01*
G01X688465Y986469D02*
X697165D01*
G01X688465Y981169D02*
Y986469D01*
G01X697165Y981169D02*
X688465D01*
G01Y986469D02*
X691065D01*
G01X688465Y981169D02*
Y986469D01*
G01X691065Y981169D02*
X688465D01*
G01X691065Y986469D02*
Y981169D01*
G01X697165D02*
X694565D01*
G01X697165Y986469D02*
Y981169D01*
G01X694565Y986469D02*
X697165D01*
G01X694565Y981169D02*
Y986469D01*
G01X697165Y1003969D02*
Y998669D01*
G01X688465Y1003969D02*
X697165D01*
G01X688465Y998669D02*
Y1003969D01*
G01X697165Y998669D02*
X688465D01*
G01Y1003969D02*
X691065D01*
G01X688465Y998669D02*
Y1003969D01*
G01X691065Y998669D02*
X688465D01*
G01X691065Y1003969D02*
Y998669D01*
G01X697165D02*
X694565D01*
G01X697165Y1003969D02*
Y998669D01*
G01X694565Y1003969D02*
X697165D01*
G01X694565Y998669D02*
Y1003969D01*
G01X689898Y1035062D02*
X690148Y1034682D01*
X690315Y1034239D01*
Y1033732D01*
X690065Y1033162D01*
X689648Y1032719D01*
X689148Y1032402D01*
X688315Y1032149D01*
X687565Y1032085D01*
X686815Y1032212D01*
X686315Y1032402D01*
X685815Y1032782D01*
X685481Y1033226D01*
X685315Y1033669D01*
Y1034112D01*
X685481Y1034556D01*
X685731Y1034935D01*
X686065Y1035252D01*
G01X690315Y1037502D02*
X685315D01*
Y1040035D01*
G01Y1042476D02*
X690315D01*
G01Y1044882D02*
X687231Y1042476D01*
G01X685315Y1045262D02*
X688648Y1043552D01*
G01X689481Y1047765D02*
X689981Y1048146D01*
X690231Y1048589D01*
X690315Y1049096D01*
X690148Y1049729D01*
X689731Y1050172D01*
X689232Y1050299D01*
X688731Y1050235D01*
X688315Y1049982D01*
X687481Y1048716D01*
X686898Y1048146D01*
X686065Y1047765D01*
X685315Y1047639D01*
Y1050299D01*
G01X680365Y1054719D02*
Y1027919D01*
G01X695265D02*
Y1054719D01*
G01Y1027919D02*
G02X680365I-7450J0D01*
G01X678365Y1054719D02*
Y1027919D01*
G01X697265D02*
Y1054719D01*
G01Y1027919D02*
G02X678365I-9450J0D01*
G01X688115Y1015419D02*
G02I-300J0D01*
G01X680365Y1054719D02*
G02X695265I7450J0D01*
G01X678365D02*
G02X697265I9450J0D01*
G01X699258Y1116319D02*
Y1112735D01*
X699005Y1111985D01*
X698498Y1111485D01*
X697865Y1111319D01*
X697231Y1111485D01*
X696725Y1111985D01*
X696472Y1112735D01*
Y1116319D01*
G01X692005Y1111319D02*
Y1116319D01*
X694348Y1112735D01*
X691181D01*
G01X697408Y1112852D02*
X694622Y1116519D01*
G01X696015Y1117185D02*
Y1112185D01*
G01X694622Y1112852D02*
X697408Y1116519D01*
G01X697915Y1114685D02*
X694115D01*
G01X686515Y1106169D02*
G02X684115I-1200J0D01*
G01X693165D02*
Y1086469D01*
G01X677465Y1106169D02*
X693165D01*
G01X677465Y1086469D02*
Y1106169D01*
G01X693165Y1086469D02*
X677465D01*
G01Y1104819D02*
Y1102819D01*
G01Y1099819D02*
Y1097819D01*
G01Y1094819D02*
Y1092819D01*
G01Y1089819D02*
Y1087819D01*
G01X697515D02*
X693165D01*
G01X697515Y1089819D02*
Y1087819D01*
G01X693165Y1089819D02*
X697515D01*
G01X693165Y1087819D02*
Y1089819D01*
G01X697515Y1092819D02*
X693165D01*
G01X697515Y1094819D02*
Y1092819D01*
G01X693165Y1094819D02*
X697515D01*
G01X693165Y1092819D02*
Y1094819D01*
G01X697515Y1097819D02*
X693165D01*
G01X697515Y1099819D02*
Y1097819D01*
G01X693165Y1099819D02*
X697515D01*
G01X693165Y1097819D02*
Y1099819D01*
G01X697515Y1102819D02*
X693165D01*
G01X697515Y1104819D02*
Y1102819D01*
G01X693165Y1104819D02*
X697515D01*
G01X693165Y1102819D02*
Y1104819D01*
G01X706831Y1382520D02*
Y1387520D01*
X705248D01*
X704742Y1387270D01*
X704425Y1386936D01*
X704298Y1386270D01*
X704425Y1385603D01*
X704805Y1385186D01*
X705248Y1384936D01*
X706831D01*
G01X705248D02*
X704298Y1382520D01*
G01X700465Y1387520D02*
Y1382520D01*
G01X701922Y1387520D02*
X699008D01*
G01X696695Y1382520D02*
Y1387520D01*
G01X694035D02*
Y1382520D01*
G01Y1385020D02*
X696695D01*
G01X688998Y1382520D02*
X691531D01*
Y1387520D01*
X688998D01*
G01X690012Y1385103D02*
X691531D01*
G01X686431Y1382520D02*
Y1387520D01*
X684848D01*
X684342Y1387270D01*
X684025Y1386936D01*
X683898Y1386270D01*
X684025Y1385603D01*
X684405Y1385186D01*
X684848Y1384936D01*
X686431D01*
G01X684848D02*
X683898Y1382520D01*
G01X681712D02*
Y1387520D01*
X680065Y1383353D01*
X678418Y1387520D01*
Y1382520D01*
G01X697165Y1380170D02*
Y1374870D01*
G01X688465Y1380170D02*
X697165D01*
G01X688465Y1374870D02*
Y1380170D01*
G01X697165Y1374870D02*
X688465D01*
G01Y1380170D02*
X691065D01*
G01X688465Y1374870D02*
Y1380170D01*
G01X691065Y1374870D02*
X688465D01*
G01X691065Y1380170D02*
Y1374870D01*
G01X697165D02*
X694565D01*
G01X697165Y1380170D02*
Y1374870D01*
G01X694565Y1380170D02*
X697165D01*
G01X694565Y1374870D02*
Y1380170D01*
G01X704131Y1400020D02*
Y1405020D01*
X702548D01*
X702042Y1404770D01*
X701725Y1404436D01*
X701598Y1403770D01*
X701725Y1403103D01*
X702105Y1402686D01*
X702548Y1402436D01*
X704131D01*
G01X702548D02*
X701598Y1400020D01*
G01X698969Y1402103D02*
X698525Y1402686D01*
X698145Y1403020D01*
X697638Y1403186D01*
X697195Y1403020D01*
X696878Y1402686D01*
X696625Y1402186D01*
X696561Y1401603D01*
X696625Y1401103D01*
X696878Y1400603D01*
X697258Y1400186D01*
X697702Y1400020D01*
X698208Y1400186D01*
X698652Y1400686D01*
X698905Y1401436D01*
X698969Y1402270D01*
X698842Y1403353D01*
X698652Y1403937D01*
X698335Y1404520D01*
X697892Y1404936D01*
X697448Y1405020D01*
X697005Y1404853D01*
X696688Y1404436D01*
G01X697165Y1397670D02*
Y1392370D01*
G01X688465Y1397670D02*
X697165D01*
G01X688465Y1392370D02*
Y1397670D01*
G01X697165Y1392370D02*
X688465D01*
G01Y1397670D02*
X691065D01*
G01X688465Y1392370D02*
Y1397670D01*
G01X691065Y1392370D02*
X688465D01*
G01X691065Y1397670D02*
Y1392370D01*
G01X697165D02*
X694565D01*
G01X697165Y1397670D02*
Y1392370D01*
G01X694565Y1397670D02*
X697165D01*
G01X694565Y1392370D02*
Y1397670D01*
G01X688115Y1409120D02*
G02I-300J0D01*
G01X689898Y1428763D02*
X690148Y1428383D01*
X690315Y1427940D01*
Y1427433D01*
X690065Y1426863D01*
X689648Y1426420D01*
X689148Y1426103D01*
X688315Y1425850D01*
X687565Y1425786D01*
X686815Y1425913D01*
X686315Y1426103D01*
X685815Y1426483D01*
X685481Y1426926D01*
X685315Y1427370D01*
Y1427813D01*
X685481Y1428256D01*
X685731Y1428636D01*
X686065Y1428953D01*
G01X690315Y1431203D02*
X685315D01*
Y1433736D01*
G01Y1436176D02*
X690315D01*
G01Y1438583D02*
X687231Y1436176D01*
G01X685315Y1438963D02*
X688648Y1437253D01*
G01X689481Y1441466D02*
X689981Y1441846D01*
X690231Y1442290D01*
X690315Y1442796D01*
X690148Y1443430D01*
X689731Y1443873D01*
X689232Y1444000D01*
X688731Y1443936D01*
X688315Y1443683D01*
X687481Y1442417D01*
X686898Y1441846D01*
X686065Y1441466D01*
X685315Y1441340D01*
Y1444000D01*
G01X680365Y1448420D02*
Y1421620D01*
G01X695265D02*
Y1448420D01*
G01Y1421620D02*
G02X680365I-7450J0D01*
G01X678365Y1448420D02*
Y1421620D01*
G01X697265D02*
Y1448420D01*
G01Y1421620D02*
G02X678365I-9450J0D01*
G01X680365Y1448420D02*
G02X695265I7450J0D01*
G01X678365D02*
G02X697265I9450J0D01*
G01X693165Y1499870D02*
Y1480170D01*
G01X677465D02*
Y1499870D01*
G01X693165Y1480170D02*
X677465D01*
G01Y1488520D02*
Y1486520D01*
G01Y1483520D02*
Y1481520D01*
G01X697515D02*
X693165D01*
G01X697515Y1483520D02*
Y1481520D01*
G01X693165Y1483520D02*
X697515D01*
G01X693165Y1481520D02*
Y1483520D01*
G01X697515Y1486520D02*
X693165D01*
G01X697515Y1488520D02*
Y1486520D01*
G01X693165Y1488520D02*
X697515D01*
G01X693165Y1486520D02*
Y1488520D01*
G01X699258Y1510020D02*
Y1506436D01*
X699005Y1505686D01*
X698498Y1505186D01*
X697865Y1505020D01*
X697231Y1505186D01*
X696725Y1505686D01*
X696472Y1506436D01*
Y1510020D01*
G01X692005Y1505020D02*
Y1510020D01*
X694348Y1506436D01*
X691181D01*
G01X697408Y1506553D02*
X694622Y1510220D01*
G01X696015Y1510886D02*
Y1505886D01*
G01X694622Y1506553D02*
X697408Y1510220D01*
G01X697915Y1508386D02*
X694115D01*
G01X686515Y1499870D02*
G02X684115I-1200J0D01*
G01X677465D02*
X693165D01*
G01X677465Y1498520D02*
Y1496520D01*
G01Y1493520D02*
Y1491520D01*
G01X697515D02*
X693165D01*
G01X697515Y1493520D02*
Y1491520D01*
G01X693165Y1493520D02*
X697515D01*
G01X693165Y1491520D02*
Y1493520D01*
G01X697515Y1496520D02*
X693165D01*
G01X697515Y1498520D02*
Y1496520D01*
G01X693165Y1498520D02*
X697515D01*
G01X693165Y1496520D02*
Y1498520D01*
G01X724372Y183917D02*
Y188917D01*
X721458Y183917D01*
Y188917D01*
G01X719462Y183917D02*
Y188917D01*
X717815Y184751D01*
X716168Y188917D01*
Y183917D01*
G01X712715D02*
Y188917D01*
X713475Y187917D01*
G01Y183917D02*
X711955D01*
G01X724665Y199067D02*
Y193767D01*
G01X715965D02*
Y199067D01*
G01X724665Y193767D02*
X715965D01*
G01D02*
Y199067D01*
G01X718565Y193767D02*
X715965D01*
G01X718565Y199067D02*
Y193767D01*
G01X724665D02*
X722065D01*
G01X724665Y199067D02*
Y193767D01*
G01X722065D02*
Y199067D01*
G01X712146Y181575D02*
Y176259D01*
G01X703484Y181575D02*
X712146D01*
G01X703484Y176259D02*
Y181575D01*
G01X712146Y176259D02*
X703484D01*
G01X711645Y177260D02*
G02I-499J0D01*
G01X708602Y183248D02*
Y181575D01*
G01X707028Y183248D02*
X708602D01*
G01X707028Y181575D02*
Y183248D01*
G01X708602Y181575D02*
X707028D01*
G01X704272Y174586D02*
Y176259D01*
G01X705847Y174586D02*
X704272D01*
G01X705847Y176259D02*
Y174586D01*
G01X704272Y176259D02*
X705847D01*
G01X709783Y174586D02*
Y176259D01*
G01X711358Y174586D02*
X709783D01*
G01X711358Y176259D02*
Y174586D01*
G01X709783Y176259D02*
X711358D01*
G01X734131Y201417D02*
Y206417D01*
X732548D01*
X732042Y206167D01*
X731725Y205834D01*
X731598Y205167D01*
X731725Y204501D01*
X732105Y204084D01*
X732548Y203834D01*
X734131D01*
G01X732548D02*
X731598Y201417D01*
G01X727765D02*
X727322Y201501D01*
X726815Y201750D01*
X726498Y202167D01*
X726372Y202751D01*
X726498Y203334D01*
X726878Y203834D01*
X727448Y204084D01*
X728081D01*
X728462Y204251D01*
X728778Y204667D01*
X728905Y205251D01*
X728715Y205834D01*
X728272Y206251D01*
X727765Y206417D01*
X727258Y206251D01*
X726815Y205834D01*
X726625Y205251D01*
X726752Y204667D01*
X727068Y204251D01*
X727448Y204084D01*
X728081D01*
X728652Y203834D01*
X729031Y203334D01*
X729158Y202751D01*
X729031Y202167D01*
X728715Y201750D01*
X728208Y201501D01*
X727765Y201417D01*
G01X731631Y218917D02*
Y223917D01*
X730048D01*
X729542Y223667D01*
X729225Y223334D01*
X729098Y222667D01*
X729225Y222001D01*
X729605Y221584D01*
X730048Y221334D01*
X731631D01*
G01X730048D02*
X729098Y218917D01*
G01X724505D02*
Y223917D01*
X726848Y220334D01*
X723681D01*
G01X715965Y199067D02*
X724665D01*
G01X715965D02*
X718565D01*
G01X722065D02*
X724665D01*
G01Y216567D02*
Y211267D01*
G01X715965Y216567D02*
X724665D01*
G01X715965Y211267D02*
Y216567D01*
G01X724665Y211267D02*
X715965D01*
G01Y216567D02*
X718565D01*
G01X715965Y211267D02*
Y216567D01*
G01X718565Y211267D02*
X715965D01*
G01X718565Y216567D02*
Y211267D01*
G01X724665D02*
X722065D01*
G01X724665Y216567D02*
Y211267D01*
G01X722065Y216567D02*
X724665D01*
G01X722065Y211267D02*
Y216567D01*
G01X724131Y238917D02*
Y243917D01*
X722548D01*
X722042Y243667D01*
X721725Y243334D01*
X721598Y242667D01*
X721725Y242001D01*
X722105Y241584D01*
X722548Y241334D01*
X724131D01*
G01X722548D02*
X721598Y238917D01*
G01X718969Y243084D02*
X718588Y243584D01*
X718145Y243834D01*
X717638Y243917D01*
X717005Y243751D01*
X716561Y243334D01*
X716435Y242834D01*
X716498Y242334D01*
X716752Y241917D01*
X718018Y241084D01*
X718588Y240501D01*
X718969Y239667D01*
X719095Y238917D01*
X716435D01*
G01X719665Y236567D02*
Y231267D01*
G01X710965Y236567D02*
X719665D01*
G01X710965Y231267D02*
Y236567D01*
G01X719665Y231267D02*
X710965D01*
G01Y236567D02*
X713565D01*
G01X710965Y231267D02*
Y236567D01*
G01X713565Y231267D02*
X710965D01*
G01X713565Y236567D02*
Y231267D01*
G01X719665D02*
X717065D01*
G01X719665Y236567D02*
Y231267D01*
G01X717065Y236567D02*
X719665D01*
G01X717065Y231267D02*
Y236567D01*
G01X719665Y256567D02*
Y251267D01*
G01X710965D02*
Y256567D01*
G01X719665Y251267D02*
X710965D01*
G01D02*
Y256567D01*
G01X713565Y251267D02*
X710965D01*
G01X713565Y256567D02*
Y251267D01*
G01X719665D02*
X717065D01*
G01X719665Y256567D02*
Y251267D01*
G01X717065D02*
Y256567D01*
G01X724131Y258917D02*
Y263917D01*
X722548D01*
X722042Y263667D01*
X721725Y263334D01*
X721598Y262667D01*
X721725Y262001D01*
X722105Y261584D01*
X722548Y261334D01*
X724131D01*
G01X722548D02*
X721598Y258917D01*
G01X717765D02*
Y263917D01*
X718525Y262917D01*
G01Y258917D02*
X717005D01*
G01X710965Y256567D02*
X719665D01*
G01X710965D02*
X713565D01*
G01X717065D02*
X719665D01*
G01X712146Y575276D02*
Y569960D01*
G01X703484D02*
Y575276D01*
G01X712146Y569960D02*
X703484D01*
G01X711645Y570961D02*
G02I-499J0D01*
G01X704272Y568287D02*
Y569960D01*
G01X705847Y568287D02*
X704272D01*
G01X705847Y569960D02*
Y568287D01*
G01X704272Y569960D02*
X705847D01*
G01X709783Y568287D02*
Y569960D01*
G01X711358Y568287D02*
X709783D01*
G01X711358Y569960D02*
Y568287D01*
G01X709783Y569960D02*
X711358D01*
G01X724372Y577618D02*
Y582618D01*
X721458Y577618D01*
Y582618D01*
G01X719462Y577618D02*
Y582618D01*
X717815Y578452D01*
X716168Y582618D01*
Y577618D01*
G01X712715D02*
Y582618D01*
X713475Y581618D01*
G01Y577618D02*
X711955D01*
G01X734131Y595118D02*
Y600118D01*
X732548D01*
X732042Y599868D01*
X731725Y599535D01*
X731598Y598868D01*
X731725Y598202D01*
X732105Y597785D01*
X732548Y597535D01*
X734131D01*
G01X732548D02*
X731598Y595118D01*
G01X727765D02*
X727322Y595202D01*
X726815Y595451D01*
X726498Y595868D01*
X726372Y596452D01*
X726498Y597035D01*
X726878Y597535D01*
X727448Y597785D01*
X728081D01*
X728462Y597952D01*
X728778Y598368D01*
X728905Y598952D01*
X728715Y599535D01*
X728272Y599952D01*
X727765Y600118D01*
X727258Y599952D01*
X726815Y599535D01*
X726625Y598952D01*
X726752Y598368D01*
X727068Y597952D01*
X727448Y597785D01*
X728081D01*
X728652Y597535D01*
X729031Y597035D01*
X729158Y596452D01*
X729031Y595868D01*
X728715Y595451D01*
X728208Y595202D01*
X727765Y595118D01*
G01X724665Y592768D02*
Y587468D01*
G01X715965Y592768D02*
X724665D01*
G01X715965Y587468D02*
Y592768D01*
G01X724665Y587468D02*
X715965D01*
G01Y592768D02*
X718565D01*
G01X715965Y587468D02*
Y592768D01*
G01X718565Y587468D02*
X715965D01*
G01X718565Y592768D02*
Y587468D01*
G01X724665D02*
X722065D01*
G01X724665Y592768D02*
Y587468D01*
G01X722065Y592768D02*
X724665D01*
G01X722065Y587468D02*
Y592768D01*
G01X703484Y575276D02*
X712146D01*
G01X708602Y576949D02*
Y575276D01*
G01X707028Y576949D02*
X708602D01*
G01X707028Y575276D02*
Y576949D01*
G01X708602Y575276D02*
X707028D01*
G01X731631Y612618D02*
Y617618D01*
X730048D01*
X729542Y617368D01*
X729225Y617035D01*
X729098Y616368D01*
X729225Y615702D01*
X729605Y615285D01*
X730048Y615035D01*
X731631D01*
G01X730048D02*
X729098Y612618D01*
G01X724505D02*
Y617618D01*
X726848Y614035D01*
X723681D01*
G01X724665Y610268D02*
Y604968D01*
G01X715965Y610268D02*
X724665D01*
G01X715965Y604968D02*
Y610268D01*
G01X724665Y604968D02*
X715965D01*
G01Y610268D02*
X718565D01*
G01X715965Y604968D02*
Y610268D01*
G01X718565Y604968D02*
X715965D01*
G01X718565Y610268D02*
Y604968D01*
G01X724665D02*
X722065D01*
G01X724665Y610268D02*
Y604968D01*
G01X722065Y610268D02*
X724665D01*
G01X722065Y604968D02*
Y610268D01*
G01X719665Y630268D02*
Y624968D01*
G01X710965D02*
Y630268D01*
G01X719665Y624968D02*
X710965D01*
G01D02*
Y630268D01*
G01X713565Y624968D02*
X710965D01*
G01X713565Y630268D02*
Y624968D01*
G01X719665D02*
X717065D01*
G01X719665Y630268D02*
Y624968D01*
G01X717065D02*
Y630268D01*
G01X724131Y632618D02*
Y637618D01*
X722548D01*
X722042Y637368D01*
X721725Y637035D01*
X721598Y636368D01*
X721725Y635702D01*
X722105Y635285D01*
X722548Y635035D01*
X724131D01*
G01X722548D02*
X721598Y632618D01*
G01X718969Y636785D02*
X718588Y637285D01*
X718145Y637535D01*
X717638Y637618D01*
X717005Y637452D01*
X716561Y637035D01*
X716435Y636535D01*
X716498Y636035D01*
X716752Y635618D01*
X718018Y634785D01*
X718588Y634202D01*
X718969Y633368D01*
X719095Y632618D01*
X716435D01*
G01X724131Y652618D02*
Y657618D01*
X722548D01*
X722042Y657368D01*
X721725Y657035D01*
X721598Y656368D01*
X721725Y655702D01*
X722105Y655285D01*
X722548Y655035D01*
X724131D01*
G01X722548D02*
X721598Y652618D01*
G01X717765D02*
Y657618D01*
X718525Y656618D01*
G01Y652618D02*
X717005D01*
G01X710965Y630268D02*
X719665D01*
G01X710965D02*
X713565D01*
G01X717065D02*
X719665D01*
G01Y650268D02*
Y644968D01*
G01X710965Y650268D02*
X719665D01*
G01X710965Y644968D02*
Y650268D01*
G01X719665Y644968D02*
X710965D01*
G01Y650268D02*
X713565D01*
G01X710965Y644968D02*
Y650268D01*
G01X713565Y644968D02*
X710965D01*
G01X713565Y650268D02*
Y644968D01*
G01X719665D02*
X717065D01*
G01X719665Y650268D02*
Y644968D01*
G01X717065Y650268D02*
X719665D01*
G01X717065Y644968D02*
Y650268D01*
G01X724372Y971319D02*
Y976319D01*
X721458Y971319D01*
Y976319D01*
G01X719462Y971319D02*
Y976319D01*
X717815Y972152D01*
X716168Y976319D01*
Y971319D01*
G01X712715D02*
Y976319D01*
X713475Y975319D01*
G01Y971319D02*
X711955D01*
G01X712146Y968977D02*
Y963661D01*
G01X703484Y968977D02*
X712146D01*
G01X703484Y963661D02*
Y968977D01*
G01X712146Y963661D02*
X703484D01*
G01X711645Y964661D02*
G02I-499J0D01*
G01X708602Y970650D02*
Y968977D01*
G01X707028Y970650D02*
X708602D01*
G01X707028Y968977D02*
Y970650D01*
G01X708602Y968977D02*
X707028D01*
G01X704272Y961988D02*
Y963661D01*
G01X705847Y961988D02*
X704272D01*
G01X705847Y963661D02*
Y961988D01*
G01X704272Y963661D02*
X705847D01*
G01X709783Y961988D02*
Y963661D01*
G01X711358Y961988D02*
X709783D01*
G01X711358Y963661D02*
Y961988D01*
G01X709783Y963661D02*
X711358D01*
G01X734131Y988819D02*
Y993819D01*
X732548D01*
X732042Y993569D01*
X731725Y993235D01*
X731598Y992569D01*
X731725Y991902D01*
X732105Y991485D01*
X732548Y991235D01*
X734131D01*
G01X732548D02*
X731598Y988819D01*
G01X727765D02*
X727322Y988902D01*
X726815Y989152D01*
X726498Y989569D01*
X726372Y990152D01*
X726498Y990735D01*
X726878Y991235D01*
X727448Y991485D01*
X728081D01*
X728462Y991652D01*
X728778Y992069D01*
X728905Y992652D01*
X728715Y993235D01*
X728272Y993652D01*
X727765Y993819D01*
X727258Y993652D01*
X726815Y993235D01*
X726625Y992652D01*
X726752Y992069D01*
X727068Y991652D01*
X727448Y991485D01*
X728081D01*
X728652Y991235D01*
X729031Y990735D01*
X729158Y990152D01*
X729031Y989569D01*
X728715Y989152D01*
X728208Y988902D01*
X727765Y988819D01*
G01X731631Y1006319D02*
Y1011319D01*
X730048D01*
X729542Y1011069D01*
X729225Y1010735D01*
X729098Y1010069D01*
X729225Y1009402D01*
X729605Y1008985D01*
X730048Y1008735D01*
X731631D01*
G01X730048D02*
X729098Y1006319D01*
G01X724505D02*
Y1011319D01*
X726848Y1007735D01*
X723681D01*
G01X724665Y986469D02*
Y981169D01*
G01X715965Y986469D02*
X724665D01*
G01X715965Y981169D02*
Y986469D01*
G01X724665Y981169D02*
X715965D01*
G01Y986469D02*
X718565D01*
G01X715965Y981169D02*
Y986469D01*
G01X718565Y981169D02*
X715965D01*
G01X718565Y986469D02*
Y981169D01*
G01X724665D02*
X722065D01*
G01X724665Y986469D02*
Y981169D01*
G01X722065Y986469D02*
X724665D01*
G01X722065Y981169D02*
Y986469D01*
G01X724665Y1003969D02*
Y998669D01*
G01X715965Y1003969D02*
X724665D01*
G01X715965Y998669D02*
Y1003969D01*
G01X724665Y998669D02*
X715965D01*
G01Y1003969D02*
X718565D01*
G01X715965Y998669D02*
Y1003969D01*
G01X718565Y998669D02*
X715965D01*
G01X718565Y1003969D02*
Y998669D01*
G01X724665D02*
X722065D01*
G01X724665Y1003969D02*
Y998669D01*
G01X722065Y1003969D02*
X724665D01*
G01X722065Y998669D02*
Y1003969D01*
G01X724131Y1026319D02*
Y1031319D01*
X722548D01*
X722042Y1031069D01*
X721725Y1030735D01*
X721598Y1030069D01*
X721725Y1029402D01*
X722105Y1028985D01*
X722548Y1028735D01*
X724131D01*
G01X722548D02*
X721598Y1026319D01*
G01X718969Y1030485D02*
X718588Y1030985D01*
X718145Y1031235D01*
X717638Y1031319D01*
X717005Y1031152D01*
X716561Y1030735D01*
X716435Y1030236D01*
X716498Y1029735D01*
X716752Y1029319D01*
X718018Y1028485D01*
X718588Y1027902D01*
X718969Y1027069D01*
X719095Y1026319D01*
X716435D01*
G01X719665Y1023969D02*
Y1018669D01*
G01X710965Y1023969D02*
X719665D01*
G01X710965Y1018669D02*
Y1023969D01*
G01X719665Y1018669D02*
X710965D01*
G01Y1023969D02*
X713565D01*
G01X710965Y1018669D02*
Y1023969D01*
G01X713565Y1018669D02*
X710965D01*
G01X713565Y1023969D02*
Y1018669D01*
G01X719665D02*
X717065D01*
G01X719665Y1023969D02*
Y1018669D01*
G01X717065Y1023969D02*
X719665D01*
G01X717065Y1018669D02*
Y1023969D01*
G01X724131Y1046319D02*
Y1051319D01*
X722548D01*
X722042Y1051069D01*
X721725Y1050735D01*
X721598Y1050069D01*
X721725Y1049402D01*
X722105Y1048985D01*
X722548Y1048735D01*
X724131D01*
G01X722548D02*
X721598Y1046319D01*
G01X717765D02*
Y1051319D01*
X718525Y1050319D01*
G01Y1046319D02*
X717005D01*
G01X719665Y1043969D02*
Y1038669D01*
G01X710965Y1043969D02*
X719665D01*
G01X710965Y1038669D02*
Y1043969D01*
G01X719665Y1038669D02*
X710965D01*
G01Y1043969D02*
X713565D01*
G01X710965Y1038669D02*
Y1043969D01*
G01X713565Y1038669D02*
X710965D01*
G01X713565Y1043969D02*
Y1038669D01*
G01X719665D02*
X717065D01*
G01X719665Y1043969D02*
Y1038669D01*
G01X717065Y1043969D02*
X719665D01*
G01X717065Y1038669D02*
Y1043969D01*
G01X724372Y1365020D02*
Y1370020D01*
X721458Y1365020D01*
Y1370020D01*
G01X719462Y1365020D02*
Y1370020D01*
X717815Y1365853D01*
X716168Y1370020D01*
Y1365020D01*
G01X712715D02*
Y1370020D01*
X713475Y1369020D01*
G01Y1365020D02*
X711955D01*
G01X734131Y1382520D02*
Y1387520D01*
X732548D01*
X732042Y1387270D01*
X731725Y1386936D01*
X731598Y1386270D01*
X731725Y1385603D01*
X732105Y1385186D01*
X732548Y1384936D01*
X734131D01*
G01X732548D02*
X731598Y1382520D01*
G01X727765D02*
X727322Y1382603D01*
X726815Y1382853D01*
X726498Y1383270D01*
X726372Y1383853D01*
X726498Y1384436D01*
X726878Y1384936D01*
X727448Y1385186D01*
X728081D01*
X728462Y1385353D01*
X728778Y1385770D01*
X728905Y1386353D01*
X728715Y1386936D01*
X728272Y1387353D01*
X727765Y1387520D01*
X727258Y1387353D01*
X726815Y1386936D01*
X726625Y1386353D01*
X726752Y1385770D01*
X727068Y1385353D01*
X727448Y1385186D01*
X728081D01*
X728652Y1384936D01*
X729031Y1384436D01*
X729158Y1383853D01*
X729031Y1383270D01*
X728715Y1382853D01*
X728208Y1382603D01*
X727765Y1382520D01*
G01X724665Y1380170D02*
Y1374870D01*
G01X715965Y1380170D02*
X724665D01*
G01X715965Y1374870D02*
Y1380170D01*
G01X724665Y1374870D02*
X715965D01*
G01Y1380170D02*
X718565D01*
G01X715965Y1374870D02*
Y1380170D01*
G01X718565Y1374870D02*
X715965D01*
G01X718565Y1380170D02*
Y1374870D01*
G01X724665D02*
X722065D01*
G01X724665Y1380170D02*
Y1374870D01*
G01X722065Y1380170D02*
X724665D01*
G01X722065Y1374870D02*
Y1380170D01*
G01X712146Y1362678D02*
Y1357362D01*
G01X703484Y1362678D02*
X712146D01*
G01X703484Y1357362D02*
Y1362678D01*
G01X712146Y1357362D02*
X703484D01*
G01X711645Y1358362D02*
G02I-499J0D01*
G01X708602Y1364351D02*
Y1362678D01*
G01X707028Y1364351D02*
X708602D01*
G01X707028Y1362678D02*
Y1364351D01*
G01X708602Y1362678D02*
X707028D01*
G01X704272Y1355689D02*
Y1357362D01*
G01X705847Y1355689D02*
X704272D01*
G01X705847Y1357362D02*
Y1355689D01*
G01X704272Y1357362D02*
X705847D01*
G01X709783Y1355689D02*
Y1357362D01*
G01X711358Y1355689D02*
X709783D01*
G01X711358Y1357362D02*
Y1355689D01*
G01X709783Y1357362D02*
X711358D01*
G01X731631Y1400020D02*
Y1405020D01*
X730048D01*
X729542Y1404770D01*
X729225Y1404436D01*
X729098Y1403770D01*
X729225Y1403103D01*
X729605Y1402686D01*
X730048Y1402436D01*
X731631D01*
G01X730048D02*
X729098Y1400020D01*
G01X724505D02*
Y1405020D01*
X726848Y1401436D01*
X723681D01*
G01X724665Y1397670D02*
Y1392370D01*
G01X715965Y1397670D02*
X724665D01*
G01X715965Y1392370D02*
Y1397670D01*
G01X724665Y1392370D02*
X715965D01*
G01Y1397670D02*
X718565D01*
G01X715965Y1392370D02*
Y1397670D01*
G01X718565Y1392370D02*
X715965D01*
G01X718565Y1397670D02*
Y1392370D01*
G01X724665D02*
X722065D01*
G01X724665Y1397670D02*
Y1392370D01*
G01X722065Y1397670D02*
X724665D01*
G01X722065Y1392370D02*
Y1397670D01*
G01X724131Y1420020D02*
Y1425020D01*
X722548D01*
X722042Y1424770D01*
X721725Y1424436D01*
X721598Y1423770D01*
X721725Y1423103D01*
X722105Y1422686D01*
X722548Y1422436D01*
X724131D01*
G01X722548D02*
X721598Y1420020D01*
G01X718969Y1424186D02*
X718588Y1424686D01*
X718145Y1424936D01*
X717638Y1425020D01*
X717005Y1424853D01*
X716561Y1424436D01*
X716435Y1423937D01*
X716498Y1423436D01*
X716752Y1423020D01*
X718018Y1422186D01*
X718588Y1421603D01*
X718969Y1420770D01*
X719095Y1420020D01*
X716435D01*
G01X719665Y1417670D02*
Y1412370D01*
G01X710965Y1417670D02*
X719665D01*
G01X710965Y1412370D02*
Y1417670D01*
G01X719665Y1412370D02*
X710965D01*
G01Y1417670D02*
X713565D01*
G01X710965Y1412370D02*
Y1417670D01*
G01X713565Y1412370D02*
X710965D01*
G01X713565Y1417670D02*
Y1412370D01*
G01X719665D02*
X717065D01*
G01X719665Y1417670D02*
Y1412370D01*
G01X717065Y1417670D02*
X719665D01*
G01X717065Y1412370D02*
Y1417670D01*
G01X719665Y1437670D02*
Y1432370D01*
G01X710965D02*
Y1437670D01*
G01X719665Y1432370D02*
X710965D01*
G01D02*
Y1437670D01*
G01X713565Y1432370D02*
X710965D01*
G01X713565Y1437670D02*
Y1432370D01*
G01X719665D02*
X717065D01*
G01X719665Y1437670D02*
Y1432370D01*
G01X717065D02*
Y1437670D01*
G01X724131Y1440020D02*
Y1445020D01*
X722548D01*
X722042Y1444770D01*
X721725Y1444436D01*
X721598Y1443770D01*
X721725Y1443103D01*
X722105Y1442686D01*
X722548Y1442436D01*
X724131D01*
G01X722548D02*
X721598Y1440020D01*
G01X717765D02*
Y1445020D01*
X718525Y1444020D01*
G01Y1440020D02*
X717005D01*
G01X710965Y1437670D02*
X719665D01*
G01X710965D02*
X713565D01*
G01X717065D02*
X719665D01*
G01X749372Y183917D02*
Y188917D01*
X746458Y183917D01*
Y188917D01*
G01X744462Y183917D02*
Y188917D01*
X742815Y184751D01*
X741168Y188917D01*
Y183917D01*
G01X738919Y188084D02*
X738538Y188584D01*
X738095Y188834D01*
X737588Y188917D01*
X736955Y188751D01*
X736511Y188334D01*
X736385Y187834D01*
X736448Y187334D01*
X736702Y186917D01*
X737968Y186084D01*
X738538Y185501D01*
X738919Y184667D01*
X739045Y183917D01*
X736385D01*
G01X750965Y193767D02*
Y199067D01*
G01X759665Y193767D02*
X750965D01*
G01D02*
Y199067D01*
G01X753565Y193767D02*
X750965D01*
G01X753565Y199067D02*
Y193767D01*
G01X737146Y181575D02*
Y176259D01*
G01X728484Y181575D02*
X737146D01*
G01X728484Y176259D02*
Y181575D01*
G01X737146Y176259D02*
X728484D01*
G01X736645Y177260D02*
G02I-499J0D01*
G01X733602Y183248D02*
Y181575D01*
G01X732028Y183248D02*
X733602D01*
G01X732028Y181575D02*
Y183248D01*
G01X733602Y181575D02*
X732028D01*
G01X729272Y174586D02*
Y176259D01*
G01X730847Y174586D02*
X729272D01*
G01X730847Y176259D02*
Y174586D01*
G01X729272Y176259D02*
X730847D01*
G01X734783Y174586D02*
Y176259D01*
G01X736358Y174586D02*
X734783D01*
G01X736358Y176259D02*
Y174586D01*
G01X734783Y176259D02*
X736358D01*
G01X750965Y199067D02*
X759665D01*
G01X750965D02*
X753565D01*
G01X750965Y216567D02*
X759665D01*
G01X750965Y211267D02*
Y216567D01*
G01X759665Y211267D02*
X750965D01*
G01Y216567D02*
X753565D01*
G01X750965Y211267D02*
Y216567D01*
G01X753565Y211267D02*
X750965D01*
G01X753565Y216567D02*
Y211267D01*
G01X761631Y238917D02*
Y243917D01*
X760048D01*
X759542Y243667D01*
X759225Y243334D01*
X759098Y242667D01*
X759225Y242001D01*
X759605Y241584D01*
X760048Y241334D01*
X761631D01*
G01X760048D02*
X759098Y238917D01*
G01X756658Y239917D02*
X756278Y239334D01*
X755772Y239001D01*
X755202Y238917D01*
X754695Y239001D01*
X754188Y239417D01*
X753872Y239917D01*
X753808Y240417D01*
X753935Y241000D01*
X754378Y241417D01*
X754822Y241584D01*
X755392D01*
G01X754822D02*
X754442Y241834D01*
X754125Y242250D01*
X753998Y242751D01*
X754125Y243251D01*
X754442Y243667D01*
X755012Y243917D01*
X755581Y243834D01*
X756152Y243501D01*
G01X748465Y236567D02*
X757165D01*
G01X748465Y231267D02*
Y236567D01*
G01X757165Y231267D02*
X748465D01*
G01Y236567D02*
X751065D01*
G01X748465Y231267D02*
Y236567D01*
G01X751065Y231267D02*
X748465D01*
G01X751065Y236567D02*
Y231267D01*
G01X757165D02*
X754565D01*
G01Y236567D02*
X757165D01*
G01X754565Y231267D02*
Y236567D01*
G01X737146Y575276D02*
Y569960D01*
G01X728484D02*
Y575276D01*
G01X737146Y569960D02*
X728484D01*
G01X736645Y570961D02*
G02I-499J0D01*
G01X729272Y568287D02*
Y569960D01*
G01X730847Y568287D02*
X729272D01*
G01X730847Y569960D02*
Y568287D01*
G01X729272Y569960D02*
X730847D01*
G01X734783Y568287D02*
Y569960D01*
G01X736358Y568287D02*
X734783D01*
G01X736358Y569960D02*
Y568287D01*
G01X734783Y569960D02*
X736358D01*
G01X749372Y577618D02*
Y582618D01*
X746458Y577618D01*
Y582618D01*
G01X744462Y577618D02*
Y582618D01*
X742815Y578452D01*
X741168Y582618D01*
Y577618D01*
G01X738919Y581785D02*
X738538Y582285D01*
X738095Y582535D01*
X737588Y582618D01*
X736955Y582452D01*
X736511Y582035D01*
X736385Y581535D01*
X736448Y581035D01*
X736702Y580618D01*
X737968Y579785D01*
X738538Y579202D01*
X738919Y578368D01*
X739045Y577618D01*
X736385D01*
G01X750965Y592768D02*
X759665D01*
G01X750965Y587468D02*
Y592768D01*
G01X759665Y587468D02*
X750965D01*
G01Y592768D02*
X753565D01*
G01X750965Y587468D02*
Y592768D01*
G01X753565Y587468D02*
X750965D01*
G01X753565Y592768D02*
Y587468D01*
G01X728484Y575276D02*
X737146D01*
G01X733602Y576949D02*
Y575276D01*
G01X732028Y576949D02*
X733602D01*
G01X732028Y575276D02*
Y576949D01*
G01X733602Y575276D02*
X732028D01*
G01X748465Y624968D02*
Y630268D01*
G01X757165Y624968D02*
X748465D01*
G01D02*
Y630268D01*
G01X751065Y624968D02*
X748465D01*
G01X751065Y630268D02*
Y624968D01*
G01X757165D02*
X754565D01*
G01D02*
Y630268D01*
G01X750965Y610268D02*
X759665D01*
G01X750965Y604968D02*
Y610268D01*
G01X759665Y604968D02*
X750965D01*
G01Y610268D02*
X753565D01*
G01X750965Y604968D02*
Y610268D01*
G01X753565Y604968D02*
X750965D01*
G01X753565Y610268D02*
Y604968D01*
G01X761631Y632618D02*
Y637618D01*
X760048D01*
X759542Y637368D01*
X759225Y637035D01*
X759098Y636368D01*
X759225Y635702D01*
X759605Y635285D01*
X760048Y635035D01*
X761631D01*
G01X760048D02*
X759098Y632618D01*
G01X756658Y633618D02*
X756278Y633035D01*
X755772Y632702D01*
X755202Y632618D01*
X754695Y632702D01*
X754188Y633118D01*
X753872Y633618D01*
X753808Y634118D01*
X753935Y634701D01*
X754378Y635118D01*
X754822Y635285D01*
X755392D01*
G01X754822D02*
X754442Y635535D01*
X754125Y635951D01*
X753998Y636452D01*
X754125Y636952D01*
X754442Y637368D01*
X755012Y637618D01*
X755581Y637535D01*
X756152Y637202D01*
G01X748465Y630268D02*
X757165D01*
G01X748465D02*
X751065D01*
G01X754565D02*
X757165D01*
G01X749372Y971319D02*
Y976319D01*
X746458Y971319D01*
Y976319D01*
G01X744462Y971319D02*
Y976319D01*
X742815Y972152D01*
X741168Y976319D01*
Y971319D01*
G01X738919Y975485D02*
X738538Y975985D01*
X738095Y976235D01*
X737588Y976319D01*
X736955Y976152D01*
X736511Y975735D01*
X736385Y975236D01*
X736448Y974735D01*
X736702Y974319D01*
X737968Y973485D01*
X738538Y972902D01*
X738919Y972069D01*
X739045Y971319D01*
X736385D01*
G01X737146Y968977D02*
Y963661D01*
G01X728484Y968977D02*
X737146D01*
G01X728484Y963661D02*
Y968977D01*
G01X737146Y963661D02*
X728484D01*
G01X736645Y964661D02*
G02I-499J0D01*
G01X733602Y970650D02*
Y968977D01*
G01X732028Y970650D02*
X733602D01*
G01X732028Y968977D02*
Y970650D01*
G01X733602Y968977D02*
X732028D01*
G01X729272Y961988D02*
Y963661D01*
G01X730847Y961988D02*
X729272D01*
G01X730847Y963661D02*
Y961988D01*
G01X729272Y963661D02*
X730847D01*
G01X734783Y961988D02*
Y963661D01*
G01X736358Y961988D02*
X734783D01*
G01X736358Y963661D02*
Y961988D01*
G01X734783Y963661D02*
X736358D01*
G01X750965Y986469D02*
X759665D01*
G01X750965Y981169D02*
Y986469D01*
G01X759665Y981169D02*
X750965D01*
G01Y986469D02*
X753565D01*
G01X750965Y981169D02*
Y986469D01*
G01X753565Y981169D02*
X750965D01*
G01X753565Y986469D02*
Y981169D01*
G01X750965Y1003969D02*
X759665D01*
G01X750965Y998669D02*
Y1003969D01*
G01X759665Y998669D02*
X750965D01*
G01Y1003969D02*
X753565D01*
G01X750965Y998669D02*
Y1003969D01*
G01X753565Y998669D02*
X750965D01*
G01X753565Y1003969D02*
Y998669D01*
G01X761631Y1026319D02*
Y1031319D01*
X760048D01*
X759542Y1031069D01*
X759225Y1030735D01*
X759098Y1030069D01*
X759225Y1029402D01*
X759605Y1028985D01*
X760048Y1028735D01*
X761631D01*
G01X760048D02*
X759098Y1026319D01*
G01X756658Y1027319D02*
X756278Y1026735D01*
X755772Y1026402D01*
X755202Y1026319D01*
X754695Y1026402D01*
X754188Y1026819D01*
X753872Y1027319D01*
X753808Y1027819D01*
X753935Y1028402D01*
X754378Y1028819D01*
X754822Y1028985D01*
X755392D01*
G01X754822D02*
X754442Y1029235D01*
X754125Y1029652D01*
X753998Y1030152D01*
X754125Y1030652D01*
X754442Y1031069D01*
X755012Y1031319D01*
X755581Y1031235D01*
X756152Y1030902D01*
G01X748465Y1023969D02*
X757165D01*
G01X748465Y1018669D02*
Y1023969D01*
G01X757165Y1018669D02*
X748465D01*
G01Y1023969D02*
X751065D01*
G01X748465Y1018669D02*
Y1023969D01*
G01X751065Y1018669D02*
X748465D01*
G01X751065Y1023969D02*
Y1018669D01*
G01X757165D02*
X754565D01*
G01Y1023969D02*
X757165D01*
G01X754565Y1018669D02*
Y1023969D01*
G01X749372Y1365020D02*
Y1370020D01*
X746458Y1365020D01*
Y1370020D01*
G01X744462Y1365020D02*
Y1370020D01*
X742815Y1365853D01*
X741168Y1370020D01*
Y1365020D01*
G01X738919Y1369186D02*
X738538Y1369686D01*
X738095Y1369936D01*
X737588Y1370020D01*
X736955Y1369853D01*
X736511Y1369436D01*
X736385Y1368937D01*
X736448Y1368436D01*
X736702Y1368020D01*
X737968Y1367186D01*
X738538Y1366603D01*
X738919Y1365770D01*
X739045Y1365020D01*
X736385D01*
G01X750965Y1380170D02*
X759665D01*
G01X750965Y1374870D02*
Y1380170D01*
G01X759665Y1374870D02*
X750965D01*
G01Y1380170D02*
X753565D01*
G01X750965Y1374870D02*
Y1380170D01*
G01X753565Y1374870D02*
X750965D01*
G01X753565Y1380170D02*
Y1374870D01*
G01X737146Y1362678D02*
Y1357362D01*
G01X728484Y1362678D02*
X737146D01*
G01X728484Y1357362D02*
Y1362678D01*
G01X737146Y1357362D02*
X728484D01*
G01X736645Y1358362D02*
G02I-499J0D01*
G01X733602Y1364351D02*
Y1362678D01*
G01X732028Y1364351D02*
X733602D01*
G01X732028Y1362678D02*
Y1364351D01*
G01X733602Y1362678D02*
X732028D01*
G01X729272Y1355689D02*
Y1357362D01*
G01X730847Y1355689D02*
X729272D01*
G01X730847Y1357362D02*
Y1355689D01*
G01X729272Y1357362D02*
X730847D01*
G01X734783Y1355689D02*
Y1357362D01*
G01X736358Y1355689D02*
X734783D01*
G01X736358Y1357362D02*
Y1355689D01*
G01X734783Y1357362D02*
X736358D01*
G01X750965Y1397670D02*
X759665D01*
G01X750965Y1392370D02*
Y1397670D01*
G01X759665Y1392370D02*
X750965D01*
G01Y1397670D02*
X753565D01*
G01X750965Y1392370D02*
Y1397670D01*
G01X753565Y1392370D02*
X750965D01*
G01X753565Y1397670D02*
Y1392370D01*
G01X761631Y1420020D02*
Y1425020D01*
X760048D01*
X759542Y1424770D01*
X759225Y1424436D01*
X759098Y1423770D01*
X759225Y1423103D01*
X759605Y1422686D01*
X760048Y1422436D01*
X761631D01*
G01X760048D02*
X759098Y1420020D01*
G01X756658Y1421020D02*
X756278Y1420436D01*
X755772Y1420103D01*
X755202Y1420020D01*
X754695Y1420103D01*
X754188Y1420520D01*
X753872Y1421020D01*
X753808Y1421520D01*
X753935Y1422103D01*
X754378Y1422520D01*
X754822Y1422686D01*
X755392D01*
G01X754822D02*
X754442Y1422936D01*
X754125Y1423353D01*
X753998Y1423853D01*
X754125Y1424353D01*
X754442Y1424770D01*
X755012Y1425020D01*
X755581Y1424936D01*
X756152Y1424603D01*
G01X748465Y1417670D02*
X757165D01*
G01X748465Y1412370D02*
Y1417670D01*
G01X757165Y1412370D02*
X748465D01*
G01Y1417670D02*
X751065D01*
G01X748465Y1412370D02*
Y1417670D01*
G01X751065Y1412370D02*
X748465D01*
G01X751065Y1417670D02*
Y1412370D01*
G01X757165D02*
X754565D01*
G01Y1417670D02*
X757165D01*
G01X754565Y1412370D02*
Y1417670D01*
G01X776872Y183917D02*
Y188917D01*
X773958Y183917D01*
Y188917D01*
G01X771962Y183917D02*
Y188917D01*
X770315Y184751D01*
X768668Y188917D01*
Y183917D01*
G01X766608Y184917D02*
X766228Y184334D01*
X765722Y184001D01*
X765152Y183917D01*
X764645Y184001D01*
X764138Y184417D01*
X763822Y184917D01*
X763758Y185417D01*
X763885Y186000D01*
X764328Y186417D01*
X764772Y186584D01*
X765342D01*
G01X764772D02*
X764392Y186834D01*
X764075Y187250D01*
X763948Y187751D01*
X764075Y188251D01*
X764392Y188667D01*
X764962Y188917D01*
X765531Y188834D01*
X766102Y188501D01*
G01X759665Y199067D02*
Y193767D01*
G01D02*
X757065D01*
G01X759665Y199067D02*
Y193767D01*
G01X757065D02*
Y199067D01*
G01X764646Y181575D02*
Y176259D01*
G01X755984Y181575D02*
X764646D01*
G01X755984Y176259D02*
Y181575D01*
G01X764646Y176259D02*
X755984D01*
G01X764145Y177260D02*
G02I-499J0D01*
G01X761102Y183248D02*
Y181575D01*
G01X759528Y183248D02*
X761102D01*
G01X759528Y181575D02*
Y183248D01*
G01X761102Y181575D02*
X759528D01*
G01X756772Y174586D02*
Y176259D01*
G01X758347Y174586D02*
X756772D01*
G01X758347Y176259D02*
Y174586D01*
G01X756772Y176259D02*
X758347D01*
G01X762283Y174586D02*
Y176259D01*
G01X763858Y174586D02*
X762283D01*
G01X763858Y176259D02*
Y174586D01*
G01X762283Y176259D02*
X763858D01*
G01X780984Y181575D02*
X789646D01*
G01X780984Y176259D02*
Y181575D01*
G01X789646Y176259D02*
X780984D01*
G01X781772Y174586D02*
Y176259D01*
G01X783347Y174586D02*
X781772D01*
G01Y176259D02*
X783347D01*
G01X766631Y201417D02*
Y206417D01*
X765048D01*
X764542Y206167D01*
X764225Y205834D01*
X764098Y205167D01*
X764225Y204501D01*
X764605Y204084D01*
X765048Y203834D01*
X766631D01*
G01X765048D02*
X764098Y201417D01*
G01X760392D02*
X760265Y202500D01*
X760075Y203417D01*
X759822Y204251D01*
X759505Y205167D01*
X758998Y206417D01*
X761531D01*
G01X766631Y218917D02*
Y223917D01*
X765048D01*
X764542Y223667D01*
X764225Y223334D01*
X764098Y222667D01*
X764225Y222001D01*
X764605Y221584D01*
X765048Y221334D01*
X766631D01*
G01X765048D02*
X764098Y218917D01*
G01X761658Y219667D02*
X761278Y219250D01*
X760835Y219001D01*
X760265Y218917D01*
X759695Y219084D01*
X759252Y219417D01*
X758935Y220000D01*
X758872Y220667D01*
X758998Y221334D01*
X759315Y221751D01*
X759758Y222084D01*
X760202Y222167D01*
X760645Y222084D01*
X761215Y221751D01*
X761025Y223917D01*
X759315D01*
G01X757065Y199067D02*
X759665D01*
G01Y216567D02*
Y211267D01*
G01D02*
X757065D01*
G01X759665Y216567D02*
Y211267D01*
G01X757065Y216567D02*
X759665D01*
G01X757065Y211267D02*
Y216567D01*
G01X757165Y236567D02*
Y231267D01*
G01Y236567D02*
Y231267D01*
G01X764646Y575276D02*
Y569960D01*
G01X755984D02*
Y575276D01*
G01X764646Y569960D02*
X755984D01*
G01X764145Y570961D02*
G02I-499J0D01*
G01X756772Y568287D02*
Y569960D01*
G01X758347Y568287D02*
X756772D01*
G01X758347Y569960D02*
Y568287D01*
G01X756772Y569960D02*
X758347D01*
G01X762283Y568287D02*
Y569960D01*
G01X763858Y568287D02*
X762283D01*
G01X763858Y569960D02*
Y568287D01*
G01X762283Y569960D02*
X763858D01*
G01X780984D02*
Y575276D01*
G01X789646Y569960D02*
X780984D01*
G01X781772Y568287D02*
Y569960D01*
G01X783347Y568287D02*
X781772D01*
G01Y569960D02*
X783347D01*
G01X776872Y577618D02*
Y582618D01*
X773958Y577618D01*
Y582618D01*
G01X771962Y577618D02*
Y582618D01*
X770315Y578452D01*
X768668Y582618D01*
Y577618D01*
G01X766608Y578618D02*
X766228Y578035D01*
X765722Y577702D01*
X765152Y577618D01*
X764645Y577702D01*
X764138Y578118D01*
X763822Y578618D01*
X763758Y579118D01*
X763885Y579701D01*
X764328Y580118D01*
X764772Y580285D01*
X765342D01*
G01X764772D02*
X764392Y580535D01*
X764075Y580951D01*
X763948Y581452D01*
X764075Y581952D01*
X764392Y582368D01*
X764962Y582618D01*
X765531Y582535D01*
X766102Y582202D01*
G01X766631Y595118D02*
Y600118D01*
X765048D01*
X764542Y599868D01*
X764225Y599535D01*
X764098Y598868D01*
X764225Y598202D01*
X764605Y597785D01*
X765048Y597535D01*
X766631D01*
G01X765048D02*
X764098Y595118D01*
G01X760392D02*
X760265Y596201D01*
X760075Y597118D01*
X759822Y597952D01*
X759505Y598868D01*
X758998Y600118D01*
X761531D01*
G01X759665Y592768D02*
Y587468D01*
G01D02*
X757065D01*
G01X759665Y592768D02*
Y587468D01*
G01X757065Y592768D02*
X759665D01*
G01X757065Y587468D02*
Y592768D01*
G01X755984Y575276D02*
X764646D01*
G01X761102Y576949D02*
Y575276D01*
G01X759528Y576949D02*
X761102D01*
G01X759528Y575276D02*
Y576949D01*
G01X761102Y575276D02*
X759528D01*
G01X780984D02*
X789646D01*
G01X766631Y612618D02*
Y617618D01*
X765048D01*
X764542Y617368D01*
X764225Y617035D01*
X764098Y616368D01*
X764225Y615702D01*
X764605Y615285D01*
X765048Y615035D01*
X766631D01*
G01X765048D02*
X764098Y612618D01*
G01X761658Y613368D02*
X761278Y612951D01*
X760835Y612702D01*
X760265Y612618D01*
X759695Y612785D01*
X759252Y613118D01*
X758935Y613701D01*
X758872Y614368D01*
X758998Y615035D01*
X759315Y615452D01*
X759758Y615785D01*
X760202Y615868D01*
X760645Y615785D01*
X761215Y615452D01*
X761025Y617618D01*
X759315D01*
G01X757165Y630268D02*
Y624968D01*
G01Y630268D02*
Y624968D01*
G01X759665Y610268D02*
Y604968D01*
G01D02*
X757065D01*
G01X759665Y610268D02*
Y604968D01*
G01X757065Y610268D02*
X759665D01*
G01X757065Y604968D02*
Y610268D01*
G01X776872Y971319D02*
Y976319D01*
X773958Y971319D01*
Y976319D01*
G01X771962Y971319D02*
Y976319D01*
X770315Y972152D01*
X768668Y976319D01*
Y971319D01*
G01X766608Y972319D02*
X766228Y971735D01*
X765722Y971402D01*
X765152Y971319D01*
X764645Y971402D01*
X764138Y971819D01*
X763822Y972319D01*
X763758Y972819D01*
X763885Y973402D01*
X764328Y973819D01*
X764772Y973985D01*
X765342D01*
G01X764772D02*
X764392Y974235D01*
X764075Y974652D01*
X763948Y975152D01*
X764075Y975652D01*
X764392Y976069D01*
X764962Y976319D01*
X765531Y976235D01*
X766102Y975902D01*
G01X764646Y968977D02*
Y963661D01*
G01X755984Y968977D02*
X764646D01*
G01X755984Y963661D02*
Y968977D01*
G01X764646Y963661D02*
X755984D01*
G01X764145Y964661D02*
G02I-499J0D01*
G01X761102Y970650D02*
Y968977D01*
G01X759528Y970650D02*
X761102D01*
G01X759528Y968977D02*
Y970650D01*
G01X761102Y968977D02*
X759528D01*
G01X756772Y961988D02*
Y963661D01*
G01X758347Y961988D02*
X756772D01*
G01X758347Y963661D02*
Y961988D01*
G01X756772Y963661D02*
X758347D01*
G01X762283Y961988D02*
Y963661D01*
G01X763858Y961988D02*
X762283D01*
G01X763858Y963661D02*
Y961988D01*
G01X762283Y963661D02*
X763858D01*
G01X780984Y968977D02*
X789646D01*
G01X780984Y963661D02*
Y968977D01*
G01X789646Y963661D02*
X780984D01*
G01X781772Y961988D02*
Y963661D01*
G01X783347Y961988D02*
X781772D01*
G01Y963661D02*
X783347D01*
G01X766631Y988819D02*
Y993819D01*
X765048D01*
X764542Y993569D01*
X764225Y993235D01*
X764098Y992569D01*
X764225Y991902D01*
X764605Y991485D01*
X765048Y991235D01*
X766631D01*
G01X765048D02*
X764098Y988819D01*
G01X760392D02*
X760265Y989902D01*
X760075Y990819D01*
X759822Y991652D01*
X759505Y992569D01*
X758998Y993819D01*
X761531D01*
G01X766631Y1006319D02*
Y1011319D01*
X765048D01*
X764542Y1011069D01*
X764225Y1010735D01*
X764098Y1010069D01*
X764225Y1009402D01*
X764605Y1008985D01*
X765048Y1008735D01*
X766631D01*
G01X765048D02*
X764098Y1006319D01*
G01X761658Y1007069D02*
X761278Y1006652D01*
X760835Y1006402D01*
X760265Y1006319D01*
X759695Y1006485D01*
X759252Y1006819D01*
X758935Y1007402D01*
X758872Y1008069D01*
X758998Y1008735D01*
X759315Y1009152D01*
X759758Y1009485D01*
X760202Y1009569D01*
X760645Y1009485D01*
X761215Y1009152D01*
X761025Y1011319D01*
X759315D01*
G01X759665Y986469D02*
Y981169D01*
G01D02*
X757065D01*
G01X759665Y986469D02*
Y981169D01*
G01X757065Y986469D02*
X759665D01*
G01X757065Y981169D02*
Y986469D01*
G01X759665Y1003969D02*
Y998669D01*
G01D02*
X757065D01*
G01X759665Y1003969D02*
Y998669D01*
G01X757065Y1003969D02*
X759665D01*
G01X757065Y998669D02*
Y1003969D01*
G01X757165Y1023969D02*
Y1018669D01*
G01Y1023969D02*
Y1018669D01*
G01X776872Y1365020D02*
Y1370020D01*
X773958Y1365020D01*
Y1370020D01*
G01X771962Y1365020D02*
Y1370020D01*
X770315Y1365853D01*
X768668Y1370020D01*
Y1365020D01*
G01X766608Y1366020D02*
X766228Y1365436D01*
X765722Y1365103D01*
X765152Y1365020D01*
X764645Y1365103D01*
X764138Y1365520D01*
X763822Y1366020D01*
X763758Y1366520D01*
X763885Y1367103D01*
X764328Y1367520D01*
X764772Y1367686D01*
X765342D01*
G01X764772D02*
X764392Y1367936D01*
X764075Y1368353D01*
X763948Y1368853D01*
X764075Y1369353D01*
X764392Y1369770D01*
X764962Y1370020D01*
X765531Y1369936D01*
X766102Y1369603D01*
G01X766631Y1382520D02*
Y1387520D01*
X765048D01*
X764542Y1387270D01*
X764225Y1386936D01*
X764098Y1386270D01*
X764225Y1385603D01*
X764605Y1385186D01*
X765048Y1384936D01*
X766631D01*
G01X765048D02*
X764098Y1382520D01*
G01X760392D02*
X760265Y1383603D01*
X760075Y1384520D01*
X759822Y1385353D01*
X759505Y1386270D01*
X758998Y1387520D01*
X761531D01*
G01X759665Y1380170D02*
Y1374870D01*
G01D02*
X757065D01*
G01X759665Y1380170D02*
Y1374870D01*
G01X757065Y1380170D02*
X759665D01*
G01X757065Y1374870D02*
Y1380170D01*
G01X764646Y1362678D02*
Y1357362D01*
G01X755984Y1362678D02*
X764646D01*
G01X755984Y1357362D02*
Y1362678D01*
G01X764646Y1357362D02*
X755984D01*
G01X764145Y1358362D02*
G02I-499J0D01*
G01X761102Y1364351D02*
Y1362678D01*
G01X759528Y1364351D02*
X761102D01*
G01X759528Y1362678D02*
Y1364351D01*
G01X761102Y1362678D02*
X759528D01*
G01X756772Y1355689D02*
Y1357362D01*
G01X758347Y1355689D02*
X756772D01*
G01X758347Y1357362D02*
Y1355689D01*
G01X756772Y1357362D02*
X758347D01*
G01X762283Y1355689D02*
Y1357362D01*
G01X763858Y1355689D02*
X762283D01*
G01X763858Y1357362D02*
Y1355689D01*
G01X762283Y1357362D02*
X763858D01*
G01X780984Y1362678D02*
X789646D01*
G01X780984Y1357362D02*
Y1362678D01*
G01X789646Y1357362D02*
X780984D01*
G01X781772Y1355689D02*
Y1357362D01*
G01X783347Y1355689D02*
X781772D01*
G01Y1357362D02*
X783347D01*
G01X766631Y1400020D02*
Y1405020D01*
X765048D01*
X764542Y1404770D01*
X764225Y1404436D01*
X764098Y1403770D01*
X764225Y1403103D01*
X764605Y1402686D01*
X765048Y1402436D01*
X766631D01*
G01X765048D02*
X764098Y1400020D01*
G01X761658Y1400770D02*
X761278Y1400353D01*
X760835Y1400103D01*
X760265Y1400020D01*
X759695Y1400186D01*
X759252Y1400520D01*
X758935Y1401103D01*
X758872Y1401770D01*
X758998Y1402436D01*
X759315Y1402853D01*
X759758Y1403186D01*
X760202Y1403270D01*
X760645Y1403186D01*
X761215Y1402853D01*
X761025Y1405020D01*
X759315D01*
G01X759665Y1397670D02*
Y1392370D01*
G01D02*
X757065D01*
G01X759665Y1397670D02*
Y1392370D01*
G01X757065Y1397670D02*
X759665D01*
G01X757065Y1392370D02*
Y1397670D01*
G01X757165Y1417670D02*
Y1412370D01*
G01Y1417670D02*
Y1412370D01*
G01X801872Y183917D02*
Y188917D01*
X798958Y183917D01*
Y188917D01*
G01X796962Y183917D02*
Y188917D01*
X795315Y184751D01*
X793668Y188917D01*
Y183917D01*
G01X789455D02*
Y188917D01*
X791798Y185334D01*
X788631D01*
G01X789646Y181575D02*
Y176259D01*
G01X789145Y177260D02*
G02I-499J0D01*
G01X786102Y183248D02*
Y181575D01*
G01X784528Y183248D02*
X786102D01*
G01X784528Y181575D02*
Y183248D01*
G01X786102Y181575D02*
X784528D01*
G01X783347Y176259D02*
Y174586D01*
G01X787283D02*
Y176259D01*
G01X788858Y174586D02*
X787283D01*
G01X788858Y176259D02*
Y174586D01*
G01X787283Y176259D02*
X788858D01*
G01X791265Y198317D02*
Y194517D01*
G01X784365Y198317D02*
X791265D01*
G01X784365Y194517D02*
Y198317D01*
G01X791265Y194517D02*
X784365D01*
G01Y198317D02*
X786365D01*
G01X784365Y194517D02*
Y198317D01*
G01X786365Y194517D02*
X784365D01*
G01X786365Y198317D02*
Y194517D01*
G01X791265D02*
X789265D01*
G01X791265Y198317D02*
Y194517D01*
G01X789265Y198317D02*
X791265D01*
G01X789265Y194517D02*
Y198317D01*
G01X796472Y206001D02*
X796852Y206251D01*
X797295Y206417D01*
X797802D01*
X798372Y206167D01*
X798815Y205751D01*
X799131Y205251D01*
X799385Y204417D01*
X799448Y203667D01*
X799322Y202917D01*
X799131Y202417D01*
X798752Y201917D01*
X798308Y201584D01*
X797865Y201417D01*
X797422D01*
X796978Y201584D01*
X796598Y201834D01*
X796281Y202167D01*
G01X792765Y201417D02*
Y206417D01*
X793525Y205417D01*
G01Y201417D02*
X792005D01*
G01X796472Y226001D02*
X796852Y226251D01*
X797295Y226417D01*
X797802D01*
X798372Y226167D01*
X798815Y225751D01*
X799131Y225251D01*
X799385Y224417D01*
X799448Y223667D01*
X799322Y222917D01*
X799131Y222417D01*
X798752Y221917D01*
X798308Y221584D01*
X797865Y221417D01*
X797422D01*
X796978Y221584D01*
X796598Y221834D01*
X796281Y222167D01*
G01X793969Y225584D02*
X793588Y226084D01*
X793145Y226334D01*
X792638Y226417D01*
X792005Y226251D01*
X791561Y225834D01*
X791435Y225334D01*
X791498Y224834D01*
X791752Y224417D01*
X793018Y223584D01*
X793588Y223001D01*
X793969Y222167D01*
X794095Y221417D01*
X791435D01*
G01X791265Y218317D02*
Y214517D01*
G01X784365Y218317D02*
X791265D01*
G01X784365Y214517D02*
Y218317D01*
G01X791265Y214517D02*
X784365D01*
G01Y218317D02*
X786365D01*
G01X784365Y214517D02*
Y218317D01*
G01X786365Y214517D02*
X784365D01*
G01X786365Y218317D02*
Y214517D01*
G01X791265D02*
X789265D01*
G01X791265Y218317D02*
Y214517D01*
G01X789265Y218317D02*
X791265D01*
G01X789265Y214517D02*
Y218317D01*
G01X796472Y243501D02*
X796852Y243751D01*
X797295Y243917D01*
X797802D01*
X798372Y243667D01*
X798815Y243251D01*
X799131Y242751D01*
X799385Y241917D01*
X799448Y241167D01*
X799322Y240417D01*
X799131Y239917D01*
X798752Y239417D01*
X798308Y239084D01*
X797865Y238917D01*
X797422D01*
X796978Y239084D01*
X796598Y239334D01*
X796281Y239667D01*
G01X794158Y239917D02*
X793778Y239334D01*
X793272Y239001D01*
X792702Y238917D01*
X792195Y239001D01*
X791688Y239417D01*
X791372Y239917D01*
X791308Y240417D01*
X791435Y241000D01*
X791878Y241417D01*
X792322Y241584D01*
X792892D01*
G01X792322D02*
X791942Y241834D01*
X791625Y242250D01*
X791498Y242751D01*
X791625Y243251D01*
X791942Y243667D01*
X792512Y243917D01*
X793081Y243834D01*
X793652Y243501D01*
G01X791265Y235817D02*
Y232017D01*
G01X784365Y235817D02*
X791265D01*
G01X784365Y232017D02*
Y235817D01*
G01X791265Y232017D02*
X784365D01*
G01Y235817D02*
X786365D01*
G01X784365Y232017D02*
Y235817D01*
G01X786365Y232017D02*
X784365D01*
G01X786365Y235817D02*
Y232017D01*
G01X791265D02*
X789265D01*
G01X791265Y235817D02*
Y232017D01*
G01X789265Y235817D02*
X791265D01*
G01X789265Y232017D02*
Y235817D01*
G01X791265Y253317D02*
Y249517D01*
G01X784365D02*
Y253317D01*
G01X791265Y249517D02*
X784365D01*
G01D02*
Y253317D01*
G01X786365Y249517D02*
X784365D01*
G01X786365Y253317D02*
Y249517D01*
G01X791265D02*
X789265D01*
G01X791265Y253317D02*
Y249517D01*
G01X789265D02*
Y253317D01*
G01X796472Y261001D02*
X796852Y261251D01*
X797295Y261417D01*
X797802D01*
X798372Y261167D01*
X798815Y260751D01*
X799131Y260251D01*
X799385Y259417D01*
X799448Y258667D01*
X799322Y257917D01*
X799131Y257417D01*
X798752Y256917D01*
X798308Y256584D01*
X797865Y256417D01*
X797422D01*
X796978Y256584D01*
X796598Y256834D01*
X796281Y257167D01*
G01X792005Y256417D02*
Y261417D01*
X794348Y257834D01*
X791181D01*
G01X784365Y253317D02*
X791265D01*
G01X784365D02*
X786365D01*
G01X789265D02*
X791265D01*
G01X789646Y575276D02*
Y569960D01*
G01X789145Y570961D02*
G02I-499J0D01*
G01X783347Y569960D02*
Y568287D01*
G01X787283D02*
Y569960D01*
G01X788858Y568287D02*
X787283D01*
G01X788858Y569960D02*
Y568287D01*
G01X787283Y569960D02*
X788858D01*
G01X796472Y599702D02*
X796852Y599952D01*
X797295Y600118D01*
X797802D01*
X798372Y599868D01*
X798815Y599452D01*
X799131Y598952D01*
X799385Y598118D01*
X799448Y597368D01*
X799322Y596618D01*
X799131Y596118D01*
X798752Y595618D01*
X798308Y595285D01*
X797865Y595118D01*
X797422D01*
X796978Y595285D01*
X796598Y595535D01*
X796281Y595868D01*
G01X792765Y595118D02*
Y600118D01*
X793525Y599118D01*
G01Y595118D02*
X792005D01*
G01X801872Y577618D02*
Y582618D01*
X798958Y577618D01*
Y582618D01*
G01X796962Y577618D02*
Y582618D01*
X795315Y578452D01*
X793668Y582618D01*
Y577618D01*
G01X789455D02*
Y582618D01*
X791798Y579035D01*
X788631D01*
G01X786102Y576949D02*
Y575276D01*
G01X784528Y576949D02*
X786102D01*
G01X784528Y575276D02*
Y576949D01*
G01X786102Y575276D02*
X784528D01*
G01X791265Y592018D02*
Y588218D01*
G01X784365Y592018D02*
X791265D01*
G01X784365Y588218D02*
Y592018D01*
G01X791265Y588218D02*
X784365D01*
G01Y592018D02*
X786365D01*
G01X784365Y588218D02*
Y592018D01*
G01X786365Y588218D02*
X784365D01*
G01X786365Y592018D02*
Y588218D01*
G01X791265D02*
X789265D01*
G01X791265Y592018D02*
Y588218D01*
G01X789265Y592018D02*
X791265D01*
G01X789265Y588218D02*
Y592018D01*
G01X796472Y619702D02*
X796852Y619952D01*
X797295Y620118D01*
X797802D01*
X798372Y619868D01*
X798815Y619452D01*
X799131Y618952D01*
X799385Y618118D01*
X799448Y617368D01*
X799322Y616618D01*
X799131Y616118D01*
X798752Y615618D01*
X798308Y615285D01*
X797865Y615118D01*
X797422D01*
X796978Y615285D01*
X796598Y615535D01*
X796281Y615868D01*
G01X793969Y619285D02*
X793588Y619785D01*
X793145Y620035D01*
X792638Y620118D01*
X792005Y619952D01*
X791561Y619535D01*
X791435Y619035D01*
X791498Y618535D01*
X791752Y618118D01*
X793018Y617285D01*
X793588Y616702D01*
X793969Y615868D01*
X794095Y615118D01*
X791435D01*
G01X791265Y612018D02*
Y608218D01*
G01X784365Y612018D02*
X791265D01*
G01X784365Y608218D02*
Y612018D01*
G01X791265Y608218D02*
X784365D01*
G01Y612018D02*
X786365D01*
G01X784365Y608218D02*
Y612018D01*
G01X786365Y608218D02*
X784365D01*
G01X786365Y612018D02*
Y608218D01*
G01X791265D02*
X789265D01*
G01X791265Y612018D02*
Y608218D01*
G01X789265Y612018D02*
X791265D01*
G01X789265Y608218D02*
Y612018D01*
G01X791265Y629518D02*
Y625718D01*
G01X784365D02*
Y629518D01*
G01X791265Y625718D02*
X784365D01*
G01D02*
Y629518D01*
G01X786365Y625718D02*
X784365D01*
G01X786365Y629518D02*
Y625718D01*
G01X791265D02*
X789265D01*
G01X791265Y629518D02*
Y625718D01*
G01X789265D02*
Y629518D01*
G01X796472Y637202D02*
X796852Y637452D01*
X797295Y637618D01*
X797802D01*
X798372Y637368D01*
X798815Y636952D01*
X799131Y636452D01*
X799385Y635618D01*
X799448Y634868D01*
X799322Y634118D01*
X799131Y633618D01*
X798752Y633118D01*
X798308Y632785D01*
X797865Y632618D01*
X797422D01*
X796978Y632785D01*
X796598Y633035D01*
X796281Y633368D01*
G01X794158Y633618D02*
X793778Y633035D01*
X793272Y632702D01*
X792702Y632618D01*
X792195Y632702D01*
X791688Y633118D01*
X791372Y633618D01*
X791308Y634118D01*
X791435Y634701D01*
X791878Y635118D01*
X792322Y635285D01*
X792892D01*
G01X792322D02*
X791942Y635535D01*
X791625Y635951D01*
X791498Y636452D01*
X791625Y636952D01*
X791942Y637368D01*
X792512Y637618D01*
X793081Y637535D01*
X793652Y637202D01*
G01X796472Y654702D02*
X796852Y654952D01*
X797295Y655118D01*
X797802D01*
X798372Y654868D01*
X798815Y654452D01*
X799131Y653952D01*
X799385Y653118D01*
X799448Y652368D01*
X799322Y651618D01*
X799131Y651118D01*
X798752Y650618D01*
X798308Y650285D01*
X797865Y650118D01*
X797422D01*
X796978Y650285D01*
X796598Y650535D01*
X796281Y650868D01*
G01X792005Y650118D02*
Y655118D01*
X794348Y651535D01*
X791181D01*
G01X784365Y629518D02*
X791265D01*
G01X784365D02*
X786365D01*
G01X789265D02*
X791265D01*
G01Y647018D02*
Y643218D01*
G01X784365Y647018D02*
X791265D01*
G01X784365Y643218D02*
Y647018D01*
G01X791265Y643218D02*
X784365D01*
G01Y647018D02*
X786365D01*
G01X784365Y643218D02*
Y647018D01*
G01X786365Y643218D02*
X784365D01*
G01X786365Y647018D02*
Y643218D01*
G01X791265D02*
X789265D01*
G01X791265Y647018D02*
Y643218D01*
G01X789265Y647018D02*
X791265D01*
G01X789265Y643218D02*
Y647018D01*
G01X801872Y971319D02*
Y976319D01*
X798958Y971319D01*
Y976319D01*
G01X796962Y971319D02*
Y976319D01*
X795315Y972152D01*
X793668Y976319D01*
Y971319D01*
G01X789455D02*
Y976319D01*
X791798Y972735D01*
X788631D01*
G01X789646Y968977D02*
Y963661D01*
G01X789145Y964661D02*
G02I-499J0D01*
G01X786102Y970650D02*
Y968977D01*
G01X784528Y970650D02*
X786102D01*
G01X784528Y968977D02*
Y970650D01*
G01X786102Y968977D02*
X784528D01*
G01X783347Y963661D02*
Y961988D01*
G01X787283D02*
Y963661D01*
G01X788858Y961988D02*
X787283D01*
G01X788858Y963661D02*
Y961988D01*
G01X787283Y963661D02*
X788858D01*
G01X796472Y993402D02*
X796852Y993652D01*
X797295Y993819D01*
X797802D01*
X798372Y993569D01*
X798815Y993152D01*
X799131Y992652D01*
X799385Y991819D01*
X799448Y991069D01*
X799322Y990319D01*
X799131Y989819D01*
X798752Y989319D01*
X798308Y988985D01*
X797865Y988819D01*
X797422D01*
X796978Y988985D01*
X796598Y989235D01*
X796281Y989569D01*
G01X792765Y988819D02*
Y993819D01*
X793525Y992819D01*
G01Y988819D02*
X792005D01*
G01X791265Y1005719D02*
Y1001919D01*
G01X784365D02*
Y1005719D01*
G01X791265Y1001919D02*
X784365D01*
G01D02*
Y1005719D01*
G01X786365Y1001919D02*
X784365D01*
G01X786365Y1005719D02*
Y1001919D01*
G01X791265D02*
X789265D01*
G01X791265Y1005719D02*
Y1001919D01*
G01X789265D02*
Y1005719D01*
G01X791265Y985719D02*
Y981919D01*
G01X784365Y985719D02*
X791265D01*
G01X784365Y981919D02*
Y985719D01*
G01X791265Y981919D02*
X784365D01*
G01Y985719D02*
X786365D01*
G01X784365Y981919D02*
Y985719D01*
G01X786365Y981919D02*
X784365D01*
G01X786365Y985719D02*
Y981919D01*
G01X791265D02*
X789265D01*
G01X791265Y985719D02*
Y981919D01*
G01X789265Y985719D02*
X791265D01*
G01X789265Y981919D02*
Y985719D01*
G01X796472Y1013402D02*
X796852Y1013652D01*
X797295Y1013819D01*
X797802D01*
X798372Y1013569D01*
X798815Y1013152D01*
X799131Y1012652D01*
X799385Y1011819D01*
X799448Y1011069D01*
X799322Y1010319D01*
X799131Y1009819D01*
X798752Y1009319D01*
X798308Y1008985D01*
X797865Y1008819D01*
X797422D01*
X796978Y1008985D01*
X796598Y1009235D01*
X796281Y1009569D01*
G01X793969Y1012985D02*
X793588Y1013485D01*
X793145Y1013735D01*
X792638Y1013819D01*
X792005Y1013652D01*
X791561Y1013235D01*
X791435Y1012736D01*
X791498Y1012235D01*
X791752Y1011819D01*
X793018Y1010985D01*
X793588Y1010402D01*
X793969Y1009569D01*
X794095Y1008819D01*
X791435D01*
G01X796472Y1030902D02*
X796852Y1031152D01*
X797295Y1031319D01*
X797802D01*
X798372Y1031069D01*
X798815Y1030652D01*
X799131Y1030152D01*
X799385Y1029319D01*
X799448Y1028569D01*
X799322Y1027819D01*
X799131Y1027319D01*
X798752Y1026819D01*
X798308Y1026485D01*
X797865Y1026319D01*
X797422D01*
X796978Y1026485D01*
X796598Y1026735D01*
X796281Y1027069D01*
G01X794158Y1027319D02*
X793778Y1026735D01*
X793272Y1026402D01*
X792702Y1026319D01*
X792195Y1026402D01*
X791688Y1026819D01*
X791372Y1027319D01*
X791308Y1027819D01*
X791435Y1028402D01*
X791878Y1028819D01*
X792322Y1028985D01*
X792892D01*
G01X792322D02*
X791942Y1029235D01*
X791625Y1029652D01*
X791498Y1030152D01*
X791625Y1030652D01*
X791942Y1031069D01*
X792512Y1031319D01*
X793081Y1031235D01*
X793652Y1030902D01*
G01X784365Y1005719D02*
X791265D01*
G01X784365D02*
X786365D01*
G01X789265D02*
X791265D01*
G01Y1023219D02*
Y1019419D01*
G01X784365Y1023219D02*
X791265D01*
G01X784365Y1019419D02*
Y1023219D01*
G01X791265Y1019419D02*
X784365D01*
G01Y1023219D02*
X786365D01*
G01X784365Y1019419D02*
Y1023219D01*
G01X786365Y1019419D02*
X784365D01*
G01X786365Y1023219D02*
Y1019419D01*
G01X791265D02*
X789265D01*
G01X791265Y1023219D02*
Y1019419D01*
G01X789265Y1023219D02*
X791265D01*
G01X789265Y1019419D02*
Y1023219D01*
G01X796472Y1048402D02*
X796852Y1048652D01*
X797295Y1048819D01*
X797802D01*
X798372Y1048569D01*
X798815Y1048152D01*
X799131Y1047652D01*
X799385Y1046819D01*
X799448Y1046069D01*
X799322Y1045319D01*
X799131Y1044819D01*
X798752Y1044319D01*
X798308Y1043985D01*
X797865Y1043819D01*
X797422D01*
X796978Y1043985D01*
X796598Y1044235D01*
X796281Y1044569D01*
G01X792005Y1043819D02*
Y1048819D01*
X794348Y1045235D01*
X791181D01*
G01X791265Y1040719D02*
Y1036919D01*
G01X784365Y1040719D02*
X791265D01*
G01X784365Y1036919D02*
Y1040719D01*
G01X791265Y1036919D02*
X784365D01*
G01Y1040719D02*
X786365D01*
G01X784365Y1036919D02*
Y1040719D01*
G01X786365Y1036919D02*
X784365D01*
G01X786365Y1040719D02*
Y1036919D01*
G01X791265D02*
X789265D01*
G01X791265Y1040719D02*
Y1036919D01*
G01X789265Y1040719D02*
X791265D01*
G01X789265Y1036919D02*
Y1040719D01*
G01X796472Y1387103D02*
X796852Y1387353D01*
X797295Y1387520D01*
X797802D01*
X798372Y1387270D01*
X798815Y1386853D01*
X799131Y1386353D01*
X799385Y1385520D01*
X799448Y1384770D01*
X799322Y1384020D01*
X799131Y1383520D01*
X798752Y1383020D01*
X798308Y1382686D01*
X797865Y1382520D01*
X797422D01*
X796978Y1382686D01*
X796598Y1382936D01*
X796281Y1383270D01*
G01X792765Y1382520D02*
Y1387520D01*
X793525Y1386520D01*
G01Y1382520D02*
X792005D01*
G01X801872Y1365020D02*
Y1370020D01*
X798958Y1365020D01*
Y1370020D01*
G01X796962Y1365020D02*
Y1370020D01*
X795315Y1365853D01*
X793668Y1370020D01*
Y1365020D01*
G01X789455D02*
Y1370020D01*
X791798Y1366436D01*
X788631D01*
G01X789646Y1362678D02*
Y1357362D01*
G01X789145Y1358362D02*
G02I-499J0D01*
G01X786102Y1364351D02*
Y1362678D01*
G01X784528Y1364351D02*
X786102D01*
G01X784528Y1362678D02*
Y1364351D01*
G01X786102Y1362678D02*
X784528D01*
G01X783347Y1357362D02*
Y1355689D01*
G01X787283D02*
Y1357362D01*
G01X788858Y1355689D02*
X787283D01*
G01X788858Y1357362D02*
Y1355689D01*
G01X787283Y1357362D02*
X788858D01*
G01X791265Y1379420D02*
Y1375620D01*
G01X784365Y1379420D02*
X791265D01*
G01X784365Y1375620D02*
Y1379420D01*
G01X791265Y1375620D02*
X784365D01*
G01Y1379420D02*
X786365D01*
G01X784365Y1375620D02*
Y1379420D01*
G01X786365Y1375620D02*
X784365D01*
G01X786365Y1379420D02*
Y1375620D01*
G01X791265D02*
X789265D01*
G01X791265Y1379420D02*
Y1375620D01*
G01X789265Y1379420D02*
X791265D01*
G01X789265Y1375620D02*
Y1379420D01*
G01X796472Y1407103D02*
X796852Y1407353D01*
X797295Y1407520D01*
X797802D01*
X798372Y1407270D01*
X798815Y1406853D01*
X799131Y1406353D01*
X799385Y1405520D01*
X799448Y1404770D01*
X799322Y1404020D01*
X799131Y1403520D01*
X798752Y1403020D01*
X798308Y1402686D01*
X797865Y1402520D01*
X797422D01*
X796978Y1402686D01*
X796598Y1402936D01*
X796281Y1403270D01*
G01X793969Y1406686D02*
X793588Y1407186D01*
X793145Y1407436D01*
X792638Y1407520D01*
X792005Y1407353D01*
X791561Y1406936D01*
X791435Y1406437D01*
X791498Y1405936D01*
X791752Y1405520D01*
X793018Y1404686D01*
X793588Y1404103D01*
X793969Y1403270D01*
X794095Y1402520D01*
X791435D01*
G01X791265Y1399420D02*
Y1395620D01*
G01X784365Y1399420D02*
X791265D01*
G01X784365Y1395620D02*
Y1399420D01*
G01X791265Y1395620D02*
X784365D01*
G01Y1399420D02*
X786365D01*
G01X784365Y1395620D02*
Y1399420D01*
G01X786365Y1395620D02*
X784365D01*
G01X786365Y1399420D02*
Y1395620D01*
G01X791265D02*
X789265D01*
G01X791265Y1399420D02*
Y1395620D01*
G01X789265Y1399420D02*
X791265D01*
G01X789265Y1395620D02*
Y1399420D01*
G01X796472Y1424603D02*
X796852Y1424853D01*
X797295Y1425020D01*
X797802D01*
X798372Y1424770D01*
X798815Y1424353D01*
X799131Y1423853D01*
X799385Y1423020D01*
X799448Y1422270D01*
X799322Y1421520D01*
X799131Y1421020D01*
X798752Y1420520D01*
X798308Y1420186D01*
X797865Y1420020D01*
X797422D01*
X796978Y1420186D01*
X796598Y1420436D01*
X796281Y1420770D01*
G01X794158Y1421020D02*
X793778Y1420436D01*
X793272Y1420103D01*
X792702Y1420020D01*
X792195Y1420103D01*
X791688Y1420520D01*
X791372Y1421020D01*
X791308Y1421520D01*
X791435Y1422103D01*
X791878Y1422520D01*
X792322Y1422686D01*
X792892D01*
G01X792322D02*
X791942Y1422936D01*
X791625Y1423353D01*
X791498Y1423853D01*
X791625Y1424353D01*
X791942Y1424770D01*
X792512Y1425020D01*
X793081Y1424936D01*
X793652Y1424603D01*
G01X796472Y1442103D02*
X796852Y1442353D01*
X797295Y1442520D01*
X797802D01*
X798372Y1442270D01*
X798815Y1441853D01*
X799131Y1441353D01*
X799385Y1440520D01*
X799448Y1439770D01*
X799322Y1439020D01*
X799131Y1438520D01*
X798752Y1438020D01*
X798308Y1437686D01*
X797865Y1437520D01*
X797422D01*
X796978Y1437686D01*
X796598Y1437936D01*
X796281Y1438270D01*
G01X792005Y1437520D02*
Y1442520D01*
X794348Y1438936D01*
X791181D01*
G01X791265Y1416920D02*
Y1413120D01*
G01X784365Y1416920D02*
X791265D01*
G01X784365Y1413120D02*
Y1416920D01*
G01X791265Y1413120D02*
X784365D01*
G01Y1416920D02*
X786365D01*
G01X784365Y1413120D02*
Y1416920D01*
G01X786365Y1413120D02*
X784365D01*
G01X786365Y1416920D02*
Y1413120D01*
G01X791265D02*
X789265D01*
G01X791265Y1416920D02*
Y1413120D01*
G01X789265Y1416920D02*
X791265D01*
G01X789265Y1413120D02*
Y1416920D01*
G01X791265Y1434420D02*
Y1430620D01*
G01X784365Y1434420D02*
X791265D01*
G01X784365Y1430620D02*
Y1434420D01*
G01X791265Y1430620D02*
X784365D01*
G01Y1434420D02*
X786365D01*
G01X784365Y1430620D02*
Y1434420D01*
G01X786365Y1430620D02*
X784365D01*
G01X786365Y1434420D02*
Y1430620D01*
G01X791265D02*
X789265D01*
G01X791265Y1434420D02*
Y1430620D01*
G01X789265Y1434420D02*
X791265D01*
G01X789265Y1430620D02*
Y1434420D01*
M02*
