G04 ================== begin FILE IDENTIFICATION RECORD ==================*
G04 Layout Name:  Z:/Desktop/irrigation_project_4/panel/panelized_board.brd*
G04 Film Name:    SILKSCREEN_TOP*
G04 File Format:  Gerber RS274X*
G04 File Origin:  Cadence Allegro 17.4-S016*
G04 Origin Date:  Sat Apr 23 14:52:49 2022*
G04 *
G04 Layer:  PACKAGE GEOMETRY/ASSEMBLY_TOP*
G04 Layer:  PACKAGE GEOMETRY/PNL_REFDES_TOP*
G04 Layer:  BOARD GEOMETRY/TOP_ROOM*
G04 Layer:  BOARD GEOMETRY/WB_GUIDE_LINE*
G04 *
G04 Offset:    (0.0000 0.0000)*
G04 Mirror:    No*
G04 Mode:      Positive*
G04 Rotation:  0*
G04 FullContactRelief:  No*
G04 UndefLineWidth:     5.0000*
G04 ================== end FILE IDENTIFICATION RECORD ====================*
%FSLAX25Y25*MOIN*%
%IR0*IPPOS*OFA0.00000B0.00000*MIA0B0*SFA1.00000B1.00000*%
%ADD10C,.003941*%
%ADD11C,.02*%
%ADD12C,.00787*%
%ADD13C,.19685*%
G75*
%LPD*%
G75*
G54D10*
G01X355177Y1301515D02*
X385177D01*
Y1311515D01*
X355177D01*
Y1269508D01*
X385177D01*
Y1301515D01*
G01X355177Y1537736D02*
X385177D01*
Y1547736D01*
X355177D01*
Y1505729D01*
X385177D01*
Y1537736D01*
G01X709508Y1301515D02*
X739508D01*
Y1311515D01*
X709508D01*
Y1269508D01*
X739508D01*
Y1301515D01*
G01X709508Y1537736D02*
X739508D01*
Y1547736D01*
X709508D01*
Y1505729D01*
X739508D01*
Y1537736D01*
G54D11*
G01X99177Y1159921D02*
G02I-1500J0D01*
G01Y1204921D02*
G02I-1500J0D01*
G01Y1249921D02*
G02I-1500J0D01*
G01Y1294921D02*
G02I-1500J0D01*
G01Y1396142D02*
G02I-1500J0D01*
G01Y1441142D02*
G02I-1500J0D01*
G01Y1486142D02*
G02I-1500J0D01*
G01Y1531142D02*
G02I-1500J0D01*
G01X214177Y1259921D02*
G02I-1500J0D01*
G01Y1496142D02*
G02I-1500J0D01*
G01X453508Y1159921D02*
G02I-1500J0D01*
G01Y1204921D02*
G02I-1500J0D01*
G01Y1249921D02*
G02I-1500J0D01*
G01Y1294921D02*
G02I-1500J0D01*
G01Y1396142D02*
G02I-1500J0D01*
G01Y1441142D02*
G02I-1500J0D01*
G01Y1486142D02*
G02I-1500J0D01*
G01Y1531142D02*
G02I-1500J0D01*
G01X568508Y1259921D02*
G02I-1500J0D01*
G01Y1496142D02*
G02I-1500J0D01*
G54D12*
G01X388130Y1317421D02*
G03I-394J0D01*
G01Y1553642D02*
G03I-394J0D01*
G01X742461Y1317421D02*
G03I-394J0D01*
G01Y1553642D02*
G03I-394J0D01*
G54D13*
G01X106844Y1144625D02*
X107344Y1144244D01*
X107594Y1143801D01*
X107677Y1143294D01*
X107511Y1142661D01*
X107094Y1142218D01*
X106594Y1142091D01*
X106094Y1142155D01*
X105677Y1142408D01*
X104844Y1143674D01*
X104261Y1144244D01*
X103427Y1144625D01*
X102677Y1144751D01*
Y1142091D01*
G01X106844Y1144625D02*
X107344Y1144244D01*
X107594Y1143801D01*
X107677Y1143294D01*
X107511Y1142661D01*
X107094Y1142218D01*
X106594Y1142091D01*
X106094Y1142155D01*
X105677Y1142408D01*
X104844Y1143674D01*
X104261Y1144244D01*
X103427Y1144625D01*
X102677Y1144751D01*
Y1142091D01*
G01Y1166421D02*
X107677D01*
X106677Y1167181D01*
G01X102677D02*
Y1165661D01*
G01Y1166421D02*
X107677D01*
X106677Y1167181D01*
G01X102677D02*
Y1165661D01*
G01X109777Y1164121D02*
X100577D01*
G01Y1145721D02*
X109777D01*
G01X100577Y1164121D02*
Y1145721D01*
G01X106844Y1189625D02*
X107344Y1189244D01*
X107594Y1188801D01*
X107677Y1188294D01*
X107511Y1187661D01*
X107094Y1187218D01*
X106594Y1187091D01*
X106094Y1187155D01*
X105677Y1187408D01*
X104844Y1188674D01*
X104261Y1189244D01*
X103427Y1189625D01*
X102677Y1189751D01*
Y1187091D01*
G01X106844Y1189625D02*
X107344Y1189244D01*
X107594Y1188801D01*
X107677Y1188294D01*
X107511Y1187661D01*
X107094Y1187218D01*
X106594Y1187091D01*
X106094Y1187155D01*
X105677Y1187408D01*
X104844Y1188674D01*
X104261Y1189244D01*
X103427Y1189625D01*
X102677Y1189751D01*
Y1187091D01*
G01X100577Y1190721D02*
X109777D01*
G01X100577Y1209121D02*
Y1190721D01*
G01X102677Y1211421D02*
X107677D01*
X106677Y1212181D01*
G01X102677D02*
Y1210661D01*
G01Y1211421D02*
X107677D01*
X106677Y1212181D01*
G01X102677D02*
Y1210661D01*
G01X109777Y1209121D02*
X100577D01*
G01X106844Y1234625D02*
X107344Y1234244D01*
X107594Y1233801D01*
X107677Y1233294D01*
X107511Y1232661D01*
X107094Y1232218D01*
X106594Y1232091D01*
X106094Y1232155D01*
X105677Y1232408D01*
X104844Y1233674D01*
X104261Y1234244D01*
X103427Y1234625D01*
X102677Y1234751D01*
Y1232091D01*
G01X106844Y1234625D02*
X107344Y1234244D01*
X107594Y1233801D01*
X107677Y1233294D01*
X107511Y1232661D01*
X107094Y1232218D01*
X106594Y1232091D01*
X106094Y1232155D01*
X105677Y1232408D01*
X104844Y1233674D01*
X104261Y1234244D01*
X103427Y1234625D01*
X102677Y1234751D01*
Y1232091D01*
G01X100577Y1235721D02*
X109777D01*
G01X100577Y1254121D02*
Y1235721D01*
G01X102677Y1256421D02*
X107677D01*
X106677Y1257181D01*
G01X102677D02*
Y1255661D01*
G01Y1256421D02*
X107677D01*
X106677Y1257181D01*
G01X102677D02*
Y1255661D01*
G01X109777Y1254121D02*
X100577D01*
G01X106844Y1279625D02*
X107344Y1279244D01*
X107594Y1278801D01*
X107677Y1278294D01*
X107511Y1277661D01*
X107094Y1277218D01*
X106594Y1277091D01*
X106094Y1277155D01*
X105677Y1277408D01*
X104844Y1278674D01*
X104261Y1279244D01*
X103427Y1279625D01*
X102677Y1279751D01*
Y1277091D01*
G01X106844Y1279625D02*
X107344Y1279244D01*
X107594Y1278801D01*
X107677Y1278294D01*
X107511Y1277661D01*
X107094Y1277218D01*
X106594Y1277091D01*
X106094Y1277155D01*
X105677Y1277408D01*
X104844Y1278674D01*
X104261Y1279244D01*
X103427Y1279625D01*
X102677Y1279751D01*
Y1277091D01*
G01Y1301421D02*
X107677D01*
X106677Y1302181D01*
G01X102677D02*
Y1300661D01*
G01Y1301421D02*
X107677D01*
X106677Y1302181D01*
G01X102677D02*
Y1300661D01*
G01X109777Y1299121D02*
X100577D01*
G01Y1280721D02*
X109777D01*
G01X100577Y1299121D02*
Y1280721D01*
G01X106844Y1380845D02*
X107344Y1380465D01*
X107594Y1380022D01*
X107677Y1379515D01*
X107511Y1378882D01*
X107094Y1378438D01*
X106594Y1378312D01*
X106094Y1378375D01*
X105677Y1378628D01*
X104844Y1379895D01*
X104261Y1380465D01*
X103427Y1380845D01*
X102677Y1380972D01*
Y1378312D01*
G01X106844Y1380845D02*
X107344Y1380465D01*
X107594Y1380022D01*
X107677Y1379515D01*
X107511Y1378882D01*
X107094Y1378438D01*
X106594Y1378312D01*
X106094Y1378375D01*
X105677Y1378628D01*
X104844Y1379895D01*
X104261Y1380465D01*
X103427Y1380845D01*
X102677Y1380972D01*
Y1378312D01*
G01X100577Y1381942D02*
X109777D01*
G01X100577Y1400342D02*
Y1381942D01*
G01X102677Y1402642D02*
X107677D01*
X106677Y1403402D01*
G01X102677D02*
Y1401882D01*
G01Y1402642D02*
X107677D01*
X106677Y1403402D01*
G01X102677D02*
Y1401882D01*
G01X109777Y1400342D02*
X100577D01*
G01X106844Y1425845D02*
X107344Y1425465D01*
X107594Y1425022D01*
X107677Y1424515D01*
X107511Y1423882D01*
X107094Y1423438D01*
X106594Y1423312D01*
X106094Y1423375D01*
X105677Y1423628D01*
X104844Y1424895D01*
X104261Y1425465D01*
X103427Y1425845D01*
X102677Y1425972D01*
Y1423312D01*
G01X106844Y1425845D02*
X107344Y1425465D01*
X107594Y1425022D01*
X107677Y1424515D01*
X107511Y1423882D01*
X107094Y1423438D01*
X106594Y1423312D01*
X106094Y1423375D01*
X105677Y1423628D01*
X104844Y1424895D01*
X104261Y1425465D01*
X103427Y1425845D01*
X102677Y1425972D01*
Y1423312D01*
G01X100577Y1426942D02*
X109777D01*
G01X100577Y1445342D02*
Y1426942D01*
G01X102677Y1447642D02*
X107677D01*
X106677Y1448402D01*
G01X102677D02*
Y1446882D01*
G01Y1447642D02*
X107677D01*
X106677Y1448402D01*
G01X102677D02*
Y1446882D01*
G01X109777Y1445342D02*
X100577D01*
G01X106844Y1470845D02*
X107344Y1470465D01*
X107594Y1470022D01*
X107677Y1469515D01*
X107511Y1468882D01*
X107094Y1468438D01*
X106594Y1468312D01*
X106094Y1468375D01*
X105677Y1468628D01*
X104844Y1469895D01*
X104261Y1470465D01*
X103427Y1470845D01*
X102677Y1470972D01*
Y1468312D01*
G01X106844Y1470845D02*
X107344Y1470465D01*
X107594Y1470022D01*
X107677Y1469515D01*
X107511Y1468882D01*
X107094Y1468438D01*
X106594Y1468312D01*
X106094Y1468375D01*
X105677Y1468628D01*
X104844Y1469895D01*
X104261Y1470465D01*
X103427Y1470845D01*
X102677Y1470972D01*
Y1468312D01*
G01X100577Y1471942D02*
X109777D01*
G01X100577Y1490342D02*
Y1471942D01*
G01X102677Y1492642D02*
X107677D01*
X106677Y1493402D01*
G01X102677D02*
Y1491882D01*
G01Y1492642D02*
X107677D01*
X106677Y1493402D01*
G01X102677D02*
Y1491882D01*
G01X109777Y1490342D02*
X100577D01*
G01X106844Y1515845D02*
X107344Y1515465D01*
X107594Y1515022D01*
X107677Y1514515D01*
X107511Y1513882D01*
X107094Y1513438D01*
X106594Y1513312D01*
X106094Y1513375D01*
X105677Y1513628D01*
X104844Y1514895D01*
X104261Y1515465D01*
X103427Y1515845D01*
X102677Y1515972D01*
Y1513312D01*
G01X106844Y1515845D02*
X107344Y1515465D01*
X107594Y1515022D01*
X107677Y1514515D01*
X107511Y1513882D01*
X107094Y1513438D01*
X106594Y1513312D01*
X106094Y1513375D01*
X105677Y1513628D01*
X104844Y1514895D01*
X104261Y1515465D01*
X103427Y1515845D01*
X102677Y1515972D01*
Y1513312D01*
G01X100577Y1516942D02*
X109777D01*
G01X100577Y1535342D02*
Y1516942D01*
G01X102677Y1537642D02*
X107677D01*
X106677Y1538402D01*
G01X102677D02*
Y1536882D01*
G01Y1537642D02*
X107677D01*
X106677Y1538402D01*
G01X102677D02*
Y1536882D01*
G01X109777Y1535342D02*
X100577D01*
G01X136234Y1137421D02*
Y1142421D01*
X137500D01*
X138007Y1142171D01*
X138387Y1141838D01*
X138704Y1141338D01*
X138957Y1140754D01*
X139020Y1139921D01*
X138957Y1139088D01*
X138704Y1138504D01*
X138387Y1138004D01*
X138007Y1137671D01*
X137500Y1137421D01*
X136234D01*
G01X142727D02*
Y1142421D01*
X141967Y1141421D01*
G01Y1137421D02*
X143487D01*
G01X126177Y1173738D02*
X125677Y1173421D01*
X125344Y1173041D01*
X125177Y1172598D01*
X125344Y1172091D01*
X125677Y1171711D01*
X126177Y1171331D01*
X126844Y1171205D01*
X130177D01*
G01X129344Y1168575D02*
X129844Y1168194D01*
X130094Y1167751D01*
X130177Y1167244D01*
X130011Y1166611D01*
X129594Y1166168D01*
X129094Y1166041D01*
X128594Y1166105D01*
X128177Y1166358D01*
X127344Y1167624D01*
X126761Y1168194D01*
X125927Y1168575D01*
X125177Y1168701D01*
Y1166041D01*
G01X109777Y1145721D02*
Y1164121D01*
G01Y1190721D02*
Y1209121D01*
G01X126177Y1218738D02*
X125677Y1218421D01*
X125344Y1218041D01*
X125177Y1217598D01*
X125344Y1217091D01*
X125677Y1216711D01*
X126177Y1216331D01*
X126844Y1216205D01*
X130177D01*
G01X126177Y1213765D02*
X125594Y1213385D01*
X125261Y1212878D01*
X125177Y1212308D01*
X125261Y1211801D01*
X125677Y1211294D01*
X126177Y1210978D01*
X126677Y1210915D01*
X127260Y1211041D01*
X127677Y1211485D01*
X127844Y1211928D01*
Y1212498D01*
G01Y1211928D02*
X128094Y1211548D01*
X128510Y1211231D01*
X129011Y1211105D01*
X129511Y1211231D01*
X129927Y1211548D01*
X130177Y1212118D01*
X130094Y1212688D01*
X129761Y1213258D01*
G01X109777Y1235721D02*
Y1254121D01*
G01X127844Y1259465D02*
X128094Y1259211D01*
X128510Y1259021D01*
X129094Y1258894D01*
X129594Y1259021D01*
X129927Y1259274D01*
X130177Y1259718D01*
Y1261428D01*
X125177D01*
Y1259338D01*
X125510Y1258894D01*
X126011Y1258641D01*
X126594Y1258515D01*
X127177Y1258641D01*
X127677Y1259021D01*
X127844Y1259465D01*
Y1261428D01*
G01X129344Y1256075D02*
X129844Y1255694D01*
X130094Y1255251D01*
X130177Y1254744D01*
X130011Y1254111D01*
X129594Y1253668D01*
X129094Y1253541D01*
X128594Y1253605D01*
X128177Y1253858D01*
X127344Y1255124D01*
X126761Y1255694D01*
X125927Y1256075D01*
X125177Y1256201D01*
Y1253541D01*
G01X127844Y1306965D02*
X128094Y1306711D01*
X128510Y1306521D01*
X129094Y1306394D01*
X129594Y1306521D01*
X129927Y1306774D01*
X130177Y1307218D01*
Y1308928D01*
X125177D01*
Y1306838D01*
X125510Y1306394D01*
X126011Y1306141D01*
X126594Y1306015D01*
X127177Y1306141D01*
X127677Y1306521D01*
X127844Y1306965D01*
Y1308928D01*
G01X125177Y1302371D02*
X130177D01*
X129177Y1303131D01*
G01X125177D02*
Y1301611D01*
G01X109777Y1280721D02*
Y1299121D01*
G01X133734Y1319921D02*
Y1316338D01*
X133987Y1315588D01*
X134494Y1315088D01*
X135127Y1314921D01*
X135761Y1315088D01*
X136267Y1315588D01*
X136520Y1316338D01*
Y1319921D01*
G01X140227Y1314921D02*
Y1319921D01*
X139467Y1318921D01*
G01Y1314921D02*
X140987D01*
G01X136234Y1373642D02*
Y1378642D01*
X137500D01*
X138007Y1378392D01*
X138387Y1378058D01*
X138704Y1377559D01*
X138957Y1376975D01*
X139020Y1376142D01*
X138957Y1375308D01*
X138704Y1374725D01*
X138387Y1374225D01*
X138007Y1373892D01*
X137500Y1373642D01*
X136234D01*
G01X142727D02*
Y1378642D01*
X141967Y1377642D01*
G01Y1373642D02*
X143487D01*
G01X109777Y1381942D02*
Y1400342D01*
G01X126177Y1409958D02*
X125677Y1409642D01*
X125344Y1409262D01*
X125177Y1408819D01*
X125344Y1408312D01*
X125677Y1407932D01*
X126177Y1407552D01*
X126844Y1407425D01*
X130177D01*
G01X129344Y1404795D02*
X129844Y1404415D01*
X130094Y1403972D01*
X130177Y1403465D01*
X130011Y1402832D01*
X129594Y1402388D01*
X129094Y1402262D01*
X128594Y1402325D01*
X128177Y1402578D01*
X127344Y1403845D01*
X126761Y1404415D01*
X125927Y1404795D01*
X125177Y1404922D01*
Y1402262D01*
G01X109777Y1426942D02*
Y1445342D01*
G01X126177Y1454958D02*
X125677Y1454642D01*
X125344Y1454262D01*
X125177Y1453819D01*
X125344Y1453312D01*
X125677Y1452932D01*
X126177Y1452552D01*
X126844Y1452425D01*
X130177D01*
G01X126177Y1449985D02*
X125594Y1449605D01*
X125261Y1449098D01*
X125177Y1448528D01*
X125261Y1448022D01*
X125677Y1447515D01*
X126177Y1447198D01*
X126677Y1447135D01*
X127260Y1447262D01*
X127677Y1447705D01*
X127844Y1448148D01*
Y1448719D01*
G01Y1448148D02*
X128094Y1447769D01*
X128510Y1447452D01*
X129011Y1447325D01*
X129511Y1447452D01*
X129927Y1447769D01*
X130177Y1448339D01*
X130094Y1448908D01*
X129761Y1449478D01*
G01X127844Y1495685D02*
X128094Y1495432D01*
X128510Y1495242D01*
X129094Y1495115D01*
X129594Y1495242D01*
X129927Y1495495D01*
X130177Y1495939D01*
Y1497648D01*
X125177D01*
Y1495558D01*
X125510Y1495115D01*
X126011Y1494862D01*
X126594Y1494735D01*
X127177Y1494862D01*
X127677Y1495242D01*
X127844Y1495685D01*
Y1497648D01*
G01X129344Y1492295D02*
X129844Y1491915D01*
X130094Y1491472D01*
X130177Y1490965D01*
X130011Y1490332D01*
X129594Y1489888D01*
X129094Y1489762D01*
X128594Y1489825D01*
X128177Y1490078D01*
X127344Y1491345D01*
X126761Y1491915D01*
X125927Y1492295D01*
X125177Y1492422D01*
Y1489762D01*
G01X109777Y1471942D02*
Y1490342D01*
G01Y1516942D02*
Y1535342D01*
G01X127844Y1543185D02*
X128094Y1542932D01*
X128510Y1542742D01*
X129094Y1542615D01*
X129594Y1542742D01*
X129927Y1542995D01*
X130177Y1543439D01*
Y1545148D01*
X125177D01*
Y1543058D01*
X125510Y1542615D01*
X126011Y1542362D01*
X126594Y1542235D01*
X127177Y1542362D01*
X127677Y1542742D01*
X127844Y1543185D01*
Y1545148D01*
G01X125177Y1538592D02*
X130177D01*
X129177Y1539352D01*
G01X125177D02*
Y1537832D01*
G01X133734Y1556142D02*
Y1552558D01*
X133987Y1551808D01*
X134494Y1551308D01*
X135127Y1551142D01*
X135761Y1551308D01*
X136267Y1551808D01*
X136520Y1552558D01*
Y1556142D01*
G01X140227Y1551142D02*
Y1556142D01*
X139467Y1555142D01*
G01Y1551142D02*
X140987D01*
G01X148327Y1142571D02*
Y1137271D01*
G01X157027D02*
Y1142571D01*
G01X148327Y1137271D02*
X157027D01*
G01D02*
Y1142571D01*
G01X154427Y1137271D02*
X157027D01*
G01X154427Y1142571D02*
Y1137271D01*
G01X148327D02*
X150927D01*
G01X148327Y1142571D02*
Y1137271D01*
G01X150927D02*
Y1142571D01*
G01X157027D02*
X148327D01*
G01X157027D02*
X154427D01*
G01X150927D02*
X148327D01*
G01X137927Y1309921D02*
Y1169921D01*
G01D02*
X167427D01*
G01X136077Y1173321D02*
X137927D01*
G01X136077Y1176521D02*
Y1173321D01*
G01X137927Y1176521D02*
X136077D01*
G01X137927Y1173321D02*
Y1176521D01*
G01X136077Y1183321D02*
X137927D01*
G01X136077Y1186521D02*
Y1183321D01*
G01X137927Y1186521D02*
X136077D01*
G01X137927Y1183321D02*
Y1186521D01*
G01X136077Y1193321D02*
X137927D01*
G01X136077Y1196521D02*
Y1193321D01*
G01X137927D02*
Y1196521D01*
G01D02*
X136077D01*
G01Y1203321D02*
X137927D01*
G01X136077Y1206521D02*
Y1203321D01*
G01X137927Y1206521D02*
X136077D01*
G01X137927Y1203321D02*
Y1206521D01*
G01X136077Y1213321D02*
X137927D01*
G01X136077Y1216521D02*
Y1213321D01*
G01X137927Y1216521D02*
X136077D01*
G01X137927Y1213321D02*
Y1216521D01*
G01X136077Y1223321D02*
X137927D01*
G01X136077Y1226521D02*
Y1223321D01*
G01X137927Y1226521D02*
X136077D01*
G01X137927Y1223321D02*
Y1226521D01*
G01X136077Y1233321D02*
X137927D01*
G01X136077Y1236521D02*
Y1233321D01*
G01X137927Y1236521D02*
X136077D01*
G01X137927Y1233321D02*
Y1236521D01*
G01X136077Y1243321D02*
X137927D01*
G01X136077Y1246521D02*
Y1243321D01*
G01X137927Y1246521D02*
X136077D01*
G01X137927Y1243321D02*
Y1246521D01*
G01X136077Y1253321D02*
X137927D01*
G01X136077Y1256521D02*
Y1253321D01*
G01X137927Y1256521D02*
X136077D01*
G01X137927Y1253321D02*
Y1256521D01*
G01X136077Y1263321D02*
X137927D01*
G01X136077Y1266521D02*
Y1263321D01*
G01X137927Y1266521D02*
X136077D01*
G01X137927Y1263321D02*
Y1266521D01*
G01X136077Y1273321D02*
X137927D01*
G01X136077Y1276521D02*
Y1273321D01*
G01X137927D02*
Y1276521D01*
G01X137534Y1302255D02*
X140320Y1305921D01*
G01X138927Y1306588D02*
Y1301588D01*
G01X140320Y1302255D02*
X137534Y1305921D01*
G01X137027Y1304088D02*
X140827D01*
G01X137927Y1276521D02*
X136077D01*
G01Y1283321D02*
X137927D01*
G01X136077Y1286521D02*
Y1283321D01*
G01X137927Y1286521D02*
X136077D01*
G01X137927Y1283321D02*
Y1286521D01*
G01X136077Y1293321D02*
X137927D01*
G01X136077Y1296521D02*
Y1293321D01*
G01X137927Y1296521D02*
X136077D01*
G01X137927Y1293321D02*
Y1296521D01*
G01X151477Y1309921D02*
G03X153877I1200J0D01*
G01X167427D02*
X137927D01*
G01X136077Y1303321D02*
X137927D01*
G01X136077Y1306521D02*
Y1303321D01*
G01X137927Y1306521D02*
X136077D01*
G01X137927Y1303321D02*
Y1306521D01*
G01X148327Y1378792D02*
Y1373492D01*
G01X157027Y1378792D02*
X148327D01*
G01X157027Y1373492D02*
Y1378792D01*
G01X148327Y1373492D02*
X157027D01*
G01Y1378792D02*
X154427D01*
G01X157027Y1373492D02*
Y1378792D01*
G01X154427Y1373492D02*
X157027D01*
G01X154427Y1378792D02*
Y1373492D01*
G01X148327D02*
X150927D01*
G01X148327Y1378792D02*
Y1373492D01*
G01X150927Y1378792D02*
X148327D01*
G01X150927Y1373492D02*
Y1378792D01*
G01X137927Y1546142D02*
Y1406142D01*
G01D02*
X167427D01*
G01X136077Y1409542D02*
X137927D01*
G01X136077Y1412742D02*
Y1409542D01*
G01X137927Y1412742D02*
X136077D01*
G01X137927Y1409542D02*
Y1412742D01*
G01X136077Y1419542D02*
X137927D01*
G01X136077Y1422742D02*
Y1419542D01*
G01X137927Y1422742D02*
X136077D01*
G01X137927Y1419542D02*
Y1422742D01*
G01X136077Y1429542D02*
X137927D01*
G01X136077Y1432742D02*
Y1429542D01*
G01X137927Y1432742D02*
X136077D01*
G01X137927Y1429542D02*
Y1432742D01*
G01X136077Y1439542D02*
X137927D01*
G01X136077Y1442742D02*
Y1439542D01*
G01X137927Y1442742D02*
X136077D01*
G01X137927Y1439542D02*
Y1442742D01*
G01X136077Y1449542D02*
X137927D01*
G01X136077Y1452742D02*
Y1449542D01*
G01X137927Y1452742D02*
X136077D01*
G01X137927Y1449542D02*
Y1452742D01*
G01X136077Y1459542D02*
X137927D01*
G01X136077Y1462742D02*
Y1459542D01*
G01X137927Y1462742D02*
X136077D01*
G01X137927Y1459542D02*
Y1462742D01*
G01X136077Y1469542D02*
X137927D01*
G01X136077Y1472742D02*
Y1469542D01*
G01X137927Y1472742D02*
X136077D01*
G01X137927Y1469542D02*
Y1472742D01*
G01X136077Y1479542D02*
X137927D01*
G01X136077Y1482742D02*
Y1479542D01*
G01X137927Y1482742D02*
X136077D01*
G01X137927Y1479542D02*
Y1482742D01*
G01X136077Y1489542D02*
X137927D01*
G01X136077Y1492742D02*
Y1489542D01*
G01X137927D02*
Y1492742D01*
G01D02*
X136077D01*
G01Y1499542D02*
X137927D01*
G01X136077Y1502742D02*
Y1499542D01*
G01X137927Y1502742D02*
X136077D01*
G01X137927Y1499542D02*
Y1502742D01*
G01X136077Y1509542D02*
X137927D01*
G01X136077Y1512742D02*
Y1509542D01*
G01X137927Y1512742D02*
X136077D01*
G01X137927Y1509542D02*
Y1512742D01*
G01X137534Y1538475D02*
X140320Y1542142D01*
G01X138927Y1542808D02*
Y1537808D01*
G01X140320Y1538475D02*
X137534Y1542142D01*
G01X137027Y1540308D02*
X140827D01*
G01X136077Y1519542D02*
X137927D01*
G01X136077Y1522742D02*
Y1519542D01*
G01X137927Y1522742D02*
X136077D01*
G01X137927Y1519542D02*
Y1522742D01*
G01X136077Y1529542D02*
X137927D01*
G01X136077Y1532742D02*
Y1529542D01*
G01X137927Y1532742D02*
X136077D01*
G01X137927Y1529542D02*
Y1532742D01*
G01X136077Y1539542D02*
X137927D01*
G01X136077Y1542742D02*
Y1539542D01*
G01X137927Y1542742D02*
X136077D01*
G01X137927Y1539542D02*
Y1542742D01*
G01X151477Y1546142D02*
G03X153877I1200J0D01*
G01X167427D02*
X137927D01*
G01X167427Y1169921D02*
Y1309921D01*
G01X169277Y1193321D02*
Y1196521D01*
G01X167427Y1193321D02*
X169277D01*
G01X167427Y1196521D02*
Y1193321D01*
G01X169277Y1186521D02*
X167427D01*
G01X169277Y1183321D02*
Y1186521D01*
G01X167427Y1183321D02*
X169277D01*
G01X167427Y1186521D02*
Y1183321D01*
G01X169277Y1176521D02*
X167427D01*
G01X169277Y1173321D02*
Y1176521D01*
G01X167427Y1173321D02*
X169277D01*
G01X167427Y1176521D02*
Y1173321D01*
G01X193774Y1174504D02*
X188357D01*
G01Y1185338D02*
X193774D01*
G01X169277Y1216521D02*
X167427D01*
G01X169277Y1213321D02*
Y1216521D01*
G01X167427Y1213321D02*
X169277D01*
G01X167427Y1216521D02*
Y1213321D01*
G01X169277Y1206521D02*
X167427D01*
G01X169277Y1203321D02*
Y1206521D01*
G01X167427Y1203321D02*
X169277D01*
G01X167427Y1206521D02*
Y1203321D01*
G01X169277Y1196521D02*
X167427D01*
G01X181234Y1227421D02*
Y1232421D01*
G01X183641D02*
X181234Y1229338D01*
G01X184020Y1227421D02*
X182311Y1230754D01*
G01X187727Y1227421D02*
Y1232421D01*
X186967Y1231421D01*
G01Y1227421D02*
X188487D01*
G01X169277Y1246521D02*
X167427D01*
G01X169277Y1243321D02*
Y1246521D01*
G01X167427Y1243321D02*
X169277D01*
G01X167427Y1246521D02*
Y1243321D01*
G01X169277Y1236521D02*
X167427D01*
G01X169277Y1233321D02*
Y1236521D01*
G01X167427Y1233321D02*
X169277D01*
G01X167427Y1236521D02*
Y1233321D01*
G01X169277Y1226521D02*
X167427D01*
G01X169277Y1223321D02*
Y1226521D01*
G01X167427Y1223321D02*
X169277D01*
G01X167427Y1226521D02*
Y1223321D01*
G01X169277Y1273321D02*
Y1276521D01*
G01X167427Y1273321D02*
X169277D01*
G01X167427Y1276521D02*
Y1273321D01*
G01X169277Y1266521D02*
X167427D01*
G01X169277Y1263321D02*
Y1266521D01*
G01X167427Y1263321D02*
X169277D01*
G01X167427Y1266521D02*
Y1263321D01*
G01X169277Y1256521D02*
X167427D01*
G01X169277Y1253321D02*
Y1256521D01*
G01X167427Y1253321D02*
X169277D01*
G01X167427Y1256521D02*
Y1253321D01*
G01X169277Y1296521D02*
X167427D01*
G01X169277Y1293321D02*
Y1296521D01*
G01X167427Y1293321D02*
X169277D01*
G01X167427Y1296521D02*
Y1293321D01*
G01X169277Y1286521D02*
X167427D01*
G01X169277Y1283321D02*
Y1286521D01*
G01X167427Y1283321D02*
X169277D01*
G01X167427Y1286521D02*
Y1283321D01*
G01X169277Y1276521D02*
X167427D01*
G01X169277Y1306521D02*
X167427D01*
G01X169277Y1303321D02*
Y1306521D01*
G01X167427Y1303321D02*
X169277D01*
G01X167427Y1306521D02*
Y1303321D01*
G01Y1406142D02*
Y1546142D01*
G01X169277Y1432742D02*
X167427D01*
G01X169277Y1429542D02*
Y1432742D01*
G01X167427Y1429542D02*
X169277D01*
G01X167427Y1432742D02*
Y1429542D01*
G01X169277Y1422742D02*
X167427D01*
G01X169277Y1419542D02*
Y1422742D01*
G01X167427Y1419542D02*
X169277D01*
G01X167427Y1422742D02*
Y1419542D01*
G01X169277Y1412742D02*
X167427D01*
G01X169277Y1409542D02*
Y1412742D01*
G01X167427Y1409542D02*
X169277D01*
G01X167427Y1412742D02*
Y1409542D01*
G01X193774Y1410725D02*
X188357D01*
G01Y1421559D02*
X193774D01*
G01X181234Y1463642D02*
Y1468642D01*
G01X183641D02*
X181234Y1465558D01*
G01X184020Y1463642D02*
X182311Y1466975D01*
G01X187727Y1463642D02*
Y1468642D01*
X186967Y1467642D01*
G01Y1463642D02*
X188487D01*
G01X169277Y1462742D02*
X167427D01*
G01X169277Y1459542D02*
Y1462742D01*
G01X167427Y1459542D02*
X169277D01*
G01X167427Y1462742D02*
Y1459542D01*
G01X169277Y1452742D02*
X167427D01*
G01X169277Y1449542D02*
Y1452742D01*
G01X167427Y1449542D02*
X169277D01*
G01X167427Y1452742D02*
Y1449542D01*
G01X169277Y1442742D02*
X167427D01*
G01X169277Y1439542D02*
Y1442742D01*
G01X167427Y1439542D02*
X169277D01*
G01X167427Y1442742D02*
Y1439542D01*
G01X169277Y1489542D02*
Y1492742D01*
G01X167427Y1489542D02*
X169277D01*
G01X167427Y1492742D02*
Y1489542D01*
G01X169277Y1482742D02*
X167427D01*
G01X169277Y1479542D02*
Y1482742D01*
G01X167427Y1479542D02*
X169277D01*
G01X167427Y1482742D02*
Y1479542D01*
G01X169277Y1472742D02*
X167427D01*
G01X169277Y1469542D02*
Y1472742D01*
G01X167427Y1469542D02*
X169277D01*
G01X167427Y1472742D02*
Y1469542D01*
G01X169277Y1512742D02*
X167427D01*
G01X169277Y1509542D02*
Y1512742D01*
G01X167427Y1509542D02*
X169277D01*
G01X167427Y1512742D02*
Y1509542D01*
G01X169277Y1502742D02*
X167427D01*
G01X169277Y1499542D02*
Y1502742D01*
G01X167427Y1499542D02*
X169277D01*
G01X167427Y1502742D02*
Y1499542D01*
G01X169277Y1492742D02*
X167427D01*
G01X169277Y1542742D02*
X167427D01*
G01X169277Y1539542D02*
Y1542742D01*
G01X167427Y1539542D02*
X169277D01*
G01X167427Y1542742D02*
Y1539542D01*
G01X169277Y1532742D02*
X167427D01*
G01X169277Y1529542D02*
Y1532742D01*
G01X167427Y1529542D02*
X169277D01*
G01X167427Y1532742D02*
Y1529542D01*
G01X169277Y1522742D02*
X167427D01*
G01X169277Y1519542D02*
Y1522742D01*
G01X167427Y1519542D02*
X169277D01*
G01X167427Y1522742D02*
Y1519542D01*
G01X190138Y1149212D02*
X275177D01*
G01X190138Y1210630D02*
Y1149212D01*
G01X200177Y1145712D02*
X202677D01*
G01X200177Y1143212D02*
Y1148212D01*
G01X193774Y1185338D02*
Y1174504D01*
G01X190138Y1210630D02*
X275177D01*
G01X207677Y1297721D02*
Y1258321D01*
G01D02*
X257677D01*
G01Y1297721D02*
X207677D01*
G01X196234Y1317421D02*
Y1313838D01*
X196487Y1313088D01*
X196994Y1312588D01*
X197627Y1312421D01*
X198261Y1312588D01*
X198767Y1313088D01*
X199020Y1313838D01*
Y1317421D01*
G01X201334Y1313421D02*
X201714Y1312838D01*
X202220Y1312505D01*
X202791Y1312421D01*
X203297Y1312505D01*
X203804Y1312921D01*
X204120Y1313421D01*
X204184Y1313921D01*
X204057Y1314504D01*
X203614Y1314921D01*
X203170Y1315088D01*
X202600D01*
G01X203170D02*
X203550Y1315338D01*
X203867Y1315754D01*
X203994Y1316255D01*
X203867Y1316755D01*
X203550Y1317171D01*
X202980Y1317421D01*
X202411Y1317338D01*
X201841Y1317005D01*
G01X200177Y1381933D02*
X202677D01*
G01X200177Y1379433D02*
Y1384433D01*
G01X190138Y1385433D02*
X275177D01*
G01X190138Y1446851D02*
Y1385433D01*
G01X193774Y1421559D02*
Y1410725D01*
G01X190138Y1446851D02*
X275177D01*
G01X207677Y1533942D02*
Y1494542D01*
G01D02*
X257677D01*
G01Y1533942D02*
X207677D01*
G01X196234Y1553642D02*
Y1550058D01*
X196487Y1549308D01*
X196994Y1548808D01*
X197627Y1548642D01*
X198261Y1548808D01*
X198767Y1549308D01*
X199020Y1550058D01*
Y1553642D01*
G01X201334Y1549642D02*
X201714Y1549058D01*
X202220Y1548725D01*
X202791Y1548642D01*
X203297Y1548725D01*
X203804Y1549142D01*
X204120Y1549642D01*
X204184Y1550142D01*
X204057Y1550725D01*
X203614Y1551142D01*
X203170Y1551308D01*
X202600D01*
G01X203170D02*
X203550Y1551558D01*
X203867Y1551975D01*
X203994Y1552475D01*
X203867Y1552975D01*
X203550Y1553392D01*
X202980Y1553642D01*
X202411Y1553558D01*
X201841Y1553225D01*
G01X257677Y1258321D02*
Y1297721D01*
G01Y1494542D02*
Y1533942D01*
G01X275177Y1210630D02*
Y1149212D01*
G01X283747Y1255588D02*
X284254Y1255171D01*
X284824Y1254921D01*
X285330D01*
X285837Y1255171D01*
X286217Y1255588D01*
X286407Y1256171D01*
X286281Y1256754D01*
X285964Y1257255D01*
X285394Y1257588D01*
X284634Y1257755D01*
X284191Y1258088D01*
X284000Y1258671D01*
X284127Y1259255D01*
X284444Y1259671D01*
X284887Y1259921D01*
X285330D01*
X285774Y1259755D01*
X286154Y1259338D01*
G01X288784Y1254921D02*
Y1259921D01*
X290050D01*
X290557Y1259671D01*
X290937Y1259338D01*
X291254Y1258838D01*
X291507Y1258254D01*
X291570Y1257421D01*
X291507Y1256588D01*
X291254Y1256004D01*
X290937Y1255504D01*
X290557Y1255171D01*
X290050Y1254921D01*
X288784D01*
G01X295277D02*
Y1259921D01*
X294517Y1258921D01*
G01Y1254921D02*
X296037D01*
G01X283634Y1317421D02*
Y1322421D01*
X284900D01*
X285407Y1322171D01*
X285787Y1321838D01*
X286104Y1321338D01*
X286357Y1320754D01*
X286420Y1319921D01*
X286357Y1319088D01*
X286104Y1318504D01*
X285787Y1318004D01*
X285407Y1317671D01*
X284900Y1317421D01*
X283634D01*
G01X288797D02*
Y1322421D01*
G01X291457D02*
Y1317421D01*
G01Y1319921D02*
X288797D01*
G01X295227Y1322421D02*
Y1317421D01*
G01X293770Y1322421D02*
X296684D01*
G01X300327Y1317421D02*
Y1322421D01*
X299567Y1321421D01*
G01Y1317421D02*
X301087D01*
G01X275177Y1446851D02*
Y1385433D01*
G01X283747Y1491808D02*
X284254Y1491392D01*
X284824Y1491142D01*
X285330D01*
X285837Y1491392D01*
X286217Y1491808D01*
X286407Y1492392D01*
X286281Y1492975D01*
X285964Y1493475D01*
X285394Y1493808D01*
X284634Y1493975D01*
X284191Y1494308D01*
X284000Y1494892D01*
X284127Y1495475D01*
X284444Y1495892D01*
X284887Y1496142D01*
X285330D01*
X285774Y1495975D01*
X286154Y1495558D01*
G01X288784Y1491142D02*
Y1496142D01*
X290050D01*
X290557Y1495892D01*
X290937Y1495558D01*
X291254Y1495059D01*
X291507Y1494475D01*
X291570Y1493642D01*
X291507Y1492808D01*
X291254Y1492225D01*
X290937Y1491725D01*
X290557Y1491392D01*
X290050Y1491142D01*
X288784D01*
G01X295277D02*
Y1496142D01*
X294517Y1495142D01*
G01Y1491142D02*
X296037D01*
G01X283634Y1553642D02*
Y1558642D01*
X284900D01*
X285407Y1558392D01*
X285787Y1558058D01*
X286104Y1557559D01*
X286357Y1556975D01*
X286420Y1556142D01*
X286357Y1555308D01*
X286104Y1554725D01*
X285787Y1554225D01*
X285407Y1553892D01*
X284900Y1553642D01*
X283634D01*
G01X288797D02*
Y1558642D01*
G01X291457D02*
Y1553642D01*
G01Y1556142D02*
X288797D01*
G01X295227Y1558642D02*
Y1553642D01*
G01X293770Y1558642D02*
X296684D01*
G01X300327Y1553642D02*
Y1558642D01*
X299567Y1557642D01*
G01Y1553642D02*
X301087D01*
G01X309177Y1242421D02*
X391177D01*
G01X309177Y1251921D02*
Y1242421D01*
G01X391177Y1251921D02*
X309177D01*
G01X320177Y1274921D02*
Y1314921D01*
G01X310177Y1274921D02*
X320177D01*
G01X310177Y1314921D02*
Y1274921D01*
G01X320177Y1314921D02*
X310177D01*
G01X320177Y1313921D02*
X310177D01*
G01Y1314921D02*
Y1313921D01*
G01X320177Y1314921D02*
Y1313921D01*
G01X309177Y1478642D02*
X391177D01*
G01X309177Y1488142D02*
Y1478642D01*
G01X391177Y1488142D02*
X309177D01*
G01X320177Y1511142D02*
Y1551142D01*
G01X310177Y1511142D02*
X320177D01*
G01X310177Y1551142D02*
Y1511142D01*
G01X320177Y1551142D02*
X310177D01*
G01X320177Y1550142D02*
X310177D01*
G01Y1551142D02*
Y1550142D01*
G01X320177Y1551142D02*
Y1550142D01*
G01X340430Y1314921D02*
Y1319921D01*
X342077Y1315755D01*
X343724Y1319921D01*
Y1314921D01*
G01X345847Y1315588D02*
X346354Y1315171D01*
X346924Y1314921D01*
X347430D01*
X347937Y1315171D01*
X348317Y1315588D01*
X348507Y1316171D01*
X348381Y1316754D01*
X348064Y1317255D01*
X347494Y1317588D01*
X346734Y1317755D01*
X346291Y1318088D01*
X346100Y1318671D01*
X346227Y1319255D01*
X346544Y1319671D01*
X346987Y1319921D01*
X347430D01*
X347874Y1319755D01*
X348254Y1319338D01*
G01X352277Y1314921D02*
Y1319921D01*
X351517Y1318921D01*
G01Y1314921D02*
X353037D01*
G01X340430Y1551142D02*
Y1556142D01*
X342077Y1551975D01*
X343724Y1556142D01*
Y1551142D01*
G01X345847Y1551808D02*
X346354Y1551392D01*
X346924Y1551142D01*
X347430D01*
X347937Y1551392D01*
X348317Y1551808D01*
X348507Y1552392D01*
X348381Y1552975D01*
X348064Y1553475D01*
X347494Y1553808D01*
X346734Y1553975D01*
X346291Y1554308D01*
X346100Y1554892D01*
X346227Y1555475D01*
X346544Y1555892D01*
X346987Y1556142D01*
X347430D01*
X347874Y1555975D01*
X348254Y1555558D01*
G01X352277Y1551142D02*
Y1556142D01*
X351517Y1555142D01*
G01Y1551142D02*
X353037D01*
G01X391177Y1242421D02*
Y1251921D01*
G01X386177Y1247421D02*
G02I-1000J0D01*
G01X391177Y1478642D02*
Y1488142D01*
G01X386177Y1483642D02*
G02I-1000J0D01*
G01X461174Y1144625D02*
X461674Y1144244D01*
X461924Y1143801D01*
X462008Y1143294D01*
X461841Y1142661D01*
X461424Y1142218D01*
X460925Y1142091D01*
X460424Y1142155D01*
X460008Y1142408D01*
X459174Y1143674D01*
X458591Y1144244D01*
X457758Y1144625D01*
X457008Y1144751D01*
Y1142091D01*
G01X461174Y1144625D02*
X461674Y1144244D01*
X461924Y1143801D01*
X462008Y1143294D01*
X461841Y1142661D01*
X461424Y1142218D01*
X460925Y1142091D01*
X460424Y1142155D01*
X460008Y1142408D01*
X459174Y1143674D01*
X458591Y1144244D01*
X457758Y1144625D01*
X457008Y1144751D01*
Y1142091D01*
G01Y1166421D02*
X462008D01*
X461008Y1167181D01*
G01X457008D02*
Y1165661D01*
G01Y1166421D02*
X462008D01*
X461008Y1167181D01*
G01X457008D02*
Y1165661D01*
G01X464108Y1164121D02*
X454908D01*
G01Y1145721D02*
X464108D01*
G01X454908Y1164121D02*
Y1145721D01*
G01X461174Y1189625D02*
X461674Y1189244D01*
X461924Y1188801D01*
X462008Y1188294D01*
X461841Y1187661D01*
X461424Y1187218D01*
X460925Y1187091D01*
X460424Y1187155D01*
X460008Y1187408D01*
X459174Y1188674D01*
X458591Y1189244D01*
X457758Y1189625D01*
X457008Y1189751D01*
Y1187091D01*
G01X461174Y1189625D02*
X461674Y1189244D01*
X461924Y1188801D01*
X462008Y1188294D01*
X461841Y1187661D01*
X461424Y1187218D01*
X460925Y1187091D01*
X460424Y1187155D01*
X460008Y1187408D01*
X459174Y1188674D01*
X458591Y1189244D01*
X457758Y1189625D01*
X457008Y1189751D01*
Y1187091D01*
G01X454908Y1190721D02*
X464108D01*
G01X454908Y1209121D02*
Y1190721D01*
G01X457008Y1211421D02*
X462008D01*
X461008Y1212181D01*
G01X457008D02*
Y1210661D01*
G01Y1211421D02*
X462008D01*
X461008Y1212181D01*
G01X457008D02*
Y1210661D01*
G01X464108Y1209121D02*
X454908D01*
G01X461174Y1234625D02*
X461674Y1234244D01*
X461924Y1233801D01*
X462008Y1233294D01*
X461841Y1232661D01*
X461424Y1232218D01*
X460925Y1232091D01*
X460424Y1232155D01*
X460008Y1232408D01*
X459174Y1233674D01*
X458591Y1234244D01*
X457758Y1234625D01*
X457008Y1234751D01*
Y1232091D01*
G01X461174Y1234625D02*
X461674Y1234244D01*
X461924Y1233801D01*
X462008Y1233294D01*
X461841Y1232661D01*
X461424Y1232218D01*
X460925Y1232091D01*
X460424Y1232155D01*
X460008Y1232408D01*
X459174Y1233674D01*
X458591Y1234244D01*
X457758Y1234625D01*
X457008Y1234751D01*
Y1232091D01*
G01X454908Y1235721D02*
X464108D01*
G01X454908Y1254121D02*
Y1235721D01*
G01X457008Y1256421D02*
X462008D01*
X461008Y1257181D01*
G01X457008D02*
Y1255661D01*
G01Y1256421D02*
X462008D01*
X461008Y1257181D01*
G01X457008D02*
Y1255661D01*
G01X464108Y1254121D02*
X454908D01*
G01X461174Y1279625D02*
X461674Y1279244D01*
X461924Y1278801D01*
X462008Y1278294D01*
X461841Y1277661D01*
X461424Y1277218D01*
X460925Y1277091D01*
X460424Y1277155D01*
X460008Y1277408D01*
X459174Y1278674D01*
X458591Y1279244D01*
X457758Y1279625D01*
X457008Y1279751D01*
Y1277091D01*
G01X461174Y1279625D02*
X461674Y1279244D01*
X461924Y1278801D01*
X462008Y1278294D01*
X461841Y1277661D01*
X461424Y1277218D01*
X460925Y1277091D01*
X460424Y1277155D01*
X460008Y1277408D01*
X459174Y1278674D01*
X458591Y1279244D01*
X457758Y1279625D01*
X457008Y1279751D01*
Y1277091D01*
G01Y1301421D02*
X462008D01*
X461008Y1302181D01*
G01X457008D02*
Y1300661D01*
G01Y1301421D02*
X462008D01*
X461008Y1302181D01*
G01X457008D02*
Y1300661D01*
G01X464108Y1299121D02*
X454908D01*
G01Y1280721D02*
X464108D01*
G01X454908Y1299121D02*
Y1280721D01*
G01X461174Y1380845D02*
X461674Y1380465D01*
X461924Y1380022D01*
X462008Y1379515D01*
X461841Y1378882D01*
X461424Y1378438D01*
X460925Y1378312D01*
X460424Y1378375D01*
X460008Y1378628D01*
X459174Y1379895D01*
X458591Y1380465D01*
X457758Y1380845D01*
X457008Y1380972D01*
Y1378312D01*
G01X461174Y1380845D02*
X461674Y1380465D01*
X461924Y1380022D01*
X462008Y1379515D01*
X461841Y1378882D01*
X461424Y1378438D01*
X460925Y1378312D01*
X460424Y1378375D01*
X460008Y1378628D01*
X459174Y1379895D01*
X458591Y1380465D01*
X457758Y1380845D01*
X457008Y1380972D01*
Y1378312D01*
G01X454908Y1381942D02*
X464108D01*
G01X454908Y1400342D02*
Y1381942D01*
G01X457008Y1402642D02*
X462008D01*
X461008Y1403402D01*
G01X457008D02*
Y1401882D01*
G01Y1402642D02*
X462008D01*
X461008Y1403402D01*
G01X457008D02*
Y1401882D01*
G01X464108Y1400342D02*
X454908D01*
G01X461174Y1425845D02*
X461674Y1425465D01*
X461924Y1425022D01*
X462008Y1424515D01*
X461841Y1423882D01*
X461424Y1423438D01*
X460925Y1423312D01*
X460424Y1423375D01*
X460008Y1423628D01*
X459174Y1424895D01*
X458591Y1425465D01*
X457758Y1425845D01*
X457008Y1425972D01*
Y1423312D01*
G01X461174Y1425845D02*
X461674Y1425465D01*
X461924Y1425022D01*
X462008Y1424515D01*
X461841Y1423882D01*
X461424Y1423438D01*
X460925Y1423312D01*
X460424Y1423375D01*
X460008Y1423628D01*
X459174Y1424895D01*
X458591Y1425465D01*
X457758Y1425845D01*
X457008Y1425972D01*
Y1423312D01*
G01X454908Y1426942D02*
X464108D01*
G01X454908Y1445342D02*
Y1426942D01*
G01X457008Y1447642D02*
X462008D01*
X461008Y1448402D01*
G01X457008D02*
Y1446882D01*
G01Y1447642D02*
X462008D01*
X461008Y1448402D01*
G01X457008D02*
Y1446882D01*
G01X464108Y1445342D02*
X454908D01*
G01X461174Y1470845D02*
X461674Y1470465D01*
X461924Y1470022D01*
X462008Y1469515D01*
X461841Y1468882D01*
X461424Y1468438D01*
X460925Y1468312D01*
X460424Y1468375D01*
X460008Y1468628D01*
X459174Y1469895D01*
X458591Y1470465D01*
X457758Y1470845D01*
X457008Y1470972D01*
Y1468312D01*
G01X461174Y1470845D02*
X461674Y1470465D01*
X461924Y1470022D01*
X462008Y1469515D01*
X461841Y1468882D01*
X461424Y1468438D01*
X460925Y1468312D01*
X460424Y1468375D01*
X460008Y1468628D01*
X459174Y1469895D01*
X458591Y1470465D01*
X457758Y1470845D01*
X457008Y1470972D01*
Y1468312D01*
G01X454908Y1471942D02*
X464108D01*
G01X454908Y1490342D02*
Y1471942D01*
G01X457008Y1492642D02*
X462008D01*
X461008Y1493402D01*
G01X457008D02*
Y1491882D01*
G01Y1492642D02*
X462008D01*
X461008Y1493402D01*
G01X457008D02*
Y1491882D01*
G01X464108Y1490342D02*
X454908D01*
G01X461174Y1515845D02*
X461674Y1515465D01*
X461924Y1515022D01*
X462008Y1514515D01*
X461841Y1513882D01*
X461424Y1513438D01*
X460925Y1513312D01*
X460424Y1513375D01*
X460008Y1513628D01*
X459174Y1514895D01*
X458591Y1515465D01*
X457758Y1515845D01*
X457008Y1515972D01*
Y1513312D01*
G01X461174Y1515845D02*
X461674Y1515465D01*
X461924Y1515022D01*
X462008Y1514515D01*
X461841Y1513882D01*
X461424Y1513438D01*
X460925Y1513312D01*
X460424Y1513375D01*
X460008Y1513628D01*
X459174Y1514895D01*
X458591Y1515465D01*
X457758Y1515845D01*
X457008Y1515972D01*
Y1513312D01*
G01X454908Y1516942D02*
X464108D01*
G01X454908Y1535342D02*
Y1516942D01*
G01X457008Y1537642D02*
X462008D01*
X461008Y1538402D01*
G01X457008D02*
Y1536882D01*
G01Y1537642D02*
X462008D01*
X461008Y1538402D01*
G01X457008D02*
Y1536882D01*
G01X464108Y1535342D02*
X454908D01*
G01X480508Y1173738D02*
X480008Y1173421D01*
X479674Y1173041D01*
X479508Y1172598D01*
X479674Y1172091D01*
X480008Y1171711D01*
X480508Y1171331D01*
X481174Y1171205D01*
X484508D01*
G01X483674Y1168575D02*
X484174Y1168194D01*
X484424Y1167751D01*
X484508Y1167244D01*
X484341Y1166611D01*
X483924Y1166168D01*
X483425Y1166041D01*
X482924Y1166105D01*
X482508Y1166358D01*
X481674Y1167624D01*
X481091Y1168194D01*
X480258Y1168575D01*
X479508Y1168701D01*
Y1166041D01*
G01X464108Y1145721D02*
Y1164121D01*
G01Y1190721D02*
Y1209121D01*
G01X480508Y1218738D02*
X480008Y1218421D01*
X479674Y1218041D01*
X479508Y1217598D01*
X479674Y1217091D01*
X480008Y1216711D01*
X480508Y1216331D01*
X481174Y1216205D01*
X484508D01*
G01X480508Y1213765D02*
X479924Y1213385D01*
X479591Y1212878D01*
X479508Y1212308D01*
X479591Y1211801D01*
X480008Y1211294D01*
X480508Y1210978D01*
X481008Y1210915D01*
X481591Y1211041D01*
X482008Y1211485D01*
X482174Y1211928D01*
Y1212498D01*
G01Y1211928D02*
X482424Y1211548D01*
X482841Y1211231D01*
X483341Y1211105D01*
X483841Y1211231D01*
X484258Y1211548D01*
X484508Y1212118D01*
X484424Y1212688D01*
X484091Y1213258D01*
G01X464108Y1235721D02*
Y1254121D01*
G01X482174Y1259465D02*
X482424Y1259211D01*
X482841Y1259021D01*
X483425Y1258894D01*
X483924Y1259021D01*
X484258Y1259274D01*
X484508Y1259718D01*
Y1261428D01*
X479508D01*
Y1259338D01*
X479841Y1258894D01*
X480341Y1258641D01*
X480924Y1258515D01*
X481508Y1258641D01*
X482008Y1259021D01*
X482174Y1259465D01*
Y1261428D01*
G01X483674Y1256075D02*
X484174Y1255694D01*
X484424Y1255251D01*
X484508Y1254744D01*
X484341Y1254111D01*
X483924Y1253668D01*
X483425Y1253541D01*
X482924Y1253605D01*
X482508Y1253858D01*
X481674Y1255124D01*
X481091Y1255694D01*
X480258Y1256075D01*
X479508Y1256201D01*
Y1253541D01*
G01X482174Y1306965D02*
X482424Y1306711D01*
X482841Y1306521D01*
X483425Y1306394D01*
X483924Y1306521D01*
X484258Y1306774D01*
X484508Y1307218D01*
Y1308928D01*
X479508D01*
Y1306838D01*
X479841Y1306394D01*
X480341Y1306141D01*
X480924Y1306015D01*
X481508Y1306141D01*
X482008Y1306521D01*
X482174Y1306965D01*
Y1308928D01*
G01X479508Y1302371D02*
X484508D01*
X483508Y1303131D01*
G01X479508D02*
Y1301611D01*
G01X464108Y1280721D02*
Y1299121D01*
G01Y1381942D02*
Y1400342D01*
G01X480508Y1409958D02*
X480008Y1409642D01*
X479674Y1409262D01*
X479508Y1408819D01*
X479674Y1408312D01*
X480008Y1407932D01*
X480508Y1407552D01*
X481174Y1407425D01*
X484508D01*
G01X483674Y1404795D02*
X484174Y1404415D01*
X484424Y1403972D01*
X484508Y1403465D01*
X484341Y1402832D01*
X483924Y1402388D01*
X483425Y1402262D01*
X482924Y1402325D01*
X482508Y1402578D01*
X481674Y1403845D01*
X481091Y1404415D01*
X480258Y1404795D01*
X479508Y1404922D01*
Y1402262D01*
G01X464108Y1426942D02*
Y1445342D01*
G01X480508Y1454958D02*
X480008Y1454642D01*
X479674Y1454262D01*
X479508Y1453819D01*
X479674Y1453312D01*
X480008Y1452932D01*
X480508Y1452552D01*
X481174Y1452425D01*
X484508D01*
G01X480508Y1449985D02*
X479924Y1449605D01*
X479591Y1449098D01*
X479508Y1448528D01*
X479591Y1448022D01*
X480008Y1447515D01*
X480508Y1447198D01*
X481008Y1447135D01*
X481591Y1447262D01*
X482008Y1447705D01*
X482174Y1448148D01*
Y1448719D01*
G01Y1448148D02*
X482424Y1447769D01*
X482841Y1447452D01*
X483341Y1447325D01*
X483841Y1447452D01*
X484258Y1447769D01*
X484508Y1448339D01*
X484424Y1448908D01*
X484091Y1449478D01*
G01X482174Y1495685D02*
X482424Y1495432D01*
X482841Y1495242D01*
X483425Y1495115D01*
X483924Y1495242D01*
X484258Y1495495D01*
X484508Y1495939D01*
Y1497648D01*
X479508D01*
Y1495558D01*
X479841Y1495115D01*
X480341Y1494862D01*
X480924Y1494735D01*
X481508Y1494862D01*
X482008Y1495242D01*
X482174Y1495685D01*
Y1497648D01*
G01X483674Y1492295D02*
X484174Y1491915D01*
X484424Y1491472D01*
X484508Y1490965D01*
X484341Y1490332D01*
X483924Y1489888D01*
X483425Y1489762D01*
X482924Y1489825D01*
X482508Y1490078D01*
X481674Y1491345D01*
X481091Y1491915D01*
X480258Y1492295D01*
X479508Y1492422D01*
Y1489762D01*
G01X464108Y1471942D02*
Y1490342D01*
G01Y1516942D02*
Y1535342D01*
G01X482174Y1543185D02*
X482424Y1542932D01*
X482841Y1542742D01*
X483425Y1542615D01*
X483924Y1542742D01*
X484258Y1542995D01*
X484508Y1543439D01*
Y1545148D01*
X479508D01*
Y1543058D01*
X479841Y1542615D01*
X480341Y1542362D01*
X480924Y1542235D01*
X481508Y1542362D01*
X482008Y1542742D01*
X482174Y1543185D01*
Y1545148D01*
G01X479508Y1538592D02*
X484508D01*
X483508Y1539352D01*
G01X479508D02*
Y1537832D01*
G01X490565Y1137421D02*
Y1142421D01*
X491831D01*
X492338Y1142171D01*
X492718Y1141838D01*
X493035Y1141338D01*
X493288Y1140754D01*
X493351Y1139921D01*
X493288Y1139088D01*
X493035Y1138504D01*
X492718Y1138004D01*
X492338Y1137671D01*
X491831Y1137421D01*
X490565D01*
G01X497058D02*
Y1142421D01*
X496298Y1141421D01*
G01Y1137421D02*
X497818D01*
G01X502658Y1142571D02*
Y1137271D01*
G01X511358D02*
Y1142571D01*
G01X502658Y1137271D02*
X511358D01*
G01D02*
Y1142571D01*
G01X508758Y1137271D02*
X511358D01*
G01X508758Y1142571D02*
Y1137271D01*
G01X502658D02*
X505258D01*
G01X502658Y1142571D02*
Y1137271D01*
G01X505258D02*
Y1142571D01*
G01X511358D02*
X502658D01*
G01X511358D02*
X508758D01*
G01X505258D02*
X502658D01*
G01X492258Y1309921D02*
Y1169921D01*
G01D02*
X521758D01*
G01X490408Y1173321D02*
X492258D01*
G01X490408Y1176521D02*
Y1173321D01*
G01X492258Y1176521D02*
X490408D01*
G01X492258Y1173321D02*
Y1176521D01*
G01X490408Y1183321D02*
X492258D01*
G01X490408Y1186521D02*
Y1183321D01*
G01X492258Y1186521D02*
X490408D01*
G01X492258Y1183321D02*
Y1186521D01*
G01X490408Y1193321D02*
X492258D01*
G01X490408Y1196521D02*
Y1193321D01*
G01X492258D02*
Y1196521D01*
G01D02*
X490408D01*
G01Y1203321D02*
X492258D01*
G01X490408Y1206521D02*
Y1203321D01*
G01X492258Y1206521D02*
X490408D01*
G01X492258Y1203321D02*
Y1206521D01*
G01X490408Y1213321D02*
X492258D01*
G01X490408Y1216521D02*
Y1213321D01*
G01X492258Y1216521D02*
X490408D01*
G01X492258Y1213321D02*
Y1216521D01*
G01X490408Y1223321D02*
X492258D01*
G01X490408Y1226521D02*
Y1223321D01*
G01X492258Y1226521D02*
X490408D01*
G01X492258Y1223321D02*
Y1226521D01*
G01X490408Y1233321D02*
X492258D01*
G01X490408Y1236521D02*
Y1233321D01*
G01X492258Y1236521D02*
X490408D01*
G01X492258Y1233321D02*
Y1236521D01*
G01X490408Y1243321D02*
X492258D01*
G01X490408Y1246521D02*
Y1243321D01*
G01X492258Y1246521D02*
X490408D01*
G01X492258Y1243321D02*
Y1246521D01*
G01X490408Y1253321D02*
X492258D01*
G01X490408Y1256521D02*
Y1253321D01*
G01X492258Y1256521D02*
X490408D01*
G01X492258Y1253321D02*
Y1256521D01*
G01X490408Y1263321D02*
X492258D01*
G01X490408Y1266521D02*
Y1263321D01*
G01X492258Y1266521D02*
X490408D01*
G01X492258Y1263321D02*
Y1266521D01*
G01X490408Y1273321D02*
X492258D01*
G01X490408Y1276521D02*
Y1273321D01*
G01X492258D02*
Y1276521D01*
G01X491865Y1302255D02*
X494651Y1305921D01*
G01X493258Y1306588D02*
Y1301588D01*
G01X494651Y1302255D02*
X491865Y1305921D01*
G01X491358Y1304088D02*
X495158D01*
G01X492258Y1276521D02*
X490408D01*
G01Y1283321D02*
X492258D01*
G01X490408Y1286521D02*
Y1283321D01*
G01X492258Y1286521D02*
X490408D01*
G01X492258Y1283321D02*
Y1286521D01*
G01X490408Y1293321D02*
X492258D01*
G01X490408Y1296521D02*
Y1293321D01*
G01X492258Y1296521D02*
X490408D01*
G01X492258Y1293321D02*
Y1296521D01*
G01X488065Y1319921D02*
Y1316338D01*
X488318Y1315588D01*
X488824Y1315088D01*
X489458Y1314921D01*
X490091Y1315088D01*
X490598Y1315588D01*
X490851Y1316338D01*
Y1319921D01*
G01X494558Y1314921D02*
Y1319921D01*
X493798Y1318921D01*
G01Y1314921D02*
X495318D01*
G01X505808Y1309921D02*
G03X508208I1200J0D01*
G01X521758D02*
X492258D01*
G01X490408Y1303321D02*
X492258D01*
G01X490408Y1306521D02*
Y1303321D01*
G01X492258Y1306521D02*
X490408D01*
G01X492258Y1303321D02*
Y1306521D01*
G01X490565Y1373642D02*
Y1378642D01*
X491831D01*
X492338Y1378392D01*
X492718Y1378058D01*
X493035Y1377559D01*
X493288Y1376975D01*
X493351Y1376142D01*
X493288Y1375308D01*
X493035Y1374725D01*
X492718Y1374225D01*
X492338Y1373892D01*
X491831Y1373642D01*
X490565D01*
G01X497058D02*
Y1378642D01*
X496298Y1377642D01*
G01Y1373642D02*
X497818D01*
G01X502658Y1378792D02*
Y1373492D01*
G01X511358Y1378792D02*
X502658D01*
G01X511358Y1373492D02*
Y1378792D01*
G01X502658Y1373492D02*
X511358D01*
G01Y1378792D02*
X508758D01*
G01X511358Y1373492D02*
Y1378792D01*
G01X508758Y1373492D02*
X511358D01*
G01X508758Y1378792D02*
Y1373492D01*
G01X502658D02*
X505258D01*
G01X502658Y1378792D02*
Y1373492D01*
G01X505258Y1378792D02*
X502658D01*
G01X505258Y1373492D02*
Y1378792D01*
G01X492258Y1546142D02*
Y1406142D01*
G01D02*
X521758D01*
G01X490408Y1409542D02*
X492258D01*
G01X490408Y1412742D02*
Y1409542D01*
G01X492258Y1412742D02*
X490408D01*
G01X492258Y1409542D02*
Y1412742D01*
G01X490408Y1419542D02*
X492258D01*
G01X490408Y1422742D02*
Y1419542D01*
G01X492258Y1422742D02*
X490408D01*
G01X492258Y1419542D02*
Y1422742D01*
G01X490408Y1429542D02*
X492258D01*
G01X490408Y1432742D02*
Y1429542D01*
G01X492258Y1432742D02*
X490408D01*
G01X492258Y1429542D02*
Y1432742D01*
G01X490408Y1439542D02*
X492258D01*
G01X490408Y1442742D02*
Y1439542D01*
G01X492258Y1442742D02*
X490408D01*
G01X492258Y1439542D02*
Y1442742D01*
G01X490408Y1449542D02*
X492258D01*
G01X490408Y1452742D02*
Y1449542D01*
G01X492258Y1452742D02*
X490408D01*
G01X492258Y1449542D02*
Y1452742D01*
G01X490408Y1459542D02*
X492258D01*
G01X490408Y1462742D02*
Y1459542D01*
G01X492258Y1462742D02*
X490408D01*
G01X492258Y1459542D02*
Y1462742D01*
G01X490408Y1469542D02*
X492258D01*
G01X490408Y1472742D02*
Y1469542D01*
G01X492258Y1472742D02*
X490408D01*
G01X492258Y1469542D02*
Y1472742D01*
G01X490408Y1479542D02*
X492258D01*
G01X490408Y1482742D02*
Y1479542D01*
G01X492258Y1482742D02*
X490408D01*
G01X492258Y1479542D02*
Y1482742D01*
G01X490408Y1489542D02*
X492258D01*
G01X490408Y1492742D02*
Y1489542D01*
G01X492258D02*
Y1492742D01*
G01D02*
X490408D01*
G01Y1499542D02*
X492258D01*
G01X490408Y1502742D02*
Y1499542D01*
G01X492258Y1502742D02*
X490408D01*
G01X492258Y1499542D02*
Y1502742D01*
G01X490408Y1509542D02*
X492258D01*
G01X490408Y1512742D02*
Y1509542D01*
G01X492258Y1512742D02*
X490408D01*
G01X492258Y1509542D02*
Y1512742D01*
G01X491865Y1538475D02*
X494651Y1542142D01*
G01X493258Y1542808D02*
Y1537808D01*
G01X494651Y1538475D02*
X491865Y1542142D01*
G01X491358Y1540308D02*
X495158D01*
G01X490408Y1519542D02*
X492258D01*
G01X490408Y1522742D02*
Y1519542D01*
G01X492258Y1522742D02*
X490408D01*
G01X492258Y1519542D02*
Y1522742D01*
G01X490408Y1529542D02*
X492258D01*
G01X490408Y1532742D02*
Y1529542D01*
G01X492258Y1532742D02*
X490408D01*
G01X492258Y1529542D02*
Y1532742D01*
G01X490408Y1539542D02*
X492258D01*
G01X490408Y1542742D02*
Y1539542D01*
G01X492258Y1542742D02*
X490408D01*
G01X492258Y1539542D02*
Y1542742D01*
G01X488065Y1556142D02*
Y1552558D01*
X488318Y1551808D01*
X488824Y1551308D01*
X489458Y1551142D01*
X490091Y1551308D01*
X490598Y1551808D01*
X490851Y1552558D01*
Y1556142D01*
G01X494558Y1551142D02*
Y1556142D01*
X493798Y1555142D01*
G01Y1551142D02*
X495318D01*
G01X505808Y1546142D02*
G03X508208I1200J0D01*
G01X521758D02*
X492258D01*
G01X521758Y1169921D02*
Y1309921D01*
G01X523608Y1193321D02*
Y1196521D01*
G01X521758Y1193321D02*
X523608D01*
G01X521758Y1196521D02*
Y1193321D01*
G01X523608Y1186521D02*
X521758D01*
G01X523608Y1183321D02*
Y1186521D01*
G01X521758Y1183321D02*
X523608D01*
G01X521758Y1186521D02*
Y1183321D01*
G01X523608Y1176521D02*
X521758D01*
G01X523608Y1173321D02*
Y1176521D01*
G01X521758Y1173321D02*
X523608D01*
G01X521758Y1176521D02*
Y1173321D01*
G01X523608Y1216521D02*
X521758D01*
G01X523608Y1213321D02*
Y1216521D01*
G01X521758Y1213321D02*
X523608D01*
G01X521758Y1216521D02*
Y1213321D01*
G01X523608Y1206521D02*
X521758D01*
G01X523608Y1203321D02*
Y1206521D01*
G01X521758Y1203321D02*
X523608D01*
G01X521758Y1206521D02*
Y1203321D01*
G01X523608Y1196521D02*
X521758D01*
G01X535565Y1227421D02*
Y1232421D01*
G01X537971D02*
X535565Y1229338D01*
G01X538351Y1227421D02*
X536641Y1230754D01*
G01X542058Y1227421D02*
Y1232421D01*
X541298Y1231421D01*
G01Y1227421D02*
X542818D01*
G01X523608Y1246521D02*
X521758D01*
G01X523608Y1243321D02*
Y1246521D01*
G01X521758Y1243321D02*
X523608D01*
G01X521758Y1246521D02*
Y1243321D01*
G01X523608Y1236521D02*
X521758D01*
G01X523608Y1233321D02*
Y1236521D01*
G01X521758Y1233321D02*
X523608D01*
G01X521758Y1236521D02*
Y1233321D01*
G01X523608Y1226521D02*
X521758D01*
G01X523608Y1223321D02*
Y1226521D01*
G01X521758Y1223321D02*
X523608D01*
G01X521758Y1226521D02*
Y1223321D01*
G01X523608Y1273321D02*
Y1276521D01*
G01X521758Y1273321D02*
X523608D01*
G01X521758Y1276521D02*
Y1273321D01*
G01X523608Y1266521D02*
X521758D01*
G01X523608Y1263321D02*
Y1266521D01*
G01X521758Y1263321D02*
X523608D01*
G01X521758Y1266521D02*
Y1263321D01*
G01X523608Y1256521D02*
X521758D01*
G01X523608Y1253321D02*
Y1256521D01*
G01X521758Y1253321D02*
X523608D01*
G01X521758Y1256521D02*
Y1253321D01*
G01X523608Y1296521D02*
X521758D01*
G01X523608Y1293321D02*
Y1296521D01*
G01X521758Y1293321D02*
X523608D01*
G01X521758Y1296521D02*
Y1293321D01*
G01X523608Y1286521D02*
X521758D01*
G01X523608Y1283321D02*
Y1286521D01*
G01X521758Y1283321D02*
X523608D01*
G01X521758Y1286521D02*
Y1283321D01*
G01X523608Y1276521D02*
X521758D01*
G01X523608Y1306521D02*
X521758D01*
G01X523608Y1303321D02*
Y1306521D01*
G01X521758Y1303321D02*
X523608D01*
G01X521758Y1306521D02*
Y1303321D01*
G01Y1406142D02*
Y1546142D01*
G01X523608Y1432742D02*
X521758D01*
G01X523608Y1429542D02*
Y1432742D01*
G01X521758Y1429542D02*
X523608D01*
G01X521758Y1432742D02*
Y1429542D01*
G01X523608Y1422742D02*
X521758D01*
G01X523608Y1419542D02*
Y1422742D01*
G01X521758Y1419542D02*
X523608D01*
G01X521758Y1422742D02*
Y1419542D01*
G01X523608Y1412742D02*
X521758D01*
G01X523608Y1409542D02*
Y1412742D01*
G01X521758Y1409542D02*
X523608D01*
G01X521758Y1412742D02*
Y1409542D01*
G01X535565Y1463642D02*
Y1468642D01*
G01X537971D02*
X535565Y1465558D01*
G01X538351Y1463642D02*
X536641Y1466975D01*
G01X542058Y1463642D02*
Y1468642D01*
X541298Y1467642D01*
G01Y1463642D02*
X542818D01*
G01X523608Y1462742D02*
X521758D01*
G01X523608Y1459542D02*
Y1462742D01*
G01X521758Y1459542D02*
X523608D01*
G01X521758Y1462742D02*
Y1459542D01*
G01X523608Y1452742D02*
X521758D01*
G01X523608Y1449542D02*
Y1452742D01*
G01X521758Y1449542D02*
X523608D01*
G01X521758Y1452742D02*
Y1449542D01*
G01X523608Y1442742D02*
X521758D01*
G01X523608Y1439542D02*
Y1442742D01*
G01X521758Y1439542D02*
X523608D01*
G01X521758Y1442742D02*
Y1439542D01*
G01X523608Y1489542D02*
Y1492742D01*
G01X521758Y1489542D02*
X523608D01*
G01X521758Y1492742D02*
Y1489542D01*
G01X523608Y1482742D02*
X521758D01*
G01X523608Y1479542D02*
Y1482742D01*
G01X521758Y1479542D02*
X523608D01*
G01X521758Y1482742D02*
Y1479542D01*
G01X523608Y1472742D02*
X521758D01*
G01X523608Y1469542D02*
Y1472742D01*
G01X521758Y1469542D02*
X523608D01*
G01X521758Y1472742D02*
Y1469542D01*
G01X523608Y1512742D02*
X521758D01*
G01X523608Y1509542D02*
Y1512742D01*
G01X521758Y1509542D02*
X523608D01*
G01X521758Y1512742D02*
Y1509542D01*
G01X523608Y1502742D02*
X521758D01*
G01X523608Y1499542D02*
Y1502742D01*
G01X521758Y1499542D02*
X523608D01*
G01X521758Y1502742D02*
Y1499542D01*
G01X523608Y1492742D02*
X521758D01*
G01X523608Y1542742D02*
X521758D01*
G01X523608Y1539542D02*
Y1542742D01*
G01X521758Y1539542D02*
X523608D01*
G01X521758Y1542742D02*
Y1539542D01*
G01X523608Y1532742D02*
X521758D01*
G01X523608Y1529542D02*
Y1532742D01*
G01X521758Y1529542D02*
X523608D01*
G01X521758Y1532742D02*
Y1529542D01*
G01X523608Y1522742D02*
X521758D01*
G01X523608Y1519542D02*
Y1522742D01*
G01X521758Y1519542D02*
X523608D01*
G01X521758Y1522742D02*
Y1519542D01*
G01X544469Y1149212D02*
X629508D01*
G01X544469Y1210630D02*
Y1149212D01*
G01X554508Y1145712D02*
X557008D01*
G01X554508Y1143212D02*
Y1148212D01*
G01X548105Y1174504D02*
X542688D01*
G01X548105Y1185338D02*
Y1174504D01*
G01X542688Y1185338D02*
X548105D01*
G01X544469Y1210630D02*
X629508D01*
G01X562008Y1297721D02*
Y1258321D01*
G01D02*
X612008D01*
G01Y1297721D02*
X562008D01*
G01X550565Y1317421D02*
Y1313838D01*
X550818Y1313088D01*
X551324Y1312588D01*
X551958Y1312421D01*
X552591Y1312588D01*
X553098Y1313088D01*
X553351Y1313838D01*
Y1317421D01*
G01X555665Y1313421D02*
X556044Y1312838D01*
X556551Y1312505D01*
X557121Y1312421D01*
X557628Y1312505D01*
X558135Y1312921D01*
X558451Y1313421D01*
X558515Y1313921D01*
X558388Y1314504D01*
X557944Y1314921D01*
X557501Y1315088D01*
X556931D01*
G01X557501D02*
X557881Y1315338D01*
X558198Y1315754D01*
X558324Y1316255D01*
X558198Y1316755D01*
X557881Y1317171D01*
X557311Y1317421D01*
X556741Y1317338D01*
X556171Y1317005D01*
G01X554508Y1381933D02*
X557008D01*
G01X554508Y1379433D02*
Y1384433D01*
G01X544469Y1385433D02*
X629508D01*
G01X544469Y1446851D02*
Y1385433D01*
G01X548105Y1410725D02*
X542688D01*
G01X548105Y1421559D02*
Y1410725D01*
G01X542688Y1421559D02*
X548105D01*
G01X544469Y1446851D02*
X629508D01*
G01X562008Y1533942D02*
Y1494542D01*
G01D02*
X612008D01*
G01Y1533942D02*
X562008D01*
G01X550565Y1553642D02*
Y1550058D01*
X550818Y1549308D01*
X551324Y1548808D01*
X551958Y1548642D01*
X552591Y1548808D01*
X553098Y1549308D01*
X553351Y1550058D01*
Y1553642D01*
G01X555665Y1549642D02*
X556044Y1549058D01*
X556551Y1548725D01*
X557121Y1548642D01*
X557628Y1548725D01*
X558135Y1549142D01*
X558451Y1549642D01*
X558515Y1550142D01*
X558388Y1550725D01*
X557944Y1551142D01*
X557501Y1551308D01*
X556931D01*
G01X557501D02*
X557881Y1551558D01*
X558198Y1551975D01*
X558324Y1552475D01*
X558198Y1552975D01*
X557881Y1553392D01*
X557311Y1553642D01*
X556741Y1553558D01*
X556171Y1553225D01*
G01X612008Y1258321D02*
Y1297721D01*
G01Y1494542D02*
Y1533942D01*
G01X629508Y1210630D02*
Y1149212D01*
G01X638078Y1255588D02*
X638585Y1255171D01*
X639155Y1254921D01*
X639661D01*
X640168Y1255171D01*
X640548Y1255588D01*
X640738Y1256171D01*
X640611Y1256754D01*
X640294Y1257255D01*
X639724Y1257588D01*
X638965Y1257755D01*
X638521Y1258088D01*
X638331Y1258671D01*
X638458Y1259255D01*
X638774Y1259671D01*
X639218Y1259921D01*
X639661D01*
X640105Y1259755D01*
X640485Y1259338D01*
G01X643115Y1254921D02*
Y1259921D01*
X644381D01*
X644888Y1259671D01*
X645268Y1259338D01*
X645585Y1258838D01*
X645838Y1258254D01*
X645901Y1257421D01*
X645838Y1256588D01*
X645585Y1256004D01*
X645268Y1255504D01*
X644888Y1255171D01*
X644381Y1254921D01*
X643115D01*
G01X649608D02*
Y1259921D01*
X648848Y1258921D01*
G01Y1254921D02*
X650368D01*
G01X637965Y1317421D02*
Y1322421D01*
X639231D01*
X639738Y1322171D01*
X640118Y1321838D01*
X640435Y1321338D01*
X640688Y1320754D01*
X640751Y1319921D01*
X640688Y1319088D01*
X640435Y1318504D01*
X640118Y1318004D01*
X639738Y1317671D01*
X639231Y1317421D01*
X637965D01*
G01X643128D02*
Y1322421D01*
G01X645788D02*
Y1317421D01*
G01Y1319921D02*
X643128D01*
G01X649558Y1322421D02*
Y1317421D01*
G01X648101Y1322421D02*
X651015D01*
G01X654658Y1317421D02*
Y1322421D01*
X653898Y1321421D01*
G01Y1317421D02*
X655418D01*
G01X629508Y1446851D02*
Y1385433D01*
G01X638078Y1491808D02*
X638585Y1491392D01*
X639155Y1491142D01*
X639661D01*
X640168Y1491392D01*
X640548Y1491808D01*
X640738Y1492392D01*
X640611Y1492975D01*
X640294Y1493475D01*
X639724Y1493808D01*
X638965Y1493975D01*
X638521Y1494308D01*
X638331Y1494892D01*
X638458Y1495475D01*
X638774Y1495892D01*
X639218Y1496142D01*
X639661D01*
X640105Y1495975D01*
X640485Y1495558D01*
G01X643115Y1491142D02*
Y1496142D01*
X644381D01*
X644888Y1495892D01*
X645268Y1495558D01*
X645585Y1495059D01*
X645838Y1494475D01*
X645901Y1493642D01*
X645838Y1492808D01*
X645585Y1492225D01*
X645268Y1491725D01*
X644888Y1491392D01*
X644381Y1491142D01*
X643115D01*
G01X649608D02*
Y1496142D01*
X648848Y1495142D01*
G01Y1491142D02*
X650368D01*
G01X637965Y1553642D02*
Y1558642D01*
X639231D01*
X639738Y1558392D01*
X640118Y1558058D01*
X640435Y1557559D01*
X640688Y1556975D01*
X640751Y1556142D01*
X640688Y1555308D01*
X640435Y1554725D01*
X640118Y1554225D01*
X639738Y1553892D01*
X639231Y1553642D01*
X637965D01*
G01X643128D02*
Y1558642D01*
G01X645788D02*
Y1553642D01*
G01Y1556142D02*
X643128D01*
G01X649558Y1558642D02*
Y1553642D01*
G01X648101Y1558642D02*
X651015D01*
G01X654658Y1553642D02*
Y1558642D01*
X653898Y1557642D01*
G01Y1553642D02*
X655418D01*
G01X663508Y1242421D02*
X745508D01*
G01X663508Y1251921D02*
Y1242421D01*
G01X745508Y1251921D02*
X663508D01*
G01X664508Y1274921D02*
X674508D01*
G01X664508Y1314921D02*
Y1274921D01*
G01X674508Y1314921D02*
X664508D01*
G01X674508Y1313921D02*
X664508D01*
G01Y1314921D02*
Y1313921D01*
G01X663508Y1478642D02*
X745508D01*
G01X663508Y1488142D02*
Y1478642D01*
G01X745508Y1488142D02*
X663508D01*
G01X664508Y1511142D02*
X674508D01*
G01X664508Y1551142D02*
Y1511142D01*
G01X674508Y1551142D02*
X664508D01*
G01X674508Y1550142D02*
X664508D01*
G01Y1551142D02*
Y1550142D01*
G01X674508Y1274921D02*
Y1314921D01*
G01X694761D02*
Y1319921D01*
X696408Y1315755D01*
X698055Y1319921D01*
Y1314921D01*
G01X700178Y1315588D02*
X700685Y1315171D01*
X701255Y1314921D01*
X701761D01*
X702268Y1315171D01*
X702648Y1315588D01*
X702838Y1316171D01*
X702711Y1316754D01*
X702394Y1317255D01*
X701824Y1317588D01*
X701065Y1317755D01*
X700621Y1318088D01*
X700431Y1318671D01*
X700558Y1319255D01*
X700874Y1319671D01*
X701318Y1319921D01*
X701761D01*
X702205Y1319755D01*
X702585Y1319338D01*
G01X706608Y1314921D02*
Y1319921D01*
X705848Y1318921D01*
G01Y1314921D02*
X707368D01*
G01X674508D02*
Y1313921D01*
G01Y1511142D02*
Y1551142D01*
G01X694761D02*
Y1556142D01*
X696408Y1551975D01*
X698055Y1556142D01*
Y1551142D01*
G01X700178Y1551808D02*
X700685Y1551392D01*
X701255Y1551142D01*
X701761D01*
X702268Y1551392D01*
X702648Y1551808D01*
X702838Y1552392D01*
X702711Y1552975D01*
X702394Y1553475D01*
X701824Y1553808D01*
X701065Y1553975D01*
X700621Y1554308D01*
X700431Y1554892D01*
X700558Y1555475D01*
X700874Y1555892D01*
X701318Y1556142D01*
X701761D01*
X702205Y1555975D01*
X702585Y1555558D01*
G01X706608Y1551142D02*
Y1556142D01*
X705848Y1555142D01*
G01Y1551142D02*
X707368D01*
G01X674508D02*
Y1550142D01*
G01X745508Y1242421D02*
Y1251921D01*
G01X740508Y1247421D02*
G02I-1000J0D01*
G01X745508Y1478642D02*
Y1488142D01*
G01X740508Y1483642D02*
G02I-1000J0D01*
M02*
