G04 ================== begin FILE IDENTIFICATION RECORD ==================*
G04 Layout Name:  C:/Users/jb7008/irrigation_project/panel/panelized_board.brd*
G04 Film Name:    SOLDERMASK_BOTTOM*
G04 File Format:  Gerber RS274X*
G04 File Origin:  Cadence Allegro 17.4-S016*
G04 Origin Date:  Mon Apr 18 12:26:16 2022*
G04 *
G04 Layer:  VIA CLASS/SOLDERMASK_BOTTOM*
G04 Layer:  PIN/SOLDERMASK_BOTTOM*
G04 Layer:  DRC ERROR CLASS/SOLDERMASK_BOTTOM*
G04 *
G04 Offset:    (0.0000 0.0000)*
G04 Mirror:    No*
G04 Mode:      Positive*
G04 Rotation:  0*
G04 FullContactRelief:  No*
G04 UndefLineWidth:     5.0000*
G04 ================== end FILE IDENTIFICATION RECORD ====================*
%FSLAX25Y25*MOIN*%
%IR0*IPPOS*OFA0.00000B0.00000*MIA0B0*SFA1.00000B1.00000*%
%AMMACRO10*
4,1,12,-.019685,-.07874,
.019685,-.07874,
.019685,-.019685,
.07874,-.019685,
.07874,.019685,
.019685,.019685,
.019685,.07874,
-.019685,.07874,
-.019685,.019685,
-.07874,.019685,
-.07874,-.019685,
-.019685,-.019685,
-.019685,-.07874,
0.0*
%
%ADD10MACRO10*%
%ADD22R,.017748X.043748*%
%ADD19R,.078X.022*%
%ADD16R,.098X.037*%
%ADD20R,.04X.053*%
%ADD17C,.06*%
%ADD25C,.061811*%
%ADD11C,.065*%
%ADD13C,.052*%
%ADD12C,.044*%
%ADD15C,.071181*%
%ADD24R,.06X.06*%
%ADD21R,.055X.213*%
%ADD26R,.061811X.061811*%
%ADD23C,.055*%
%ADD14R,.052X.052*%
%ADD27R,.034X.038*%
%ADD18R,.273X.267*%
%LPD*%
G75*
G54D10*
X19685Y19685D03*
Y1673228D03*
X1240157Y19685D03*
Y1673228D03*
G54D11*
X502815Y181417D03*
Y191417D03*
Y226417D03*
Y236417D03*
Y271417D03*
Y281417D03*
Y316417D03*
Y326417D03*
Y575118D03*
Y585118D03*
Y620118D03*
Y630118D03*
Y665118D03*
Y675118D03*
Y710118D03*
Y720118D03*
Y968819D03*
Y978819D03*
Y1013819D03*
Y1023819D03*
Y1058819D03*
Y1068819D03*
Y1103819D03*
Y1113819D03*
Y1362520D03*
Y1372520D03*
Y1407520D03*
Y1417520D03*
Y1452520D03*
Y1462520D03*
Y1497520D03*
Y1507520D03*
G54D20*
X689065Y196417D03*
X696565D03*
X689065Y213917D03*
X696565D03*
X689065Y590118D03*
X696565D03*
X689065Y607618D03*
X696565D03*
X689065Y983819D03*
X696565D03*
X689065Y1001319D03*
X696565D03*
X689065Y1377520D03*
X696565D03*
X689065Y1395020D03*
X696565D03*
X716565Y196417D03*
X724065D03*
X716565Y213917D03*
X724065D03*
X711565Y233917D03*
X719065D03*
X711565Y253917D03*
X719065D03*
X716565Y590118D03*
X724065D03*
X716565Y607618D03*
X724065D03*
X711565Y627618D03*
X719065D03*
X711565Y647618D03*
X719065D03*
X716565Y983819D03*
X724065D03*
X716565Y1001319D03*
X724065D03*
X711565Y1021319D03*
X719065D03*
X711565Y1041319D03*
X719065D03*
X716565Y1377520D03*
X724065D03*
X716565Y1395020D03*
X724065D03*
X711565Y1415020D03*
X719065D03*
X711565Y1435020D03*
X719065D03*
X751565Y196417D03*
Y213917D03*
X749065Y233917D03*
X756565D03*
X751565Y590118D03*
X749065Y627618D03*
X756565D03*
X751565Y607618D03*
Y983819D03*
Y1001319D03*
X749065Y1021319D03*
X756565D03*
X751565Y1377520D03*
Y1395020D03*
X749065Y1415020D03*
X756565D03*
X759065Y196417D03*
Y213917D03*
Y590118D03*
Y607618D03*
Y983819D03*
Y1001319D03*
Y1377520D03*
Y1395020D03*
G54D21*
X687815Y235367D03*
Y272467D03*
Y629068D03*
Y666168D03*
Y1022769D03*
Y1059869D03*
Y1416470D03*
Y1453570D03*
G54D12*
X539215Y171417D03*
Y565118D03*
Y958819D03*
Y1352520D03*
X569215Y249817D03*
Y643518D03*
Y1037219D03*
Y1430920D03*
X617815Y261417D03*
Y655118D03*
Y1048819D03*
Y1442520D03*
X664165Y210017D03*
X675665Y247317D03*
X661665Y233917D03*
X672465Y246417D03*
Y278469D03*
X662765Y285117D03*
X668165Y296417D03*
X664165Y603718D03*
X661665Y627618D03*
X675665Y641018D03*
X672465Y640118D03*
X662765Y678818D03*
X672465Y672169D03*
X668165Y690118D03*
X664165Y997419D03*
X675665Y1034719D03*
X661665Y1021319D03*
X672465Y1033819D03*
X662765Y1072519D03*
X668165Y1083819D03*
X672465Y1065870D03*
X664165Y1391120D03*
X675665Y1428420D03*
X661665Y1415020D03*
X672465Y1427520D03*
Y1459571D03*
X662765Y1466220D03*
X668165Y1477520D03*
X699865Y223917D03*
X687815Y220719D03*
X700865Y233917D03*
Y285117D03*
X687815Y292317D03*
X683765Y308917D03*
X685515Y316417D03*
X699865Y617618D03*
X687815Y614419D03*
X700865Y627618D03*
Y678818D03*
X683765Y702618D03*
X685515Y710118D03*
X687815Y686018D03*
X699865Y1011319D03*
X687815Y1008120D03*
X700865Y1021319D03*
Y1072519D03*
X687815Y1079719D03*
X683765Y1096319D03*
X685515Y1103819D03*
X699865Y1405020D03*
X687815Y1401821D03*
X700865Y1415020D03*
X683765Y1490020D03*
X700865Y1466220D03*
X687815Y1473420D03*
X685515Y1497520D03*
X730059Y178762D03*
X727765Y196417D03*
X729165Y207517D03*
X707665Y267567D03*
X730059Y572463D03*
X727765Y590118D03*
X729165Y601218D03*
X707665Y661268D03*
X730059Y966164D03*
X727765Y983819D03*
X729165Y994919D03*
X707665Y1054969D03*
X730059Y1359865D03*
X727765Y1377520D03*
X729165Y1388620D03*
X707665Y1448670D03*
X757172Y179562D03*
X755627Y185295D03*
X746015Y216417D03*
X742815D03*
X757172Y573263D03*
X755627Y578996D03*
X746015Y610118D03*
X742815D03*
X757172Y966964D03*
X755627Y972697D03*
X746015Y1003819D03*
X742815D03*
X757172Y1360665D03*
X755627Y1366398D03*
X746015Y1397520D03*
X742815D03*
X782559Y187795D03*
X763065Y196417D03*
X761865Y210217D03*
X782165D03*
X779865Y251417D03*
X761865Y603918D03*
X782165D03*
X782559Y581496D03*
X763065Y590118D03*
X779865Y645118D03*
X782559Y975197D03*
X761865Y997619D03*
X782165D03*
X763065Y983819D03*
X779865Y1038819D03*
X782559Y1368898D03*
X763065Y1377520D03*
X761865Y1391320D03*
X782165D03*
X779865Y1432520D03*
X785315Y191519D03*
X793965Y220719D03*
X784165Y242517D03*
X794665Y233917D03*
X785315Y585219D03*
X794665Y627618D03*
X793965Y614419D03*
X784165Y636218D03*
X785315Y978920D03*
X784165Y1029919D03*
X794665Y1021319D03*
X793965Y1008120D03*
X785315Y1372621D03*
X793965Y1401821D03*
X784165Y1423620D03*
X794665Y1415020D03*
G54D13*
X535315Y216417D03*
Y226417D03*
Y206417D03*
Y236417D03*
Y246417D03*
Y276417D03*
Y256417D03*
Y266417D03*
Y286417D03*
Y296417D03*
Y306417D03*
Y326417D03*
Y316417D03*
Y600118D03*
Y610118D03*
Y620118D03*
Y630118D03*
Y640118D03*
Y650118D03*
Y670118D03*
Y680118D03*
Y660118D03*
Y690118D03*
Y700118D03*
Y710118D03*
Y720118D03*
Y1003819D03*
Y993819D03*
Y1013819D03*
Y1023819D03*
Y1033819D03*
Y1043819D03*
Y1053819D03*
Y1063819D03*
Y1073819D03*
Y1083819D03*
Y1113819D03*
Y1093819D03*
Y1103819D03*
Y1397520D03*
Y1407520D03*
Y1387520D03*
Y1417520D03*
Y1427520D03*
Y1437520D03*
Y1457520D03*
Y1447520D03*
Y1467520D03*
Y1477520D03*
Y1487520D03*
Y1507520D03*
Y1497520D03*
X565315Y226417D03*
Y216417D03*
Y206417D03*
Y246417D03*
Y236417D03*
Y276417D03*
Y256417D03*
Y266417D03*
Y306417D03*
Y296417D03*
Y286417D03*
Y326417D03*
Y316417D03*
Y336417D03*
Y600118D03*
Y630118D03*
Y620118D03*
Y610118D03*
Y640118D03*
Y650118D03*
Y680118D03*
Y670118D03*
Y660118D03*
Y710118D03*
Y700118D03*
Y690118D03*
Y730118D03*
Y720118D03*
Y1003819D03*
Y993819D03*
Y1033819D03*
Y1023819D03*
Y1013819D03*
Y1043819D03*
Y1053819D03*
Y1083819D03*
Y1073819D03*
Y1063819D03*
Y1113819D03*
Y1103819D03*
Y1093819D03*
Y1123819D03*
Y1407520D03*
Y1397520D03*
Y1387520D03*
Y1427520D03*
Y1417520D03*
Y1437520D03*
Y1457520D03*
Y1447520D03*
Y1487520D03*
Y1477520D03*
Y1467520D03*
Y1517520D03*
Y1507520D03*
Y1497520D03*
G54D22*
X707815Y182460D03*
X705059Y175374D03*
X710571D03*
X707815Y576161D03*
X705059Y569075D03*
X710571D03*
X707815Y969862D03*
X705059Y962776D03*
X710571D03*
X705059Y1356477D03*
X710571D03*
X707815Y1363563D03*
X732815Y182460D03*
X730059Y175374D03*
X735571D03*
X732815Y576161D03*
X730059Y569075D03*
X735571D03*
X732815Y969862D03*
X730059Y962776D03*
X735571D03*
X730059Y1356477D03*
X735571D03*
X732815Y1363563D03*
X760315Y182460D03*
X757559Y175374D03*
X763071D03*
X782559D03*
X760315Y576161D03*
X757559Y569075D03*
X763071D03*
X782559D03*
X760315Y969862D03*
X757559Y962776D03*
X763071D03*
X782559D03*
X757559Y1356477D03*
X763071D03*
X782559D03*
X760315Y1363563D03*
X785315Y182460D03*
X788071Y175374D03*
X785315Y576161D03*
X788071Y569075D03*
X785315Y969862D03*
X788071Y962776D03*
Y1356477D03*
X785315Y1363563D03*
G54D14*
X535315Y336417D03*
Y730118D03*
Y1123819D03*
Y1517520D03*
G54D23*
X722815Y278917D03*
X712815D03*
X722815Y672618D03*
X712815D03*
X722815Y1066319D03*
X712815D03*
X722815Y1460020D03*
X712815D03*
X752815Y278917D03*
X742815D03*
X732815D03*
X752815Y672618D03*
X742815D03*
X732815D03*
X752815Y1066319D03*
X742815D03*
X732815D03*
X752815Y1460020D03*
X742815D03*
X732815D03*
X772815Y278917D03*
X762815D03*
X782815D03*
X772815Y672618D03*
X762815D03*
X782815D03*
X772815Y1066319D03*
X762815D03*
X782815D03*
X772815Y1460020D03*
X762815D03*
X782815D03*
G54D24*
X712815Y341417D03*
Y735118D03*
Y1128819D03*
Y1522520D03*
G54D15*
X605689Y187795D03*
X597815Y211417D03*
X605689Y235039D03*
Y581496D03*
X597815Y605118D03*
X605689Y628740D03*
Y975197D03*
X597815Y998819D03*
X605689Y1022441D03*
Y1368898D03*
X597815Y1392520D03*
X605689Y1416142D03*
X650177Y187795D03*
Y235039D03*
Y581496D03*
Y628740D03*
Y975197D03*
Y1022441D03*
Y1368898D03*
Y1416142D03*
G54D25*
X757815Y348917D03*
Y742618D03*
Y1136319D03*
Y1530020D03*
X767815Y348917D03*
Y742618D03*
Y1136319D03*
Y1530020D03*
G54D16*
X622565Y252401D03*
Y270433D03*
Y646102D03*
Y664134D03*
Y1057835D03*
Y1039803D03*
Y1433504D03*
Y1451536D03*
G54D26*
X777815Y348917D03*
Y742618D03*
Y1136319D03*
Y1530020D03*
G54D17*
X610315Y283917D03*
X620315D03*
X610315Y677618D03*
X620315D03*
X610315Y1071319D03*
X620315D03*
X610315Y1465020D03*
X620315D03*
X630315Y283917D03*
X650315D03*
X640315D03*
X630315Y677618D03*
X650315D03*
X640315D03*
X630315Y1071319D03*
X650315D03*
X640315D03*
X630315Y1465020D03*
X650315D03*
X640315D03*
X712815Y331417D03*
Y311417D03*
Y321417D03*
Y705118D03*
Y725118D03*
Y715118D03*
Y1098819D03*
Y1108819D03*
Y1118819D03*
Y1492520D03*
Y1512520D03*
Y1502520D03*
G54D18*
X647815Y261417D03*
Y655118D03*
Y1048819D03*
Y1442520D03*
G54D27*
X784665Y196417D03*
X790965D03*
X784665Y216417D03*
X790965D03*
X784665Y233917D03*
X790965D03*
X784665Y251417D03*
X790965D03*
X784665Y590118D03*
X790965D03*
X784665Y610118D03*
X790965D03*
X784665Y627618D03*
X790965D03*
X784665Y645118D03*
X790965D03*
X784665Y1003819D03*
X790965D03*
X784665Y983819D03*
X790965D03*
X784665Y1021319D03*
X790965D03*
X784665Y1038819D03*
X790965D03*
X784665Y1377520D03*
X790965D03*
X784665Y1397520D03*
X790965D03*
X784665Y1415020D03*
X790965D03*
X784665Y1432520D03*
X790965D03*
G54D19*
X675615Y306417D03*
Y301417D03*
Y311417D03*
Y316417D03*
Y705118D03*
Y700118D03*
Y695118D03*
Y710118D03*
Y1098819D03*
Y1093819D03*
Y1088819D03*
Y1103819D03*
Y1487520D03*
Y1482520D03*
Y1492520D03*
Y1497520D03*
X695015Y301417D03*
Y306417D03*
Y316417D03*
Y311417D03*
Y695118D03*
Y710118D03*
Y705118D03*
Y700118D03*
Y1088819D03*
Y1103819D03*
Y1098819D03*
Y1093819D03*
Y1482520D03*
Y1487520D03*
Y1497520D03*
Y1492520D03*
M02*
