G04 ================== begin FILE IDENTIFICATION RECORD ==================*
G04 Layout Name:  Z:/Desktop/irrigation_project_4/panel/panelized_board.brd*
G04 Film Name:    SOLDERMASK_TOP*
G04 File Format:  Gerber RS274X*
G04 File Origin:  Cadence Allegro 17.4-S016*
G04 Origin Date:  Sat Apr 23 14:52:49 2022*
G04 *
G04 Layer:  VIA CLASS/SOLDERMASK_TOP*
G04 Layer:  PIN/SOLDERMASK_TOP*
G04 Layer:  DRC ERROR CLASS/SOLDERMASK_TOP*
G04 *
G04 Offset:    (0.0000 0.0000)*
G04 Mirror:    No*
G04 Mode:      Positive*
G04 Rotation:  0*
G04 FullContactRelief:  No*
G04 UndefLineWidth:     5.0000*
G04 ================== end FILE IDENTIFICATION RECORD ====================*
%FSLAX25Y25*MOIN*%
%IR0*IPPOS*OFA0.00000B0.00000*MIA0B0*SFA1.00000B1.00000*%
%ADD16R,.04X.053*%
%ADD11C,.149606*%
%ADD19C,.06*%
%ADD23C,.061811*%
%ADD12C,.065*%
%ADD14C,.052*%
%ADD10R,.173228X.173228*%
%ADD17C,.044*%
%ADD18C,.071181*%
%ADD21R,.06X.06*%
%ADD22R,.061811X.061811*%
%ADD20C,.055*%
%ADD15R,.052X.052*%
%ADD13C,.078701*%
%LPD*%
G75*
G54D10*
X19685Y19685D03*
Y1673228D03*
X1240157Y19685D03*
Y1673228D03*
G54D20*
X325177Y1247421D03*
X315177D03*
X325177Y1483642D03*
X315177D03*
X345177Y1247421D03*
X335177D03*
X345177Y1483642D03*
X335177D03*
X375177Y1247421D03*
X355177D03*
X365177D03*
X375177Y1483642D03*
X355177D03*
X365177D03*
X385177Y1247421D03*
Y1483642D03*
X669508Y1247421D03*
Y1483642D03*
X699508Y1247421D03*
X679508D03*
X689508D03*
X699508Y1483642D03*
X679508D03*
X689508D03*
X729508Y1247421D03*
X709508D03*
X719508D03*
X729508Y1483642D03*
X709508D03*
X719508D03*
X739508Y1247421D03*
Y1483642D03*
G54D11*
X78740Y19685D03*
Y1673228D03*
X1200787D03*
G54D21*
X315177Y1309921D03*
Y1546142D03*
X669508Y1309921D03*
Y1546142D03*
G54D12*
X105177Y1149921D03*
Y1159921D03*
Y1194921D03*
Y1204921D03*
Y1239921D03*
Y1249921D03*
Y1284921D03*
Y1294921D03*
Y1386142D03*
Y1396142D03*
Y1431142D03*
Y1441142D03*
Y1476142D03*
Y1486142D03*
Y1521142D03*
Y1531142D03*
X459508Y1149921D03*
Y1159921D03*
Y1194921D03*
Y1204921D03*
Y1239921D03*
Y1249921D03*
Y1284921D03*
Y1294921D03*
Y1386142D03*
Y1396142D03*
Y1431142D03*
Y1441142D03*
Y1476142D03*
Y1486142D03*
Y1521142D03*
Y1531142D03*
G54D13*
X92677Y1319921D03*
Y1556142D03*
X395177Y1317421D03*
Y1553642D03*
X447008Y1319921D03*
Y1556142D03*
X749508Y1317421D03*
Y1553642D03*
G54D22*
X380177Y1317421D03*
Y1553642D03*
X734508Y1317421D03*
Y1553642D03*
G54D14*
X137677Y1184921D03*
Y1194921D03*
Y1174921D03*
Y1204921D03*
Y1214921D03*
Y1244921D03*
Y1224921D03*
Y1234921D03*
Y1254921D03*
Y1264921D03*
Y1274921D03*
Y1294921D03*
Y1284921D03*
Y1411142D03*
Y1421142D03*
Y1431142D03*
Y1441142D03*
Y1451142D03*
Y1461142D03*
Y1481142D03*
Y1491142D03*
Y1471142D03*
Y1501142D03*
Y1511142D03*
Y1531142D03*
Y1521142D03*
X167677Y1194921D03*
Y1184921D03*
Y1174921D03*
Y1214921D03*
Y1204921D03*
Y1244921D03*
Y1224921D03*
Y1234921D03*
Y1274921D03*
Y1264921D03*
Y1254921D03*
Y1294921D03*
Y1284921D03*
Y1304921D03*
Y1411142D03*
Y1431142D03*
Y1421142D03*
Y1451142D03*
Y1441142D03*
Y1461142D03*
Y1491142D03*
Y1481142D03*
Y1471142D03*
Y1511142D03*
Y1501142D03*
Y1541142D03*
Y1531142D03*
Y1521142D03*
X492008Y1184921D03*
Y1194921D03*
Y1174921D03*
Y1204921D03*
Y1214921D03*
Y1244921D03*
Y1224921D03*
Y1234921D03*
Y1254921D03*
Y1264921D03*
Y1274921D03*
Y1294921D03*
Y1284921D03*
Y1411142D03*
Y1421142D03*
Y1431142D03*
Y1441142D03*
Y1451142D03*
Y1461142D03*
Y1481142D03*
Y1491142D03*
Y1471142D03*
Y1501142D03*
Y1511142D03*
Y1531142D03*
Y1521142D03*
X522008Y1194921D03*
Y1184921D03*
Y1174921D03*
Y1214921D03*
Y1204921D03*
Y1244921D03*
Y1224921D03*
Y1234921D03*
Y1274921D03*
Y1264921D03*
Y1254921D03*
Y1294921D03*
Y1284921D03*
Y1304921D03*
Y1411142D03*
Y1431142D03*
Y1421142D03*
Y1451142D03*
Y1441142D03*
Y1461142D03*
Y1491142D03*
Y1481142D03*
Y1471142D03*
Y1511142D03*
Y1501142D03*
Y1541142D03*
Y1531142D03*
Y1521142D03*
G54D23*
X360177Y1317421D03*
X370177D03*
X360177Y1553642D03*
X370177D03*
X714508Y1317421D03*
X724508D03*
X714508Y1553642D03*
X724508D03*
G54D15*
X137677Y1304921D03*
Y1541142D03*
X492008Y1304921D03*
Y1541142D03*
G54D16*
X148927Y1139921D03*
X156427D03*
X148927Y1376142D03*
X156427D03*
X503258Y1139921D03*
X510758D03*
X503258Y1376142D03*
X510758D03*
G54D17*
X141577Y1139921D03*
Y1376142D03*
X171577Y1218321D03*
Y1454542D03*
X220177Y1229921D03*
Y1466142D03*
X266527Y1178521D03*
X264027Y1202421D03*
X265127Y1253621D03*
X270527Y1264921D03*
X266527Y1414742D03*
X264027Y1438642D03*
X265127Y1489842D03*
X270527Y1501142D03*
X290177Y1189222D03*
X278027Y1215821D03*
X274827Y1214921D03*
Y1246972D03*
X290177Y1260821D03*
X286127Y1277421D03*
X287877Y1284921D03*
X290177Y1425443D03*
X278027Y1452042D03*
X274827Y1451142D03*
Y1483193D03*
X286127Y1513642D03*
X290177Y1497042D03*
X287877Y1521142D03*
X302227Y1192421D03*
X303227Y1202421D03*
X310027Y1236071D03*
X303227Y1253621D03*
X302227Y1428642D03*
X303227Y1438642D03*
Y1489842D03*
X310027Y1472292D03*
X332421Y1147266D03*
X330127Y1164921D03*
X348377Y1184921D03*
X331527Y1176021D03*
X345177Y1184921D03*
X332421Y1383487D03*
X330127Y1401142D03*
X348377Y1421142D03*
X331527Y1412242D03*
X345177Y1421142D03*
X359534Y1148066D03*
X365427Y1164921D03*
X357989Y1153799D03*
X364227Y1178721D03*
X359534Y1384287D03*
X365427Y1401142D03*
X357989Y1390020D03*
X364227Y1414942D03*
X384921Y1156299D03*
X387677Y1160022D03*
X384527Y1178721D03*
X396327Y1189222D03*
X382227Y1219921D03*
X386527Y1211021D03*
X397027Y1202421D03*
X384921Y1392520D03*
X387677Y1396243D03*
X384527Y1414942D03*
X396327Y1425443D03*
X382227Y1456142D03*
X386527Y1447242D03*
X397027Y1438642D03*
X495908Y1139921D03*
Y1376142D03*
X525908Y1218321D03*
Y1454542D03*
X574508Y1229921D03*
Y1466142D03*
X620858Y1178521D03*
X618358Y1202421D03*
X619458Y1253621D03*
X620858Y1414742D03*
X618358Y1438642D03*
X619458Y1489842D03*
X644508Y1189222D03*
X632358Y1215821D03*
X629158Y1214921D03*
Y1246972D03*
X644508Y1260821D03*
X624858Y1264921D03*
X640458Y1277421D03*
X642208Y1284921D03*
X644508Y1425443D03*
X632358Y1452042D03*
X629158Y1451142D03*
Y1483193D03*
X640458Y1513642D03*
X644508Y1497042D03*
X624858Y1501142D03*
X642208Y1521142D03*
X656558Y1192421D03*
X657558Y1202421D03*
X664358Y1236071D03*
X657558Y1253621D03*
X656558Y1428642D03*
X657558Y1438642D03*
Y1489842D03*
X664358Y1472292D03*
X686752Y1147266D03*
X684458Y1164921D03*
X702708Y1184921D03*
X685858Y1176021D03*
X699508Y1184921D03*
X686752Y1383487D03*
X684458Y1401142D03*
X702708Y1421142D03*
X685858Y1412242D03*
X699508Y1421142D03*
X713865Y1148066D03*
X719758Y1164921D03*
X712320Y1153799D03*
X718558Y1178721D03*
X713865Y1384287D03*
X719758Y1401142D03*
X712320Y1390020D03*
X718558Y1414942D03*
X739252Y1156299D03*
X742008Y1160022D03*
X738858Y1178721D03*
X750658Y1189222D03*
X736558Y1219921D03*
X740858Y1211021D03*
X751358Y1202421D03*
X739252Y1392520D03*
X742008Y1396243D03*
X738858Y1414942D03*
X750658Y1425443D03*
X736558Y1456142D03*
X740858Y1447242D03*
X751358Y1438642D03*
G54D18*
X208051Y1156299D03*
X200177Y1179921D03*
X208051Y1203543D03*
Y1392520D03*
Y1439764D03*
X200177Y1416142D03*
X252539Y1156299D03*
Y1203543D03*
Y1392520D03*
Y1439764D03*
X562382Y1156299D03*
X554508Y1179921D03*
X562382Y1203543D03*
Y1392520D03*
Y1439764D03*
X554508Y1416142D03*
X606870Y1156299D03*
Y1203543D03*
Y1392520D03*
Y1439764D03*
G54D19*
X212677Y1252421D03*
Y1488642D03*
X232677Y1252421D03*
X242677D03*
X222677D03*
X232677Y1488642D03*
X242677D03*
X222677D03*
X252677Y1252421D03*
Y1488642D03*
X315177Y1299921D03*
Y1279921D03*
Y1289921D03*
Y1516142D03*
Y1536142D03*
Y1526142D03*
X567008Y1252421D03*
Y1488642D03*
X587008Y1252421D03*
X577008D03*
X587008Y1488642D03*
X577008D03*
X607008Y1252421D03*
X597008D03*
X607008Y1488642D03*
X597008D03*
X669508Y1299921D03*
Y1279921D03*
Y1289921D03*
Y1516142D03*
Y1536142D03*
Y1526142D03*
M02*
