G04 ================== begin FILE IDENTIFICATION RECORD ==================*
G04 Layout Name:  IRRIGATION_PROJECT.brd*
G04 Film Name:    BOTTOM*
G04 File Format:  Gerber RS274X*
G04 File Origin:  Cadence Allegro 17.4-S016*
G04 Origin Date:  Tue May  3 10:11:41 2022*
G04 *
G04 Layer:  ETCH/BOTTOM*
G04 Layer:  PIN/BOTTOM*
G04 Layer:  VIA CLASS/BOTTOM*
G04 *
G04 Offset:    (0.00 0.00)*
G04 Mirror:    No*
G04 Mode:      Positive*
G04 Rotation:  0*
G04 FullContactRelief:  No*
G04 UndefLineWidth:     5.00*
G04 ================== end FILE IDENTIFICATION RECORD ====================*
%FSLAX25Y25*MOIN*%
%IR0*IPPOS*OFA0.00000B0.00000*MIA0B0*SFA1.00000B1.00000*%
%ADD20R,.055X.213*%
%ADD17C,.06*%
%ADD12C,.024*%
%ADD13C,.052*%
%ADD23C,.055*%
%ADD10C,.065*%
%ADD24R,.06X.06*%
%ADD14R,.052X.052*%
%ADD11C,.0394*%
%ADD15C,.07118*%
%ADD25C,.05394*%
%ADD26R,.05394X.05394*%
%ADD19R,.04X.053*%
%ADD27R,.034X.038*%
%ADD21R,.078X.022*%
%ADD18R,.273X.267*%
%ADD16R,.098X.037*%
%ADD22R,.01775X.04375*%
%ADD28C,.01*%
%ADD29C,.005*%
G75*
%LPD*%
G75*
G54D10*
X22500Y20000D03*
Y30000D03*
Y65000D03*
Y75000D03*
Y110000D03*
Y120000D03*
Y155000D03*
Y165000D03*
G54D11*
X10000Y190000D03*
X312500Y187500D03*
G54D20*
X207500Y73950D03*
Y111050D03*
G54D21*
X195300Y155000D03*
Y150000D03*
Y145000D03*
Y140000D03*
X214700D03*
Y145000D03*
Y150000D03*
Y155000D03*
G54D12*
X58900Y10000D03*
X92500Y88400D03*
X137500Y100000D03*
X181350Y72500D03*
X180000Y123700D03*
X207500Y59301D03*
X182750Y47500D03*
X200000Y85900D03*
X192150Y85000D03*
X192500Y130000D03*
X192150Y117051D03*
X187850Y135000D03*
X204889Y132854D03*
X219550Y62500D03*
X220550Y72500D03*
X227350Y106150D03*
X220550Y123700D03*
X212500Y160000D03*
X242500Y17345D03*
X247450Y35000D03*
X257500Y55000D03*
X248850Y46100D03*
X265450Y55000D03*
X275312Y23878D03*
X276857Y18145D03*
X300000Y26378D03*
X282750Y35000D03*
X301850Y48800D03*
X281550D03*
X299550Y90000D03*
X305000Y30101D03*
X313650Y59301D03*
X314350Y72500D03*
X303850Y81100D03*
G54D22*
X227500Y21043D03*
X224744Y13957D03*
X230256D03*
X252500Y21043D03*
X249744Y13957D03*
X255256D03*
X280000Y21043D03*
X277244Y13957D03*
X282756D03*
X305000Y21043D03*
X302244Y13957D03*
X307756D03*
G54D13*
X55000Y45000D03*
Y55000D03*
Y65000D03*
Y75000D03*
Y85000D03*
Y95000D03*
Y105000D03*
Y115000D03*
Y125000D03*
Y135000D03*
Y145000D03*
Y155000D03*
Y165000D03*
X85000Y65000D03*
Y55000D03*
Y45000D03*
Y95000D03*
Y85000D03*
Y75000D03*
Y125000D03*
Y115000D03*
Y105000D03*
Y155000D03*
Y145000D03*
Y135000D03*
Y175000D03*
Y165000D03*
G54D14*
X55000Y175000D03*
G54D23*
X232500Y117500D03*
X242500D03*
X252500D03*
X262500D03*
X272500D03*
X282500D03*
X292500D03*
X302500D03*
G54D15*
X117500Y50000D03*
X125374Y26378D03*
Y73622D03*
X169862Y26378D03*
Y73622D03*
G54D24*
X232500Y180000D03*
G54D16*
X142250Y90984D03*
Y109016D03*
G54D25*
X277500Y187500D03*
X287500D03*
G54D26*
X297500D03*
G54D17*
X150000Y122500D03*
X140000D03*
X130000D03*
X170000D03*
X160000D03*
X232500Y150000D03*
Y160000D03*
Y170000D03*
G54D18*
X167500Y100000D03*
G54D27*
X304350Y35000D03*
X310650D03*
X304350Y55000D03*
X310650D03*
X304350Y72500D03*
X310650D03*
X304350Y90000D03*
X310650D03*
G54D28*
G01X22500Y120000D02*
X16150D01*
Y30000D01*
X22500D01*
G01X30000Y110000D02*
Y65000D01*
X22500D01*
G01Y155000D02*
X30000D01*
Y110000D01*
G01D02*
X22500D01*
G01X65000Y75000D02*
Y16100D01*
X58900Y10000D01*
G01X150000Y122500D02*
Y182500D01*
X47500D01*
Y65000D01*
X55000D01*
G01Y55000D02*
X42500D01*
Y187500D01*
X160000D01*
Y122500D01*
G01X55000Y75000D02*
X65000D01*
G01X55000Y105000D02*
X65000D01*
G01D02*
Y125000D01*
X55000D01*
G01Y135000D02*
X75000D01*
Y26378D01*
X125374D01*
G01X92500Y88400D02*
Y52500D01*
X85000Y45000D01*
G01Y95000D02*
X112500D01*
Y109016D01*
X132500D01*
G01X65000Y75000D02*
Y105000D01*
G01X142250Y90984D02*
X133833D01*
Y50000D01*
X117500D01*
G01X167500Y100000D02*
X137500D01*
G01D02*
X125374D01*
Y73622D01*
G01X132500Y109016D02*
Y117500D01*
G01Y109016D02*
X142250D01*
G01X132500Y117500D02*
X130000D01*
Y122500D01*
G01X132500Y117500D02*
X165000D01*
Y180000D01*
X232500D01*
G01X307756Y13957D02*
Y5000D01*
X177500D01*
Y68650D01*
X181350Y72500D01*
G01X195300Y155000D02*
X184950D01*
Y82081D01*
X165003D01*
Y26378D01*
X169862D01*
G01X180000Y123700D02*
X182450Y121250D01*
Y100000D01*
X167500D01*
G01X227500Y21043D02*
Y26331D01*
X187850D01*
Y135000D01*
G01X182750Y47500D02*
Y18545D01*
X183850Y17445D01*
X230256D01*
Y13957D01*
G01X208750Y35000D02*
X203650D01*
Y31050D01*
X232444D01*
G01X207500Y59301D02*
Y73950D01*
G01X208750Y52500D02*
X205450D01*
Y47200D01*
X219550D01*
G01X200000Y85900D02*
X203450D01*
X207500Y81850D01*
Y73950D01*
G01X192150Y85000D02*
Y117051D01*
G01X192500Y130000D02*
Y122300D01*
X203750Y111050D01*
X207500D01*
G01X204889Y132854D02*
X203450Y131415D01*
Y130000D01*
X213400D01*
Y66750D01*
X219550D01*
G01X195300Y145000D02*
X198100D01*
X199908Y143192D01*
Y142593D01*
X204889Y137612D01*
Y132854D01*
G01X214700Y150000D02*
X209800D01*
X208569Y148769D01*
Y143400D01*
X209569Y142400D01*
X223850D01*
X224850Y141400D01*
Y82850D01*
X225850Y81850D01*
X242050D01*
Y58250D01*
X232950D01*
Y52500D01*
G01X220550Y72500D02*
X218050D01*
Y132500D01*
X212500D01*
X207500Y137500D01*
Y140600D01*
X198100Y150000D01*
X195300D01*
G01X276250Y72500D02*
X279550D01*
Y87250D01*
X266550D01*
Y155000D01*
X223500D01*
Y152400D01*
X187500D01*
Y140000D01*
X195300D01*
G01X232444Y17345D02*
Y10469D01*
X224744D01*
Y13957D01*
G01X232444Y31050D02*
Y17345D01*
G01Y31050D02*
Y35000D01*
X232950D01*
G01D02*
Y43600D01*
X243750D01*
G01X236250Y35000D02*
X232950D01*
G01X232444Y17345D02*
X242500D01*
G01X219550Y47200D02*
Y35000D01*
X216250D01*
G01X238750Y72500D02*
Y66750D01*
X219550D01*
G01D02*
Y62500D01*
G01D02*
Y52500D01*
X216250D01*
G01X236250D02*
X232950D01*
G01D02*
Y47200D01*
X219550D01*
G01X231250Y92500D02*
X227350D01*
Y106150D01*
G01X238750Y92500D02*
X248850D01*
Y46100D01*
G01X220550Y72500D02*
X231250D01*
G01X214700Y140000D02*
X220550D01*
Y123700D01*
G01X232500Y160000D02*
X277500D01*
Y101650D01*
X285250D01*
Y28178D01*
X255256D01*
Y13957D01*
G01X271250Y52500D02*
X253500D01*
X252500Y53500D01*
Y85000D01*
X256550Y89050D01*
Y139950D01*
X251500Y145000D01*
X214700D01*
G01X212500Y160000D02*
X214700Y157800D01*
Y155000D01*
G01X252500Y21043D02*
Y7500D01*
X296550D01*
Y117500D01*
X297500D01*
G01X242500Y17345D02*
X247656D01*
X249744Y15257D01*
Y13957D01*
G01X262500Y117500D02*
Y60000D01*
X257500Y55000D01*
G01X243750Y52500D02*
Y43600D01*
G01X281550Y48800D02*
Y43600D01*
X243750D01*
G01X265450Y55000D02*
Y72500D01*
X268750D01*
G01X280000Y21043D02*
Y24531D01*
X277812D01*
Y23878D01*
X275312D01*
G01X287500Y187500D02*
X290115Y184885D01*
Y127615D01*
X287500Y125000D01*
Y107500D01*
X290000Y105000D01*
Y21000D01*
X289000Y20000D01*
X283756D01*
X282756Y19000D01*
Y13957D01*
G01X277244D02*
X276857D01*
Y18145D01*
G01X300000Y26378D02*
X299744D01*
Y35000D01*
X304350D01*
G01X302244Y13957D02*
Y15257D01*
X300000Y17501D01*
Y26378D01*
G01X278750Y35000D02*
X282750D01*
G01X278750Y52500D02*
X282050D01*
Y48800D01*
X281550D01*
G01X304350Y90000D02*
X299550D01*
G01X297500Y187500D02*
Y117500D01*
G01X302500D02*
X297500D01*
G01X301850Y48800D02*
X313650D01*
Y35000D01*
X310650D01*
G01X305000Y21043D02*
Y30101D01*
G01X310650Y55000D02*
X313650D01*
Y59301D01*
G01X301350Y55000D02*
Y53100D01*
X301850D01*
Y48800D01*
G01X304350Y55000D02*
X301350D01*
G01Y72500D02*
Y55000D01*
G01X310650Y72500D02*
X314350D01*
G01X304350D02*
X301350D01*
G01D02*
Y81100D01*
X303850D01*
G01D02*
X313650D01*
Y90000D01*
X310650D01*
G54D19*
X208750Y35000D03*
Y52500D03*
X236250Y35000D03*
X216250D03*
X231250Y72500D03*
X238750D03*
X236250Y52500D03*
X216250D03*
X231250Y92500D03*
X238750D03*
X271250Y35000D03*
X243750D03*
Y52500D03*
X271250D03*
X268750Y72500D03*
X278750Y35000D03*
Y52500D03*
X276250Y72500D03*
G54D29*
G01X243750Y35000D02*
X247450D01*
G01D02*
X271250D01*
M02*
