G04 ================== begin FILE IDENTIFICATION RECORD ==================*
G04 Layout Name:  IRRIGATION_PROJECT.brd*
G04 Film Name:    SILKSCREEN_BOTTOM*
G04 File Format:  Gerber RS274X*
G04 File Origin:  Cadence Allegro 17.4-S016*
G04 Origin Date:  Wed Apr 27 11:27:09 2022*
G04 *
G04 Layer:  REF DES/SILKSCREEN_BOTTOM*
G04 Layer:  PACKAGE GEOMETRY/ASSEMBLY_BOTTOM*
G04 Layer:  PACKAGE GEOMETRY/SOLDERMASK_BOTTOM*
G04 Layer:  BOARD GEOMETRY/SOLDERMASK_BOTTOM*
G04 *
G04 Offset:    (0.00 0.00)*
G04 Mirror:    No*
G04 Mode:      Positive*
G04 Rotation:  0*
G04 FullContactRelief:  No*
G04 UndefLineWidth:     5.00*
G04 ================== end FILE IDENTIFICATION RECORD ====================*
%FSLAX25Y25*MOIN*%
%IR0*IPPOS*OFA0.00000B0.00000*MIA0B0*SFA1.00000B1.00000*%
%ADD10C,.005*%
G75*
%LPD*%
G75*
G54D10*
G01X138750Y92734D02*
X155250D01*
G01X138750Y89234D02*
Y92734D01*
G01X155250Y89234D02*
X138750D01*
G01Y110766D02*
X155250D01*
G01X138750Y107266D02*
Y110766D01*
G01X155250Y107266D02*
X138750D01*
G01X153583Y89591D02*
X157250Y92377D01*
G01X157917Y90984D02*
X152917D01*
G01X153583Y92377D02*
X157250Y89591D01*
G01X155417Y89084D02*
Y92884D01*
G01X170000Y96057D02*
X166417D01*
X165667Y96310D01*
X165167Y96817D01*
X165000Y97450D01*
X165167Y98083D01*
X165667Y98590D01*
X166417Y98843D01*
X170000D01*
G01X169167Y101347D02*
X169667Y101727D01*
X169917Y102170D01*
X170000Y102677D01*
X169833Y103310D01*
X169417Y103753D01*
X168917Y103880D01*
X168417Y103817D01*
X168000Y103563D01*
X167167Y102297D01*
X166583Y101727D01*
X165750Y101347D01*
X165000Y101220D01*
Y103880D01*
G01X179750Y86750D02*
X155250D01*
G01X179750Y113250D02*
Y86750D01*
G01X155250D02*
Y113250D01*
G01X151950Y98350D02*
Y101650D01*
G01X155250Y98350D02*
X151950D01*
G01X155250Y92734D02*
Y89234D01*
G01Y113250D02*
X179750D01*
G01X151950Y101650D02*
X155250D01*
G01Y110766D02*
Y107266D01*
G01X226517Y40000D02*
Y45000D01*
X224933D01*
X224427Y44750D01*
X224110Y44417D01*
X223983Y43750D01*
X224110Y43083D01*
X224490Y42667D01*
X224933Y42417D01*
X226517D01*
G01X224933D02*
X223983Y40000D01*
G01X220150Y45000D02*
Y40000D01*
G01X221607Y45000D02*
X218693D01*
G01X216380Y40000D02*
Y45000D01*
G01X213720D02*
Y40000D01*
G01Y42500D02*
X216380D01*
G01X208683Y40000D02*
X211217D01*
Y45000D01*
X208683D01*
G01X209697Y42583D02*
X211217D01*
G01X206117Y40000D02*
Y45000D01*
X204533D01*
X204027Y44750D01*
X203710Y44417D01*
X203583Y43750D01*
X203710Y43083D01*
X204090Y42667D01*
X204533Y42417D01*
X206117D01*
G01X204533D02*
X203583Y40000D01*
G01X201397D02*
Y45000D01*
X199750Y40833D01*
X198103Y45000D01*
Y40000D01*
G01X208150Y37650D02*
X216850D01*
G01X208150Y32350D02*
Y37650D01*
G01X216850Y32350D02*
X208150D01*
G01Y37650D02*
X210750D01*
G01X208150Y32350D02*
Y37650D01*
G01X210750Y32350D02*
X208150D01*
G01Y55150D02*
X216850D01*
G01X208150Y49850D02*
Y55150D01*
G01X216850Y49850D02*
X208150D01*
G01Y55150D02*
X210750D01*
G01X208150Y49850D02*
Y55150D01*
G01X210750Y49850D02*
X208150D01*
G01X216950Y79100D02*
G02X198050I-9450J0D01*
G01X207800Y66600D02*
G02I-300J0D01*
G01X197083Y91243D02*
X197333Y90863D01*
X197500Y90420D01*
Y89913D01*
X197250Y89343D01*
X196833Y88900D01*
X196333Y88583D01*
X195500Y88330D01*
X194750Y88267D01*
X194000Y88393D01*
X193500Y88583D01*
X193000Y88963D01*
X192667Y89407D01*
X192500Y89850D01*
Y90293D01*
X192667Y90737D01*
X192917Y91117D01*
X193250Y91433D01*
G01X197500Y93683D02*
X192500D01*
Y96217D01*
G01Y98657D02*
X197500D01*
G01Y101063D02*
X194417Y98657D01*
G01X192500Y101443D02*
X195833Y99733D01*
G01X196667Y103947D02*
X197167Y104327D01*
X197417Y104770D01*
X197500Y105277D01*
X197333Y105910D01*
X196917Y106353D01*
X196417Y106480D01*
X195917Y106417D01*
X195500Y106163D01*
X194667Y104897D01*
X194083Y104327D01*
X193250Y103947D01*
X192500Y103820D01*
Y106480D01*
G01X200050Y105900D02*
Y79100D01*
G01X214950D02*
G02X200050I-7450J0D01*
G01X198050Y105900D02*
Y79100D01*
G01X200050Y105900D02*
G02X214950I7450J0D01*
G01X198050D02*
G02X216950I9450J0D01*
G01X206200Y157350D02*
G02X203800I-1200J0D01*
G01X197150D02*
X212850D01*
G01X197150Y137650D02*
Y157350D01*
G01X212850Y137650D02*
X197150D01*
G01X192800Y156000D02*
X197150D01*
G01X192800Y154000D02*
Y156000D01*
G01X197150Y154000D02*
X192800D01*
G01X197150Y156000D02*
Y154000D01*
G01X192800Y151000D02*
X197150D01*
G01X192800Y149000D02*
Y151000D01*
G01X197150Y149000D02*
X192800D01*
G01X197150Y151000D02*
Y149000D01*
G01X192800Y146000D02*
X197150D01*
G01X192800Y144000D02*
Y146000D01*
G01X197150Y144000D02*
X192800D01*
G01X197150Y146000D02*
Y144000D01*
G01X192800Y141000D02*
X197150D01*
G01X192800Y139000D02*
Y141000D01*
G01X197150Y139000D02*
X192800D01*
G01X197150Y141000D02*
Y139000D01*
G01X235650Y37650D02*
X244350D01*
G01X235650Y32350D02*
Y37650D01*
G01X244350Y32350D02*
X235650D01*
G01Y37650D02*
X238250D01*
G01X235650Y32350D02*
Y37650D01*
G01X238250Y32350D02*
X235650D01*
G01X238250Y37650D02*
Y32350D01*
G01X216850Y37650D02*
Y32350D01*
G01X210750Y37650D02*
Y32350D01*
G01X216850D02*
X214250D01*
G01X216850Y37650D02*
Y32350D01*
G01X214250Y37650D02*
X216850D01*
G01X214250Y32350D02*
Y37650D01*
G01X244057Y22500D02*
Y27500D01*
X241143Y22500D01*
Y27500D01*
G01X239147Y22500D02*
Y27500D01*
X237500Y23333D01*
X235853Y27500D01*
Y22500D01*
G01X232400D02*
Y27500D01*
X233160Y26500D01*
G01Y22500D02*
X231640D01*
G01X231831Y20158D02*
Y14842D01*
G01X223169Y20158D02*
X231831D01*
G01X223169Y14842D02*
Y20158D01*
G01X231831Y14842D02*
X223169D01*
G01X231330Y15843D02*
G02I-499J0D01*
G01X228287Y21831D02*
Y20158D01*
G01X226713Y21831D02*
X228287D01*
G01X226713Y20158D02*
Y21831D01*
G01X228287Y20158D02*
X226713D01*
G01X223957Y13169D02*
Y14842D01*
G01X225532Y13169D02*
X223957D01*
G01X225532Y14842D02*
Y13169D01*
G01X223957Y14842D02*
X225532D01*
G01X229468Y13169D02*
Y14842D01*
G01X231043Y13169D02*
X229468D01*
G01X231043Y14842D02*
Y13169D01*
G01X229468Y14842D02*
X231043D01*
G01X239350Y75150D02*
Y69850D01*
G01X230650D02*
Y75150D01*
G01X239350Y69850D02*
X230650D01*
G01D02*
Y75150D01*
G01X233250Y69850D02*
X230650D01*
G01X233250Y75150D02*
Y69850D01*
G01X239350D02*
X236750D01*
G01X239350Y75150D02*
Y69850D01*
G01X236750D02*
Y75150D01*
G01X235650Y55150D02*
X244350D01*
G01X235650Y49850D02*
Y55150D01*
G01X244350Y49850D02*
X235650D01*
G01Y55150D02*
X238250D01*
G01X235650Y49850D02*
Y55150D01*
G01X238250Y49850D02*
X235650D01*
G01X238250Y55150D02*
Y49850D01*
G01X223817Y57500D02*
Y62500D01*
X222233D01*
X221727Y62250D01*
X221410Y61917D01*
X221283Y61250D01*
X221410Y60583D01*
X221790Y60167D01*
X222233Y59917D01*
X223817D01*
G01X222233D02*
X221283Y57500D01*
G01X218653Y59583D02*
X218210Y60167D01*
X217830Y60500D01*
X217323Y60667D01*
X216880Y60500D01*
X216563Y60167D01*
X216310Y59667D01*
X216247Y59083D01*
X216310Y58583D01*
X216563Y58083D01*
X216943Y57667D01*
X217387Y57500D01*
X217893Y57667D01*
X218337Y58167D01*
X218590Y58917D01*
X218653Y59750D01*
X218527Y60833D01*
X218337Y61417D01*
X218020Y62000D01*
X217577Y62417D01*
X217133Y62500D01*
X216690Y62333D01*
X216373Y61917D01*
G01X216850Y55150D02*
Y49850D01*
G01X210750Y55150D02*
Y49850D01*
G01X216850D02*
X214250D01*
G01X216850Y55150D02*
Y49850D01*
G01X214250Y55150D02*
X216850D01*
G01X214250Y49850D02*
Y55150D01*
G01X243817Y97500D02*
Y102500D01*
X242233D01*
X241727Y102250D01*
X241410Y101917D01*
X241283Y101250D01*
X241410Y100583D01*
X241790Y100167D01*
X242233Y99917D01*
X243817D01*
G01X242233D02*
X241283Y97500D01*
G01X237450D02*
Y102500D01*
X238210Y101500D01*
G01Y97500D02*
X236690D01*
G01X239350Y95150D02*
Y89850D01*
G01X230650Y95150D02*
X239350D01*
G01X230650Y89850D02*
Y95150D01*
G01X239350Y89850D02*
X230650D01*
G01Y95150D02*
X233250D01*
G01X230650Y89850D02*
Y95150D01*
G01X233250Y89850D02*
X230650D01*
G01X233250Y95150D02*
Y89850D01*
G01X239350D02*
X236750D01*
G01X239350Y95150D02*
Y89850D01*
G01X236750Y95150D02*
X239350D01*
G01X236750Y89850D02*
Y95150D01*
G01X243817Y77500D02*
Y82500D01*
X242233D01*
X241727Y82250D01*
X241410Y81917D01*
X241283Y81250D01*
X241410Y80583D01*
X241790Y80167D01*
X242233Y79917D01*
X243817D01*
G01X242233D02*
X241283Y77500D01*
G01X238653Y81667D02*
X238273Y82167D01*
X237830Y82417D01*
X237323Y82500D01*
X236690Y82333D01*
X236247Y81917D01*
X236120Y81417D01*
X236183Y80917D01*
X236437Y80500D01*
X237703Y79667D01*
X238273Y79083D01*
X238653Y78250D01*
X238780Y77500D01*
X236120D01*
G01X230650Y75150D02*
X239350D01*
G01X230650D02*
X233250D01*
G01X236750D02*
X239350D01*
G01X214950Y79100D02*
Y105900D01*
G01X216950Y79100D02*
Y105900D01*
G01X212850Y157350D02*
Y137650D01*
G01X217200Y139000D02*
X212850D01*
G01X217200Y141000D02*
Y139000D01*
G01X212850Y141000D02*
X217200D01*
G01X212850Y139000D02*
Y141000D01*
G01X217200Y144000D02*
X212850D01*
G01X217200Y146000D02*
Y144000D01*
G01X212850Y146000D02*
X217200D01*
G01X212850Y144000D02*
Y146000D01*
G01X217200Y149000D02*
X212850D01*
G01X217200Y151000D02*
Y149000D01*
G01X212850Y151000D02*
X217200D01*
G01X212850Y149000D02*
Y151000D01*
G01X217200Y154000D02*
X212850D01*
G01X217200Y156000D02*
Y154000D01*
G01X212850Y156000D02*
X217200D01*
G01X212850Y154000D02*
Y156000D01*
G01X217093Y164033D02*
X214307Y167700D01*
G01X215700Y168367D02*
Y163367D01*
G01X214307Y164033D02*
X217093Y167700D01*
G01X217600Y165867D02*
X213800D01*
G01X218943Y167500D02*
Y163917D01*
X218690Y163167D01*
X218183Y162667D01*
X217550Y162500D01*
X216917Y162667D01*
X216410Y163167D01*
X216157Y163917D01*
Y167500D01*
G01X211690Y162500D02*
Y167500D01*
X214033Y163917D01*
X210867D01*
G01X253817Y40000D02*
Y45000D01*
X252233D01*
X251727Y44750D01*
X251410Y44417D01*
X251283Y43750D01*
X251410Y43083D01*
X251790Y42667D01*
X252233Y42417D01*
X253817D01*
G01X252233D02*
X251283Y40000D01*
G01X247450D02*
X247007Y40083D01*
X246500Y40333D01*
X246183Y40750D01*
X246057Y41333D01*
X246183Y41917D01*
X246563Y42417D01*
X247133Y42667D01*
X247767D01*
X248147Y42833D01*
X248463Y43250D01*
X248590Y43833D01*
X248400Y44417D01*
X247957Y44833D01*
X247450Y45000D01*
X246943Y44833D01*
X246500Y44417D01*
X246310Y43833D01*
X246437Y43250D01*
X246753Y42833D01*
X247133Y42667D01*
X247767D01*
X248337Y42417D01*
X248717Y41917D01*
X248843Y41333D01*
X248717Y40750D01*
X248400Y40333D01*
X247893Y40083D01*
X247450Y40000D01*
G01X244350Y37650D02*
Y32350D01*
G01D02*
X241750D01*
G01X244350Y37650D02*
Y32350D01*
G01X241750Y37650D02*
X244350D01*
G01X241750Y32350D02*
Y37650D01*
G01X269057Y22500D02*
Y27500D01*
X266143Y22500D01*
Y27500D01*
G01X264147Y22500D02*
Y27500D01*
X262500Y23333D01*
X260853Y27500D01*
Y22500D01*
G01X258603Y26667D02*
X258223Y27167D01*
X257780Y27417D01*
X257273Y27500D01*
X256640Y27333D01*
X256197Y26917D01*
X256070Y26417D01*
X256133Y25917D01*
X256387Y25500D01*
X257653Y24667D01*
X258223Y24083D01*
X258603Y23250D01*
X258730Y22500D01*
X256070D01*
G01X256831Y20158D02*
Y14842D01*
G01X248169Y20158D02*
X256831D01*
G01X248169Y14842D02*
Y20158D01*
G01X256831Y14842D02*
X248169D01*
G01X256330Y15843D02*
G02I-499J0D01*
G01X253287Y21831D02*
Y20158D01*
G01X251713Y21831D02*
X253287D01*
G01X251713Y20158D02*
Y21831D01*
G01X253287Y20158D02*
X251713D01*
G01X248957Y13169D02*
Y14842D01*
G01X250532Y13169D02*
X248957D01*
G01X250532Y14842D02*
Y13169D01*
G01X248957Y14842D02*
X250532D01*
G01X254468Y13169D02*
Y14842D01*
G01X256043Y13169D02*
X254468D01*
G01X256043Y14842D02*
Y13169D01*
G01X254468Y14842D02*
X256043D01*
G01X251317Y57500D02*
Y62500D01*
X249733D01*
X249227Y62250D01*
X248910Y61917D01*
X248783Y61250D01*
X248910Y60583D01*
X249290Y60167D01*
X249733Y59917D01*
X251317D01*
G01X249733D02*
X248783Y57500D01*
G01X244190D02*
Y62500D01*
X246533Y58917D01*
X243367D01*
G01X244350Y55150D02*
Y49850D01*
G01D02*
X241750D01*
G01X244350Y55150D02*
Y49850D01*
G01X241750Y55150D02*
X244350D01*
G01X241750Y49850D02*
Y55150D01*
G01X268150Y69850D02*
Y75150D01*
G01X276850Y69850D02*
X268150D01*
G01D02*
Y75150D01*
G01X270750Y69850D02*
X268150D01*
G01Y75150D02*
X276850D01*
G01X268150D02*
X270750D01*
G01X286317Y40000D02*
Y45000D01*
X284733D01*
X284227Y44750D01*
X283910Y44417D01*
X283783Y43750D01*
X283910Y43083D01*
X284290Y42667D01*
X284733Y42417D01*
X286317D01*
G01X284733D02*
X283783Y40000D01*
G01X280077D02*
X279950Y41083D01*
X279760Y42000D01*
X279507Y42833D01*
X279190Y43750D01*
X278683Y45000D01*
X281217D01*
G01X279350Y37650D02*
Y32350D01*
G01X270650Y37650D02*
X279350D01*
G01X270650Y32350D02*
Y37650D01*
G01X279350Y32350D02*
X270650D01*
G01Y37650D02*
X273250D01*
G01X270650Y32350D02*
Y37650D01*
G01X273250Y32350D02*
X270650D01*
G01X273250Y37650D02*
Y32350D01*
G01X279350D02*
X276750D01*
G01X279350Y37650D02*
Y32350D01*
G01X276750Y37650D02*
X279350D01*
G01X276750Y32350D02*
Y37650D01*
G01X296557Y22500D02*
Y27500D01*
X293643Y22500D01*
Y27500D01*
G01X291647Y22500D02*
Y27500D01*
X290000Y23333D01*
X288353Y27500D01*
Y22500D01*
G01X286293Y23500D02*
X285913Y22917D01*
X285407Y22583D01*
X284837Y22500D01*
X284330Y22583D01*
X283823Y23000D01*
X283507Y23500D01*
X283443Y24000D01*
X283570Y24583D01*
X284013Y25000D01*
X284457Y25167D01*
X285027D01*
G01X284457D02*
X284077Y25417D01*
X283760Y25833D01*
X283633Y26333D01*
X283760Y26833D01*
X284077Y27250D01*
X284647Y27500D01*
X285217Y27417D01*
X285787Y27083D01*
G01X284331Y20158D02*
Y14842D01*
G01X275669Y20158D02*
X284331D01*
G01X275669Y14842D02*
Y20158D01*
G01X284331Y14842D02*
X275669D01*
G01X283830Y15843D02*
G02I-499J0D01*
G01X280787Y21831D02*
Y20158D01*
G01X279213Y21831D02*
X280787D01*
G01X279213Y20158D02*
Y21831D01*
G01X280787Y20158D02*
X279213D01*
G01X276457Y13169D02*
Y14842D01*
G01X278032Y13169D02*
X276457D01*
G01X278032Y14842D02*
Y13169D01*
G01X276457Y14842D02*
X278032D01*
G01X281968Y13169D02*
Y14842D01*
G01X283543Y13169D02*
X281968D01*
G01X283543Y14842D02*
Y13169D01*
G01X281968Y14842D02*
X283543D01*
G01X286317Y57500D02*
Y62500D01*
X284733D01*
X284227Y62250D01*
X283910Y61917D01*
X283783Y61250D01*
X283910Y60583D01*
X284290Y60167D01*
X284733Y59917D01*
X286317D01*
G01X284733D02*
X283783Y57500D01*
G01X281343Y58250D02*
X280963Y57833D01*
X280520Y57583D01*
X279950Y57500D01*
X279380Y57667D01*
X278937Y58000D01*
X278620Y58583D01*
X278557Y59250D01*
X278683Y59917D01*
X279000Y60333D01*
X279443Y60667D01*
X279887Y60750D01*
X280330Y60667D01*
X280900Y60333D01*
X280710Y62500D01*
X279000D01*
G01X279350Y55150D02*
Y49850D01*
G01X270650Y55150D02*
X279350D01*
G01X270650Y49850D02*
Y55150D01*
G01X279350Y49850D02*
X270650D01*
G01Y55150D02*
X273250D01*
G01X270650Y49850D02*
Y55150D01*
G01X273250Y49850D02*
X270650D01*
G01X273250Y55150D02*
Y49850D01*
G01X279350D02*
X276750D01*
G01X279350Y55150D02*
Y49850D01*
G01X276750Y55150D02*
X279350D01*
G01X276750Y49850D02*
Y55150D01*
G01X276850Y75150D02*
Y69850D01*
G01X270750Y75150D02*
Y69850D01*
G01X276850D02*
X274250D01*
G01X276850Y75150D02*
Y69850D01*
G01X274250D02*
Y75150D01*
G01X281317Y77500D02*
Y82500D01*
X279733D01*
X279227Y82250D01*
X278910Y81917D01*
X278783Y81250D01*
X278910Y80583D01*
X279290Y80167D01*
X279733Y79917D01*
X281317D01*
G01X279733D02*
X278783Y77500D01*
G01X276343Y78500D02*
X275963Y77917D01*
X275457Y77583D01*
X274887Y77500D01*
X274380Y77583D01*
X273873Y78000D01*
X273557Y78500D01*
X273493Y79000D01*
X273620Y79583D01*
X274063Y80000D01*
X274507Y80167D01*
X275077D01*
G01X274507D02*
X274127Y80417D01*
X273810Y80833D01*
X273683Y81333D01*
X273810Y81833D01*
X274127Y82250D01*
X274697Y82500D01*
X275267Y82417D01*
X275837Y82083D01*
G01X274250Y75150D02*
X276850D01*
G01X321557Y22500D02*
Y27500D01*
X318643Y22500D01*
Y27500D01*
G01X316647Y22500D02*
Y27500D01*
X315000Y23333D01*
X313353Y27500D01*
Y22500D01*
G01X309140D02*
Y27500D01*
X311483Y23917D01*
X308317D01*
G01X309331Y20158D02*
Y14842D01*
G01X300669Y20158D02*
X309331D01*
G01X300669Y14842D02*
Y20158D01*
G01X309331Y14842D02*
X300669D01*
G01X308830Y15843D02*
G02I-499J0D01*
G01X305787Y21831D02*
Y20158D01*
G01X304213Y21831D02*
X305787D01*
G01X304213Y20158D02*
Y21831D01*
G01X305787Y20158D02*
X304213D01*
G01X301457Y13169D02*
Y14842D01*
G01X303032Y13169D02*
X301457D01*
G01X303032Y14842D02*
Y13169D01*
G01X301457Y14842D02*
X303032D01*
G01X306968Y13169D02*
Y14842D01*
G01X308543Y13169D02*
X306968D01*
G01X308543Y14842D02*
Y13169D01*
G01X306968Y14842D02*
X308543D01*
G01X316157Y44583D02*
X316537Y44833D01*
X316980Y45000D01*
X317487D01*
X318057Y44750D01*
X318500Y44333D01*
X318817Y43833D01*
X319070Y43000D01*
X319133Y42250D01*
X319007Y41500D01*
X318817Y41000D01*
X318437Y40500D01*
X317993Y40167D01*
X317550Y40000D01*
X317107D01*
X316663Y40167D01*
X316283Y40417D01*
X315967Y40750D01*
G01X312450Y40000D02*
Y45000D01*
X313210Y44000D01*
G01Y40000D02*
X311690D01*
G01X310950Y36900D02*
Y33100D01*
G01X304050Y36900D02*
X310950D01*
G01X304050Y33100D02*
Y36900D01*
G01X310950Y33100D02*
X304050D01*
G01Y36900D02*
X306050D01*
G01X304050Y33100D02*
Y36900D01*
G01X306050Y33100D02*
X304050D01*
G01X306050Y36900D02*
Y33100D01*
G01X310950D02*
X308950D01*
G01X310950Y36900D02*
Y33100D01*
G01X308950Y36900D02*
X310950D01*
G01X308950Y33100D02*
Y36900D01*
G01X308657Y57083D02*
X309037Y57333D01*
X309480Y57500D01*
X309987D01*
X310557Y57250D01*
X311000Y56833D01*
X311317Y56333D01*
X311570Y55500D01*
X311633Y54750D01*
X311507Y54000D01*
X311317Y53500D01*
X310937Y53000D01*
X310493Y52667D01*
X310050Y52500D01*
X309607D01*
X309163Y52667D01*
X308783Y52917D01*
X308467Y53250D01*
G01X306153Y56667D02*
X305773Y57167D01*
X305330Y57417D01*
X304823Y57500D01*
X304190Y57333D01*
X303747Y56917D01*
X303620Y56417D01*
X303683Y55917D01*
X303937Y55500D01*
X305203Y54667D01*
X305773Y54083D01*
X306153Y53250D01*
X306280Y52500D01*
X303620D01*
G01X310950Y56900D02*
Y53100D01*
G01X304050Y56900D02*
X310950D01*
G01X304050Y53100D02*
Y56900D01*
G01X310950Y53100D02*
X304050D01*
G01Y56900D02*
X306050D01*
G01X304050Y53100D02*
Y56900D01*
G01X306050Y53100D02*
X304050D01*
G01X306050Y56900D02*
Y53100D01*
G01X310950D02*
X308950D01*
G01X310950Y56900D02*
Y53100D01*
G01X308950Y56900D02*
X310950D01*
G01X308950Y53100D02*
Y56900D01*
G01X316157Y82083D02*
X316537Y82333D01*
X316980Y82500D01*
X317487D01*
X318057Y82250D01*
X318500Y81833D01*
X318817Y81333D01*
X319070Y80500D01*
X319133Y79750D01*
X319007Y79000D01*
X318817Y78500D01*
X318437Y78000D01*
X317993Y77667D01*
X317550Y77500D01*
X317107D01*
X316663Y77667D01*
X316283Y77917D01*
X315967Y78250D01*
G01X313843Y78500D02*
X313463Y77917D01*
X312957Y77583D01*
X312387Y77500D01*
X311880Y77583D01*
X311373Y78000D01*
X311057Y78500D01*
X310993Y79000D01*
X311120Y79583D01*
X311563Y80000D01*
X312007Y80167D01*
X312577D01*
G01X312007D02*
X311627Y80417D01*
X311310Y80833D01*
X311183Y81333D01*
X311310Y81833D01*
X311627Y82250D01*
X312197Y82500D01*
X312767Y82417D01*
X313337Y82083D01*
G01X310950Y74400D02*
Y70600D01*
G01X304050Y74400D02*
X310950D01*
G01X304050Y70600D02*
Y74400D01*
G01X310950Y70600D02*
X304050D01*
G01Y74400D02*
X306050D01*
G01X304050Y70600D02*
Y74400D01*
G01X306050Y70600D02*
X304050D01*
G01X306050Y74400D02*
Y70600D01*
G01X310950D02*
X308950D01*
G01X310950Y74400D02*
Y70600D01*
G01X308950Y74400D02*
X310950D01*
G01X308950Y70600D02*
Y74400D01*
G01X316157Y99583D02*
X316537Y99833D01*
X316980Y100000D01*
X317487D01*
X318057Y99750D01*
X318500Y99333D01*
X318817Y98833D01*
X319070Y98000D01*
X319133Y97250D01*
X319007Y96500D01*
X318817Y96000D01*
X318437Y95500D01*
X317993Y95167D01*
X317550Y95000D01*
X317107D01*
X316663Y95167D01*
X316283Y95417D01*
X315967Y95750D01*
G01X311690Y95000D02*
Y100000D01*
X314033Y96417D01*
X310867D01*
G01X310950Y91900D02*
Y88100D01*
G01X304050Y91900D02*
X310950D01*
G01X304050Y88100D02*
Y91900D01*
G01X310950Y88100D02*
X304050D01*
G01Y91900D02*
X306050D01*
G01X304050Y88100D02*
Y91900D01*
G01X306050Y88100D02*
X304050D01*
G01X306050Y91900D02*
Y88100D01*
G01X310950D02*
X308950D01*
G01X310950Y91900D02*
Y88100D01*
G01X308950Y91900D02*
X310950D01*
G01X308950Y88100D02*
Y91900D01*
M02*
