G04 ================== begin FILE IDENTIFICATION RECORD ==================*
G04 Layout Name:  IRRIGATION_PROJECT.brd*
G04 Film Name:    SOLDERMASK_BOTTOM*
G04 File Format:  Gerber RS274X*
G04 File Origin:  Cadence Allegro 17.4-S016*
G04 Origin Date:  Tue May  3 10:11:41 2022*
G04 *
G04 Layer:  VIA CLASS/SOLDERMASK_BOTTOM*
G04 Layer:  PIN/SOLDERMASK_BOTTOM*
G04 Layer:  DRC ERROR CLASS/SOLDERMASK_BOTTOM*
G04 *
G04 Offset:    (0.00 0.00)*
G04 Mirror:    No*
G04 Mode:      Positive*
G04 Rotation:  0*
G04 FullContactRelief:  No*
G04 UndefLineWidth:     5.00*
G04 ================== end FILE IDENTIFICATION RECORD ====================*
%FSLAX25Y25*MOIN*%
%IR0*IPPOS*OFA0.00000B0.00000*MIA0B0*SFA1.00000B1.00000*%
%ADD20R,.055X.213*%
%ADD17C,.06*%
%ADD13C,.052*%
%ADD12C,.044*%
%ADD23C,.055*%
%ADD10C,.065*%
%ADD24R,.06X.06*%
%ADD14R,.052X.052*%
%ADD25C,.06181*%
%ADD15C,.07118*%
%ADD11C,.0787*%
%ADD26R,.06181X.06181*%
%ADD19R,.04X.053*%
%ADD27R,.034X.038*%
%ADD21R,.078X.022*%
%ADD18R,.273X.267*%
%ADD16R,.098X.037*%
%ADD22R,.01775X.04375*%
%LPD*%
G75*
G54D10*
X22500Y20000D03*
Y30000D03*
Y65000D03*
Y75000D03*
Y110000D03*
Y120000D03*
Y155000D03*
Y165000D03*
G54D11*
X10000Y190000D03*
X312500Y187500D03*
G54D20*
X207500Y73950D03*
Y111050D03*
G54D21*
X195300Y155000D03*
Y150000D03*
Y145000D03*
Y140000D03*
X214700D03*
Y145000D03*
Y150000D03*
Y155000D03*
G54D12*
X58900Y10000D03*
X92500Y88400D03*
X137500Y100000D03*
X181350Y72500D03*
X180000Y123700D03*
X207500Y59301D03*
X182750Y47500D03*
X200000Y85900D03*
X192150Y85000D03*
X192500Y130000D03*
X192150Y117051D03*
X187850Y135000D03*
X204889Y132854D03*
X219550Y62500D03*
X220550Y72500D03*
X227350Y106150D03*
X220550Y123700D03*
X212500Y160000D03*
X242500Y17345D03*
X247450Y35000D03*
X257500Y55000D03*
X248850Y46100D03*
X265450Y55000D03*
X275312Y23878D03*
X276857Y18145D03*
X300000Y26378D03*
X282750Y35000D03*
X301850Y48800D03*
X281550D03*
X299550Y90000D03*
X305000Y30101D03*
X313650Y59301D03*
X314350Y72500D03*
X303850Y81100D03*
G54D22*
X227500Y21043D03*
X224744Y13957D03*
X230256D03*
X252500Y21043D03*
X249744Y13957D03*
X255256D03*
X280000Y21043D03*
X277244Y13957D03*
X282756D03*
X305000Y21043D03*
X302244Y13957D03*
X307756D03*
G54D13*
X55000Y45000D03*
Y55000D03*
Y65000D03*
Y75000D03*
Y85000D03*
Y95000D03*
Y105000D03*
Y115000D03*
Y125000D03*
Y135000D03*
Y145000D03*
Y155000D03*
Y165000D03*
X85000Y65000D03*
Y55000D03*
Y45000D03*
Y95000D03*
Y85000D03*
Y75000D03*
Y125000D03*
Y115000D03*
Y105000D03*
Y155000D03*
Y145000D03*
Y135000D03*
Y175000D03*
Y165000D03*
G54D14*
X55000Y175000D03*
G54D23*
X232500Y117500D03*
X242500D03*
X252500D03*
X262500D03*
X272500D03*
X282500D03*
X292500D03*
X302500D03*
G54D15*
X117500Y50000D03*
X125374Y26378D03*
Y73622D03*
X169862Y26378D03*
Y73622D03*
G54D24*
X232500Y180000D03*
G54D16*
X142250Y90984D03*
Y109016D03*
G54D25*
X277500Y187500D03*
X287500D03*
G54D26*
X297500D03*
G54D17*
X150000Y122500D03*
X140000D03*
X130000D03*
X170000D03*
X160000D03*
X232500Y150000D03*
Y160000D03*
Y170000D03*
G54D18*
X167500Y100000D03*
G54D27*
X304350Y35000D03*
X310650D03*
X304350Y55000D03*
X310650D03*
X304350Y72500D03*
X310650D03*
X304350Y90000D03*
X310650D03*
G54D19*
X208750Y35000D03*
Y52500D03*
X236250Y35000D03*
X216250D03*
X231250Y72500D03*
X238750D03*
X236250Y52500D03*
X216250D03*
X231250Y92500D03*
X238750D03*
X271250Y35000D03*
X243750D03*
Y52500D03*
X271250D03*
X268750Y72500D03*
X278750Y35000D03*
Y52500D03*
X276250Y72500D03*
M02*
