G04 ================== begin FILE IDENTIFICATION RECORD ==================*
G04 Layout Name:  C:/Users/jb7008/irrigation_project/panel/panelized_board.brd*
G04 Film Name:    TOP*
G04 File Format:  Gerber RS274X*
G04 File Origin:  Cadence Allegro 17.4-S016*
G04 Origin Date:  Mon Apr 18 12:26:16 2022*
G04 *
G04 Layer:  BOARD GEOMETRY/DESIGN_OUTLINE*
G04 Layer:  ETCH/TOP*
G04 Layer:  PIN/TOP*
G04 Layer:  VIA CLASS/TOP*
G04 *
G04 Offset:    (0.0000 0.0000)*
G04 Mirror:    No*
G04 Mode:      Positive*
G04 Rotation:  0*
G04 FullContactRelief:  No*
G04 UndefLineWidth:     5.0000*
G04 ================== end FILE IDENTIFICATION RECORD ====================*
%FSLAX25Y25*MOIN*%
%IR0*IPPOS*OFA0.00000B0.00000*MIA0B0*SFA1.00000B1.00000*%
%AMMACRO10*
4,1,12,-.019685,-.07874,
.019685,-.07874,
.019685,-.019685,
.07874,-.019685,
.07874,.019685,
.019685,.019685,
.019685,.07874,
-.019685,.07874,
-.019685,.019685,
-.07874,.019685,
-.07874,-.019685,
-.019685,-.019685,
-.019685,-.07874,
0.0*
%
%ADD10MACRO10*%
%ADD12C,.024*%
%ADD15R,.04X.053*%
%ADD20C,.053941*%
%ADD17C,.06*%
%ADD11C,.065*%
%ADD13C,.052*%
%ADD16C,.071181*%
%ADD21R,.053941X.053941*%
%ADD19R,.06X.06*%
%ADD18C,.055*%
%ADD14R,.052X.052*%
%ADD22C,.031496*%
%ADD23C,.005*%
%ADD24C,.01*%
%ADD25C,.19685*%
%ADD28R,.236228X.236224*%
%ADD27R,.236228X.236228*%
%ADD26C,.222717*%
G75*
%LPD*%
G75*
G36*
G01X3937Y3937D02*
Y732283D01*
X6046D01*
G03X33324I13639J7874D01*
G01X35433D01*
Y35433D01*
X1224409D01*
Y732283D01*
X1226519D01*
G03X1253796I13639J7874D01*
G01X1255905D01*
Y3937D01*
X3937D01*
G37*
G36*
G01Y960630D02*
Y1657480D01*
Y1688976D01*
X1255905D01*
X1255906Y1661417D01*
Y1657480D01*
X1255905D01*
Y960630D01*
X1253796D01*
G03X1226519I-13639J-7874D01*
G01X1224409D01*
Y1657480D01*
X35433D01*
Y960630D01*
X33324D01*
G03X6046I-13639J-7874D01*
G01X3937D01*
G37*
G36*
G01X78740Y103949D02*
Y78796D01*
X78685Y78740D01*
X53531D01*
G02X78740Y103949I25209J0D01*
G37*
G36*
G01Y1639382D02*
Y1614229D01*
X78685Y1614173D01*
X53531D01*
G02X78740Y1639382I25209J0D01*
G37*
G36*
G01Y53531D02*
Y78685D01*
X78796Y78740D01*
X103949D01*
G02X78740Y53531I-25209J0D01*
G37*
G36*
G01Y1588964D02*
Y1614118D01*
X78796Y1614173D01*
X103949D01*
G02X78740Y1588964I-25209J0D01*
G37*
G36*
G01X1181102Y103949D02*
Y78796D01*
X1181047Y78740D01*
X1155893D01*
G02X1181102Y103949I25209J0D01*
G37*
G36*
G01Y1639382D02*
Y1614229D01*
X1181047Y1614173D01*
X1155893D01*
G02X1181102Y1639382I25209J0D01*
G37*
G36*
G01Y53531D02*
Y78685D01*
X1181158Y78740D01*
X1206311D01*
G02X1181102Y53531I-25209J0D01*
G37*
G36*
G01Y1588964D02*
Y1614118D01*
X1181158Y1614173D01*
X1206311D01*
G02X1181102Y1588964I-25209J0D01*
G37*
%LPC*%
G75*
G54D28*
X1240157Y1673229D03*
X19685D03*
G54D27*
X1240157Y19685D03*
X19685D03*
G54D26*
X78740D03*
X1200787Y1673228D03*
X78740D03*
%LPD*%
G75*
G54D10*
X19685Y19685D03*
Y1673228D03*
X1240157Y19685D03*
Y1673228D03*
G54D11*
X502815Y181417D03*
Y191417D03*
Y226417D03*
Y236417D03*
Y271417D03*
Y281417D03*
Y316417D03*
Y326417D03*
Y575118D03*
Y585118D03*
Y620118D03*
Y630118D03*
Y665118D03*
Y675118D03*
Y710118D03*
Y720118D03*
Y968819D03*
Y978819D03*
Y1013819D03*
Y1023819D03*
Y1058819D03*
Y1068819D03*
Y1103819D03*
Y1113819D03*
Y1362520D03*
Y1372520D03*
Y1407520D03*
Y1417520D03*
Y1452520D03*
Y1462520D03*
Y1497520D03*
Y1507520D03*
G54D20*
X757815Y348917D03*
Y742618D03*
Y1136319D03*
Y1530020D03*
X767815Y348917D03*
Y742618D03*
Y1136319D03*
Y1530020D03*
G54D21*
X777815Y348917D03*
Y742618D03*
Y1136319D03*
Y1530020D03*
G54D12*
X539215Y171417D03*
Y565118D03*
Y958819D03*
Y1352520D03*
X569215Y249817D03*
Y643518D03*
Y1037219D03*
Y1430920D03*
X617815Y261417D03*
Y655118D03*
Y1048819D03*
Y1442520D03*
X664165Y210017D03*
X675665Y247317D03*
X661665Y233917D03*
X672465Y246417D03*
Y278469D03*
X662765Y285117D03*
X668165Y296417D03*
X664165Y603718D03*
X661665Y627618D03*
X675665Y641018D03*
X672465Y640118D03*
X662765Y678818D03*
X672465Y672169D03*
X668165Y690118D03*
X664165Y997419D03*
X675665Y1034719D03*
X661665Y1021319D03*
X672465Y1033819D03*
X662765Y1072519D03*
X668165Y1083819D03*
X672465Y1065870D03*
X664165Y1391120D03*
X675665Y1428420D03*
X661665Y1415020D03*
X672465Y1427520D03*
Y1459571D03*
X662765Y1466220D03*
X668165Y1477520D03*
X699865Y223917D03*
X687815Y220719D03*
X700865Y233917D03*
Y285117D03*
X687815Y292317D03*
X683765Y308917D03*
X685515Y316417D03*
X699865Y617618D03*
X687815Y614419D03*
X700865Y627618D03*
Y678818D03*
X683765Y702618D03*
X685515Y710118D03*
X687815Y686018D03*
X699865Y1011319D03*
X687815Y1008120D03*
X700865Y1021319D03*
Y1072519D03*
X687815Y1079719D03*
X683765Y1096319D03*
X685515Y1103819D03*
X699865Y1405020D03*
X687815Y1401821D03*
X700865Y1415020D03*
X683765Y1490020D03*
X700865Y1466220D03*
X687815Y1473420D03*
X685515Y1497520D03*
X730059Y178762D03*
X727765Y196417D03*
X729165Y207517D03*
X707665Y267567D03*
X730059Y572463D03*
X727765Y590118D03*
X729165Y601218D03*
X707665Y661268D03*
X730059Y966164D03*
X727765Y983819D03*
X729165Y994919D03*
X707665Y1054969D03*
X730059Y1359865D03*
X727765Y1377520D03*
X729165Y1388620D03*
X707665Y1448670D03*
X757172Y179562D03*
X755627Y185295D03*
X746015Y216417D03*
X742815D03*
X757172Y573263D03*
X755627Y578996D03*
X746015Y610118D03*
X742815D03*
X757172Y966964D03*
X755627Y972697D03*
X746015Y1003819D03*
X742815D03*
X757172Y1360665D03*
X755627Y1366398D03*
X746015Y1397520D03*
X742815D03*
X782559Y187795D03*
X763065Y196417D03*
X761865Y210217D03*
X782165D03*
X779865Y251417D03*
X761865Y603918D03*
X782165D03*
X782559Y581496D03*
X763065Y590118D03*
X779865Y645118D03*
X782559Y975197D03*
X761865Y997619D03*
X782165D03*
X763065Y983819D03*
X779865Y1038819D03*
X782559Y1368898D03*
X763065Y1377520D03*
X761865Y1391320D03*
X782165D03*
X779865Y1432520D03*
X785315Y191519D03*
X793965Y220719D03*
X784165Y242517D03*
X794665Y233917D03*
X785315Y585219D03*
X794665Y627618D03*
X793965Y614419D03*
X784165Y636218D03*
X785315Y978920D03*
X784165Y1029919D03*
X794665Y1021319D03*
X793965Y1008120D03*
X785315Y1372621D03*
X793965Y1401821D03*
X784165Y1423620D03*
X794665Y1415020D03*
G54D22*
G01X110481Y78740D02*
G03I-31741J0D01*
G01Y1614173D02*
G03I-31741J0D01*
G01X1212844Y78740D02*
G03I-31741J0D01*
G01Y1614173D02*
G03I-31741J0D01*
G54D13*
X535315Y216417D03*
Y226417D03*
Y206417D03*
Y236417D03*
Y246417D03*
Y276417D03*
Y256417D03*
Y266417D03*
Y286417D03*
Y296417D03*
Y306417D03*
Y326417D03*
Y316417D03*
Y600118D03*
Y610118D03*
Y620118D03*
Y630118D03*
Y640118D03*
Y650118D03*
Y670118D03*
Y680118D03*
Y660118D03*
Y690118D03*
Y700118D03*
Y710118D03*
Y720118D03*
Y1003819D03*
Y993819D03*
Y1013819D03*
Y1023819D03*
Y1033819D03*
Y1043819D03*
Y1053819D03*
Y1063819D03*
Y1073819D03*
Y1083819D03*
Y1113819D03*
Y1093819D03*
Y1103819D03*
Y1397520D03*
Y1407520D03*
Y1387520D03*
Y1417520D03*
Y1427520D03*
Y1437520D03*
Y1457520D03*
Y1447520D03*
Y1467520D03*
Y1477520D03*
Y1487520D03*
Y1507520D03*
Y1497520D03*
X565315Y226417D03*
Y216417D03*
Y206417D03*
Y246417D03*
Y236417D03*
Y276417D03*
Y256417D03*
Y266417D03*
Y306417D03*
Y296417D03*
Y286417D03*
Y326417D03*
Y316417D03*
Y336417D03*
Y600118D03*
Y630118D03*
Y620118D03*
Y610118D03*
Y640118D03*
Y650118D03*
Y680118D03*
Y670118D03*
Y660118D03*
Y710118D03*
Y700118D03*
Y690118D03*
Y730118D03*
Y720118D03*
Y1003819D03*
Y993819D03*
Y1033819D03*
Y1023819D03*
Y1013819D03*
Y1043819D03*
Y1053819D03*
Y1083819D03*
Y1073819D03*
Y1063819D03*
Y1113819D03*
Y1103819D03*
Y1093819D03*
Y1123819D03*
Y1407520D03*
Y1397520D03*
Y1387520D03*
Y1427520D03*
Y1417520D03*
Y1437520D03*
Y1457520D03*
Y1447520D03*
Y1487520D03*
Y1477520D03*
Y1467520D03*
Y1517520D03*
Y1507520D03*
Y1497520D03*
G54D23*
G01X535315Y306417D02*
X496715D01*
Y167717D01*
X638098D01*
Y196417D01*
X727765D01*
G01X535315Y700118D02*
X496715D01*
Y561418D01*
X638098D01*
Y590118D01*
X727765D01*
G01X535315Y1093819D02*
X496715D01*
Y955119D01*
X638098D01*
Y983819D01*
X727765D01*
G01X535315Y1487520D02*
X496715D01*
Y1348820D01*
X638098D01*
Y1377520D01*
X727765D01*
G54D14*
X535315Y336417D03*
Y730118D03*
Y1123819D03*
Y1517520D03*
G54D24*
G01X597815Y211417D02*
Y191417D01*
X502815D01*
G01Y181417D02*
X619548D01*
Y210017D01*
X664165D01*
G01X650315Y283917D02*
Y252317D01*
X498265D01*
Y206417D01*
X535315D01*
G01X650177Y235039D02*
Y230180D01*
X585415D01*
Y230967D01*
X502815D01*
Y236417D01*
G01X535315Y266417D02*
X502815D01*
Y271417D01*
G01X683765Y312517D02*
X519965D01*
Y326417D01*
X502815D01*
G01Y575118D02*
X619548D01*
Y603718D01*
X664165D01*
G01X597815Y605118D02*
Y585118D01*
X502815D01*
G01X650315Y677618D02*
Y646018D01*
X498265D01*
Y600118D01*
X535315D01*
G01X650177Y628740D02*
Y623881D01*
X585415D01*
Y624668D01*
X502815D01*
Y630118D01*
G01X535315Y660118D02*
X502815D01*
Y665118D01*
G01X683765Y706218D02*
X519965D01*
Y720118D01*
X502815D01*
G01X597815Y998819D02*
Y978819D01*
X502815D01*
G01Y968819D02*
X619548D01*
Y997419D01*
X664165D01*
G01X650315Y1071319D02*
Y1039719D01*
X498265D01*
Y993819D01*
X535315D01*
G01X650177Y1022441D02*
Y1017582D01*
X585415D01*
Y1018369D01*
X502815D01*
Y1023819D01*
G01X535315Y1053819D02*
X502815D01*
Y1058819D01*
G01X683765Y1099919D02*
X519965D01*
Y1113819D01*
X502815D01*
G01X597815Y1392520D02*
Y1372520D01*
X502815D01*
G01Y1362520D02*
X619548D01*
Y1391120D01*
X664165D01*
G01X650315Y1465020D02*
Y1433420D01*
X498265D01*
Y1387520D01*
X535315D01*
G01X650177Y1416142D02*
Y1411283D01*
X585415D01*
Y1412070D01*
X502815D01*
Y1417520D01*
G01X535315Y1447520D02*
X502815D01*
Y1452520D01*
G01X683765Y1493620D02*
X519965D01*
Y1507520D01*
X502815D01*
G01X546565Y171417D02*
X539215D01*
G01X535315Y246417D02*
Y242517D01*
X675665D01*
Y247317D01*
G01X535315Y256417D02*
X541015D01*
Y272117D01*
X529615D01*
Y292317D01*
X687815D01*
G01X535315Y276417D02*
X548215D01*
Y256417D01*
X565315D01*
G01X535315Y286417D02*
X559016D01*
Y276417D01*
X565315D01*
G01X546565Y565118D02*
X539215D01*
G01X535315Y650118D02*
X541015D01*
Y665818D01*
X529615D01*
Y686018D01*
X687815D01*
G01X535315Y640118D02*
Y636218D01*
X675665D01*
Y641018D01*
G01X535315Y680118D02*
X559016D01*
Y670118D01*
X565315D01*
G01X535315D02*
X548215D01*
Y650118D01*
X565315D01*
G01X546565Y958819D02*
X539215D01*
G01X535315Y1033819D02*
Y1029919D01*
X675665D01*
Y1034719D01*
G01X535315Y1043819D02*
X541015D01*
Y1059519D01*
X529615D01*
Y1079719D01*
X687815D01*
G01X535315Y1073819D02*
X559016D01*
Y1063819D01*
X565315D01*
G01X535315D02*
X548215D01*
Y1043819D01*
X565315D01*
G01X546565Y1352520D02*
X539215D01*
G01X535315Y1427520D02*
Y1423620D01*
X675665D01*
Y1428420D01*
G01X535315Y1437520D02*
X541015D01*
Y1453220D01*
X529615D01*
Y1473420D01*
X687815D01*
G01X535315Y1457520D02*
X548215D01*
Y1437520D01*
X565315D01*
G01X535315Y1467520D02*
X559016D01*
Y1457520D01*
X565315D01*
G01X554065Y171417D02*
X630348D01*
Y207517D01*
X729165D01*
G01X565315Y216417D02*
X742815D01*
G01X565315Y226417D02*
X752815D01*
Y278917D01*
G01X565315Y236417D02*
Y240317D01*
X748665D01*
Y282967D01*
X762815D01*
Y278917D01*
G01X565315Y246417D02*
X672465D01*
G01X617815Y276417D02*
X565315D01*
G01Y286417D02*
Y290317D01*
X658215D01*
Y267567D01*
X707665D01*
G01X565315Y306417D02*
X797165D01*
Y185295D01*
X755627D01*
G01X565315Y296417D02*
X668165D01*
G01X565315Y316417D02*
X559615D01*
Y348917D01*
X757815D01*
G01X565315Y326417D02*
X712815D01*
Y331417D01*
G01Y311417D02*
X718915D01*
Y336417D01*
X565315D01*
G01X554065Y565118D02*
X630348D01*
Y601218D01*
X729165D01*
G01X565315Y620118D02*
X752815D01*
Y672618D01*
G01X565315Y610118D02*
X742815D01*
G01X565315Y630118D02*
Y634018D01*
X748665D01*
Y676668D01*
X762815D01*
Y672618D01*
G01X565315Y640118D02*
X672465D01*
G01X617815Y670118D02*
X565315D01*
G01Y680118D02*
Y684018D01*
X658215D01*
Y661268D01*
X707665D01*
G01X565315Y710118D02*
X559615D01*
Y742618D01*
X757815D01*
G01X565315Y700118D02*
X797165D01*
Y578996D01*
X755627D01*
G01X565315Y690118D02*
X668165D01*
G01X565315Y720118D02*
X712815D01*
Y725118D01*
G01Y705118D02*
X718915D01*
Y730118D01*
X565315D01*
G01X554065Y958819D02*
X630348D01*
Y994919D01*
X729165D01*
G01X565315Y1003819D02*
X742815D01*
G01X565315Y1013819D02*
X752815D01*
Y1066319D01*
G01X565315Y1023819D02*
Y1027719D01*
X748665D01*
Y1070369D01*
X762815D01*
Y1066319D01*
G01X565315Y1033819D02*
X672465D01*
G01X617815Y1063819D02*
X565315D01*
G01Y1073819D02*
Y1077719D01*
X658215D01*
Y1054969D01*
X707665D01*
G01X565315Y1083819D02*
X668165D01*
G01X565315Y1103819D02*
X559615D01*
Y1136319D01*
X757815D01*
G01X565315Y1093819D02*
X797165D01*
Y972697D01*
X755627D01*
G01X565315Y1113819D02*
X712815D01*
Y1118819D01*
G01Y1098819D02*
X718915D01*
Y1123819D01*
X565315D01*
G01X554065Y1352520D02*
X630348D01*
Y1388620D01*
X729165D01*
G01X565315Y1407520D02*
X752815D01*
Y1460020D01*
G01X565315Y1397520D02*
X742815D01*
G01X565315Y1417520D02*
Y1421420D01*
X748665D01*
Y1464070D01*
X762815D01*
Y1460020D01*
G01X565315Y1427520D02*
X672465D01*
G01X617815Y1457520D02*
X565315D01*
G01Y1467520D02*
Y1471420D01*
X658215D01*
Y1448670D01*
X707665D01*
G01X565315Y1487520D02*
X797165D01*
Y1366398D01*
X755627D01*
G01X565315Y1477520D02*
X668165D01*
G01X565315Y1497520D02*
X559615D01*
Y1530020D01*
X757815D01*
G01X565315Y1507520D02*
X712815D01*
Y1512520D01*
G01Y1492520D02*
X718915D01*
Y1517520D01*
X565315D01*
G01X722815Y278917D02*
Y249817D01*
X569215D01*
G01X722815Y672618D02*
Y643518D01*
X569215D01*
G01X722815Y1066319D02*
Y1037219D01*
X569215D01*
G01X722815Y1460020D02*
Y1430920D01*
X569215D01*
G01X763065Y196417D02*
X735665D01*
Y212517D01*
X606274D01*
Y211417D01*
X597815D01*
G01X617815Y261417D02*
Y276417D01*
G01D02*
X620315D01*
Y283917D01*
G01X763065Y590118D02*
X735665D01*
Y606218D01*
X606274D01*
Y605118D01*
X597815D01*
G01X617815Y655118D02*
Y670118D01*
G01D02*
X620315D01*
Y677618D01*
G01X763065Y983819D02*
X735665D01*
Y999919D01*
X606274D01*
Y998819D01*
X597815D01*
G01X617815Y1048819D02*
Y1063819D01*
G01D02*
X620315D01*
Y1071319D01*
G01X763065Y1377520D02*
X735665D01*
Y1393620D01*
X606274D01*
Y1392520D01*
X597815D01*
G01X617815Y1442520D02*
Y1457520D01*
G01D02*
X620315D01*
Y1465020D01*
G01X782559Y187795D02*
X650177D01*
G01X661665Y233917D02*
X700865D01*
G01X732815Y278917D02*
Y282967D01*
X706965D01*
Y278469D01*
X672465D01*
G01X700865Y285117D02*
X662765D01*
G01X782559Y581496D02*
X650177D01*
G01X661665Y627618D02*
X700865D01*
G01Y678818D02*
X662765D01*
G01X732815Y672618D02*
Y676668D01*
X706965D01*
Y672169D01*
X672465D01*
G01X782559Y975197D02*
X650177D01*
G01X661665Y1021319D02*
X700865D01*
G01Y1072519D02*
X662765D01*
G01X732815Y1066319D02*
Y1070369D01*
X706965D01*
Y1065870D01*
X672465D01*
G01X782559Y1368898D02*
X650177D01*
G01X661665Y1415020D02*
X700865D01*
G01X732815Y1460020D02*
Y1464070D01*
X706965D01*
Y1459571D01*
X672465D01*
G01X700865Y1466220D02*
X662765D01*
G01X779865Y251417D02*
Y223917D01*
X699865D01*
G01X687815Y220719D02*
X793965D01*
G01X772815Y278917D02*
Y285117D01*
X700865D01*
G01X687815Y292317D02*
X794665D01*
Y233917D01*
G01X683765Y308917D02*
Y312517D01*
G01D02*
X685515D01*
Y316417D01*
G01X779865Y645118D02*
Y617618D01*
X699865D01*
G01X687815Y614419D02*
X793965D01*
G01X772815Y672618D02*
Y678818D01*
X700865D01*
G01X683765Y702618D02*
Y706218D01*
G01D02*
X685515D01*
Y710118D01*
G01X687815Y686018D02*
X794665D01*
Y627618D01*
G01X779865Y1038819D02*
Y1011319D01*
X699865D01*
G01X687815Y1008120D02*
X793965D01*
G01X772815Y1066319D02*
Y1072519D01*
X700865D01*
G01X687815Y1079719D02*
X794665D01*
Y1021319D01*
G01X683765Y1096319D02*
Y1099919D01*
G01D02*
X685515D01*
Y1103819D01*
G01X779865Y1432520D02*
Y1405020D01*
X699865D01*
G01X687815Y1401821D02*
X793965D01*
G01X683765Y1490020D02*
Y1493620D01*
G01X772815Y1460020D02*
Y1466220D01*
X700865D01*
G01X687815Y1473420D02*
X794665D01*
Y1415020D01*
G01X683765Y1493620D02*
X685515D01*
Y1497520D01*
G01X777815Y348917D02*
Y341417D01*
X712815D01*
G01X777815Y742618D02*
Y735118D01*
X712815D01*
G01X777815Y1136319D02*
Y1128819D01*
X712815D01*
G01X777815Y1530020D02*
Y1522520D01*
X712815D01*
G01X757172Y179562D02*
X754672D01*
Y178762D01*
X730059D01*
G01X746015Y216417D02*
X785315D01*
Y191519D01*
G01X757172Y573263D02*
X754672D01*
Y572463D01*
X730059D01*
G01X746015Y610118D02*
X785315D01*
Y585219D01*
G01X757172Y966964D02*
X754672D01*
Y966164D01*
X730059D01*
G01X746015Y1003819D02*
X785315D01*
Y978920D01*
G01X757172Y1360665D02*
X754672D01*
Y1359865D01*
X730059D01*
G01X746015Y1397520D02*
X785315D01*
Y1372621D01*
G01X782165Y210217D02*
X761865D01*
G01X784165Y242517D02*
Y264717D01*
X772815D01*
Y278917D01*
G01X782165Y603918D02*
X761865D01*
G01X784165Y636218D02*
Y658418D01*
X772815D01*
Y672618D01*
G01X782165Y997619D02*
X761865D01*
G01X784165Y1029919D02*
Y1052119D01*
X772815D01*
Y1066319D01*
G01X782165Y1391320D02*
X761865D01*
G01X784165Y1423620D02*
Y1445820D01*
X772815D01*
Y1460020D01*
G54D15*
X546565Y171417D03*
X554065D03*
X546565Y565118D03*
X554065D03*
X546565Y958819D03*
X554065D03*
X546565Y1352520D03*
X554065D03*
G54D25*
G01X0Y0D02*
X1259843D01*
Y1692913D01*
X0D01*
Y0D01*
G54D16*
X605689Y187795D03*
X597815Y211417D03*
X605689Y235039D03*
Y581496D03*
X597815Y605118D03*
X605689Y628740D03*
Y975197D03*
X597815Y998819D03*
X605689Y1022441D03*
Y1368898D03*
X597815Y1392520D03*
X605689Y1416142D03*
X650177Y187795D03*
Y235039D03*
Y581496D03*
Y628740D03*
Y975197D03*
Y1022441D03*
Y1368898D03*
Y1416142D03*
G54D17*
X610315Y283917D03*
X620315D03*
X610315Y677618D03*
X620315D03*
X610315Y1071319D03*
X620315D03*
X610315Y1465020D03*
X620315D03*
X630315Y283917D03*
X650315D03*
X640315D03*
X630315Y677618D03*
X650315D03*
X640315D03*
X630315Y1071319D03*
X650315D03*
X640315D03*
X630315Y1465020D03*
X650315D03*
X640315D03*
X712815Y331417D03*
Y311417D03*
Y321417D03*
Y705118D03*
Y725118D03*
Y715118D03*
Y1098819D03*
Y1108819D03*
Y1118819D03*
Y1492520D03*
Y1512520D03*
Y1502520D03*
G54D18*
X722815Y278917D03*
X712815D03*
X722815Y672618D03*
X712815D03*
X722815Y1066319D03*
X712815D03*
X722815Y1460020D03*
X712815D03*
X752815Y278917D03*
X742815D03*
X732815D03*
X752815Y672618D03*
X742815D03*
X732815D03*
X752815Y1066319D03*
X742815D03*
X732815D03*
X752815Y1460020D03*
X742815D03*
X732815D03*
X772815Y278917D03*
X762815D03*
X782815D03*
X772815Y672618D03*
X762815D03*
X782815D03*
X772815Y1066319D03*
X762815D03*
X782815D03*
X772815Y1460020D03*
X762815D03*
X782815D03*
G54D19*
X712815Y341417D03*
Y735118D03*
Y1128819D03*
Y1522520D03*
M02*
